{"glyphs":{"0":{"ha":1014,"x_min":97,"x_max":917,"o":"m 711 0 l 300 0 q 265 26 271 0 l 241 113 q 208 146 235 140 l 123 168 q 97 203 97 174 l 97 768 q 123 803 97 797 l 208 827 q 241 860 235 833 l 265 946 q 300 972 271 972 l 711 972 q 746 946 740 972 l 770 860 q 803 827 776 833 l 890 803 q 917 768 917 797 l 917 203 q 890 168 917 174 l 803 146 q 770 113 776 140 l 746 26 q 711 0 740 0 m 715 833 l 298 833 q 254 814 273 833 q 235 770 235 795 l 235 201 q 253 157 235 175 q 298 139 272 139 l 715 139 q 761 157 742 139 q 779 201 779 175 l 779 770 q 760 814 779 795 q 715 833 741 833 m 549 375 l 467 375 q 446 382 454 375 q 439 403 439 390 l 439 570 q 446 590 439 583 q 467 597 454 597 l 549 597 q 569 590 562 597 q 576 570 576 583 l 576 403 q 569 382 576 390 q 549 375 562 375 z "},"1":{"ha":1014,"x_min":97,"x_max":917,"o":"m 549 972 q 569 965 562 972 q 576 945 576 958 l 576 829 q 550 794 576 800 l 464 771 q 431 737 437 765 l 407 653 q 372 627 401 627 l 125 627 q 104 634 112 627 q 97 654 97 642 l 97 736 q 104 756 97 749 q 125 764 112 764 l 374 764 q 418 783 399 764 q 437 828 437 802 l 437 945 q 445 965 437 958 q 465 972 452 972 l 549 972 m 465 627 l 549 627 q 569 619 562 627 q 576 599 576 612 l 576 201 q 595 157 576 176 q 639 138 614 138 l 889 138 q 909 130 902 138 q 917 110 917 123 l 917 28 q 909 7 917 15 q 889 0 902 0 l 604 0 q 584 7 591 0 q 576 28 576 15 l 576 110 q 569 130 576 123 q 549 138 562 138 l 465 138 q 445 130 452 138 q 437 110 437 123 l 437 28 q 430 7 437 15 q 410 0 422 0 l 125 0 q 104 7 112 0 q 97 28 97 15 l 97 110 q 104 130 97 123 q 125 138 112 138 l 375 138 q 419 156 401 138 q 437 201 437 175 l 437 599 q 445 619 437 612 q 465 627 452 627 z "},"2":{"ha":1014,"x_min":97,"x_max":917,"o":"m 97 28 l 97 361 q 104 381 97 374 q 125 389 112 389 l 199 389 q 233 415 227 389 l 258 503 q 293 528 264 528 l 715 528 q 760 546 741 528 q 779 590 779 565 l 779 770 q 760 814 779 795 q 715 833 741 833 l 298 833 q 254 814 273 833 q 235 770 235 795 l 235 685 q 227 665 235 672 q 207 657 220 657 l 125 657 q 104 665 112 657 q 97 685 97 672 l 97 768 q 123 803 97 797 l 211 827 q 244 860 238 833 l 268 946 q 302 972 274 972 l 714 972 q 749 946 743 972 l 772 860 q 806 827 779 833 l 890 803 q 917 768 917 797 l 917 555 q 909 535 917 543 q 889 528 902 528 l 815 528 q 781 501 787 528 l 755 414 q 721 389 749 389 l 298 389 q 254 370 273 389 q 235 326 235 351 l 235 167 q 242 146 235 154 q 262 139 250 139 l 889 139 q 909 132 902 139 q 917 111 917 124 l 917 28 q 909 7 917 15 q 889 0 902 0 l 125 0 q 104 7 112 0 q 97 28 97 15 z "},"3":{"ha":1014,"x_min":97,"x_max":917,"o":"m 917 583 q 909 563 917 570 q 889 555 902 555 l 807 555 q 787 563 794 555 q 779 583 779 570 l 779 770 q 760 814 779 795 q 715 833 741 833 l 298 833 q 254 814 273 833 q 235 770 235 795 l 235 685 q 227 665 235 672 q 207 657 220 657 l 125 657 q 104 665 112 657 q 97 685 97 672 l 97 768 q 123 803 97 797 l 211 827 q 244 860 238 833 l 268 946 q 302 972 274 972 l 714 972 q 749 946 743 972 l 772 860 q 806 827 779 833 l 890 803 q 917 768 917 797 l 917 583 m 917 351 l 917 203 q 890 168 917 174 l 806 146 q 772 113 779 140 l 749 26 q 714 0 743 0 l 300 0 q 280 7 289 0 q 268 26 271 14 l 244 113 q 211 146 238 140 l 123 170 q 97 204 97 176 l 97 288 q 104 308 97 300 q 125 315 112 315 l 207 315 q 227 308 220 315 q 235 288 235 300 l 235 203 q 254 158 235 177 q 298 139 273 139 l 715 139 q 761 157 742 139 q 779 201 779 175 l 779 353 q 760 397 779 378 q 715 416 741 416 l 401 416 q 381 424 389 416 q 374 444 374 431 l 374 528 q 381 548 374 541 q 401 555 389 555 l 714 555 q 749 529 743 555 l 772 443 q 806 410 779 416 l 890 386 q 917 351 917 380 z "},"4":{"ha":1014,"x_min":97,"x_max":917,"o":"m 917 351 l 917 28 q 909 7 917 15 q 889 0 902 0 l 807 0 q 787 7 794 0 q 779 28 779 15 l 779 353 q 760 397 779 378 q 715 416 741 416 l 300 416 q 265 443 271 416 l 241 529 q 208 562 235 556 l 123 585 q 97 619 97 591 l 97 945 q 104 965 97 958 q 125 972 112 972 l 207 972 q 227 965 220 972 q 235 945 235 958 l 235 618 q 253 573 235 591 q 298 555 272 555 l 714 555 q 749 529 743 555 l 772 443 q 806 410 779 416 l 890 386 q 917 351 917 380 m 917 583 q 909 563 917 570 q 889 555 902 555 l 807 555 q 787 563 794 555 q 779 583 779 570 l 779 945 q 787 965 779 958 q 807 972 794 972 l 889 972 q 909 965 902 972 q 917 945 917 958 l 917 583 z "},"5":{"ha":1014,"x_min":97,"x_max":917,"o":"m 97 945 q 104 965 97 958 q 125 972 112 972 l 889 972 q 909 965 902 972 q 917 945 917 958 l 917 861 q 909 841 917 848 q 889 833 902 833 l 262 833 q 242 826 250 833 q 235 806 235 819 l 235 660 q 254 616 235 635 q 298 597 273 597 l 721 597 q 755 572 749 597 l 781 485 q 815 458 787 458 l 889 458 q 909 451 902 458 q 917 431 917 444 l 917 204 q 890 170 917 176 l 806 146 q 772 113 779 140 l 749 26 q 714 0 743 0 l 302 0 q 268 26 274 0 l 244 113 q 211 146 238 140 l 123 170 q 97 204 97 176 l 97 288 q 104 308 97 300 q 125 315 112 315 l 207 315 q 227 308 220 315 q 235 288 235 300 l 235 203 q 254 158 235 177 q 298 139 273 139 l 715 139 q 760 158 741 139 q 779 203 779 177 l 779 396 q 760 440 779 421 q 715 458 741 458 l 293 458 q 258 484 264 458 l 233 571 q 199 597 227 597 l 125 597 q 104 605 112 597 q 97 625 97 612 l 97 945 z "},"6":{"ha":1014,"x_min":97,"x_max":917,"o":"m 304 443 l 304 528 q 312 548 304 541 q 332 555 319 555 l 714 555 q 749 529 743 555 l 772 443 q 806 410 779 416 l 890 386 q 917 351 917 380 l 917 203 q 890 168 917 174 l 806 146 q 772 113 779 140 l 749 26 q 714 0 743 0 l 300 0 q 265 26 271 0 l 241 113 q 208 146 235 140 l 123 168 q 97 203 97 174 l 97 768 q 123 803 97 797 l 208 827 q 241 860 235 833 l 265 946 q 300 972 271 972 l 711 972 q 746 946 740 972 l 770 860 q 803 827 776 833 l 890 803 q 917 768 917 797 l 917 685 q 909 665 917 672 q 889 657 902 657 l 807 657 q 787 665 794 657 q 779 685 779 672 l 779 770 q 760 814 779 795 q 715 833 741 833 l 298 833 q 254 814 273 833 q 235 770 235 795 l 235 200 q 253 156 235 174 q 298 138 272 138 l 715 138 q 761 156 742 138 q 779 200 779 174 l 779 351 q 760 396 779 377 q 715 415 741 415 l 332 415 q 312 422 319 415 q 304 443 304 430 z "},"7":{"ha":1014,"x_min":97,"x_max":917,"o":"m 711 415 l 604 415 q 584 408 591 415 q 576 387 576 400 l 576 28 q 569 7 576 15 q 549 0 562 0 l 467 0 q 446 7 454 0 q 439 28 439 15 l 439 387 q 446 408 439 400 q 467 415 454 415 l 513 415 q 558 433 539 415 q 576 478 576 452 l 576 526 q 584 547 576 539 q 604 554 591 554 l 713 554 q 760 572 741 554 q 779 616 779 589 l 779 806 q 772 826 779 819 q 751 833 764 833 l 125 833 q 104 841 112 833 q 97 861 97 848 l 97 945 q 104 965 97 958 q 125 972 112 972 l 889 972 q 909 965 902 972 q 917 945 917 958 l 917 618 q 890 583 917 589 l 803 561 q 770 528 776 555 l 746 441 q 711 415 740 415 z "},"8":{"ha":1014,"x_min":97,"x_max":917,"o":"m 123 804 l 208 827 q 241 860 235 833 l 265 946 q 300 972 271 972 l 714 972 q 749 946 743 972 l 772 860 q 806 827 779 833 l 890 804 q 917 770 917 798 l 917 583 q 909 563 917 570 q 889 555 902 555 l 807 555 q 787 548 794 555 q 779 528 779 541 l 779 444 q 787 424 779 431 q 807 416 794 416 l 889 416 q 909 409 902 416 q 917 389 917 401 l 917 204 q 890 170 917 176 l 806 146 q 772 113 779 140 l 749 26 q 714 0 743 0 l 300 0 q 265 26 271 0 l 241 113 q 208 146 235 140 l 123 170 q 97 204 97 176 l 97 351 q 123 386 97 380 l 208 410 q 241 443 235 416 l 265 529 q 300 555 271 555 l 715 555 q 760 574 741 555 q 779 618 779 593 l 779 771 q 761 815 779 798 q 715 833 742 833 l 298 833 q 253 815 272 833 q 235 771 235 798 l 235 583 q 227 563 235 570 q 207 555 220 555 l 125 555 q 104 563 112 555 q 97 583 97 570 l 97 770 q 123 804 97 798 m 779 203 l 779 354 q 761 398 779 380 q 715 416 742 416 l 298 416 q 254 397 273 416 q 235 353 235 378 l 235 203 q 254 158 235 177 q 298 139 273 139 l 715 139 q 760 158 741 139 q 779 203 779 177 z "},"9":{"ha":1014,"x_min":97,"x_max":917,"o":"m 710 529 l 710 444 q 703 424 710 431 q 682 416 695 416 l 300 416 q 265 443 271 416 l 241 529 q 208 562 235 556 l 123 586 q 97 621 97 592 l 97 770 q 123 804 97 798 l 208 827 q 241 860 235 833 l 265 946 q 300 972 271 972 l 714 972 q 749 946 743 972 l 772 860 q 806 827 779 833 l 890 804 q 917 770 917 798 l 917 204 q 890 170 917 176 l 806 146 q 772 113 779 140 l 749 26 q 714 0 743 0 l 302 0 q 268 26 274 0 l 244 113 q 211 146 238 140 l 123 170 q 97 204 97 176 l 97 288 q 104 308 97 300 q 125 315 112 315 l 207 315 q 227 308 220 315 q 235 288 235 300 l 235 203 q 254 158 235 177 q 298 139 273 139 l 715 139 q 760 158 741 139 q 779 203 779 177 l 779 772 q 761 817 779 799 q 715 835 742 835 l 298 835 q 253 817 272 835 q 235 772 235 799 l 235 621 q 254 576 235 595 q 298 557 273 557 l 682 557 q 703 549 695 557 q 710 529 710 542 z "},"\u0000":{"ha":0,"x_min":0,"x_max":0,"o":""},"\r":{"ha":347,"x_min":0,"x_max":0,"o":""}," ":{"ha":1014,"x_min":0,"x_max":0,"o":""},"!":{"ha":1014,"x_min":437,"x_max":576,"o":"m 549 292 l 465 292 q 445 299 452 292 q 437 319 437 307 l 437 945 q 445 965 437 958 q 465 972 452 972 l 549 972 q 569 965 562 972 q 576 945 576 958 l 576 319 q 569 299 576 307 q 549 292 562 292 m 549 0 l 465 0 q 445 7 452 0 q 437 28 437 15 l 437 125 q 445 145 437 138 q 465 153 452 153 l 549 153 q 569 145 562 153 q 576 125 576 138 l 576 28 q 569 7 576 15 q 549 0 562 0 z "},"\"":{"ha":1014,"x_min":298,"x_max":715,"o":"m 410 736 l 326 736 q 306 743 313 736 q 298 764 298 751 l 298 945 q 306 965 298 958 q 326 972 313 972 l 410 972 q 430 965 422 972 q 437 945 437 958 l 437 764 q 430 743 437 751 q 410 736 422 736 m 688 736 l 604 736 q 584 743 591 736 q 576 764 576 751 l 576 945 q 584 965 576 958 q 604 972 591 972 l 688 972 q 708 965 701 972 q 715 945 715 958 l 715 764 q 708 743 715 751 q 688 736 701 736 z "},"#":{"ha":1014,"x_min":97,"x_max":917,"o":"m 618 972 l 701 972 q 722 965 714 972 q 729 945 729 958 l 729 829 q 703 794 729 800 l 616 771 q 583 737 590 765 l 559 653 q 525 627 553 627 l 488 627 q 443 607 462 627 q 424 562 424 588 l 424 411 q 397 376 424 382 l 311 353 q 278 319 284 347 l 254 235 q 220 208 248 208 l 125 208 q 104 216 112 208 q 97 236 97 223 l 97 318 q 104 338 97 331 q 125 346 112 346 l 221 346 q 266 365 247 346 q 285 410 285 384 l 285 561 q 311 596 285 590 l 397 619 q 431 653 424 625 l 454 737 q 489 764 460 764 l 526 764 q 571 783 552 764 q 590 828 590 802 l 590 945 q 597 965 590 958 q 618 972 605 972 m 313 972 l 396 972 q 416 965 409 972 q 424 945 424 958 l 424 829 q 397 794 424 800 l 311 771 q 278 737 285 765 l 254 653 q 220 627 248 627 l 125 627 q 104 634 112 627 q 97 654 97 642 l 97 736 q 104 756 97 749 q 125 764 112 764 l 221 764 q 266 783 247 764 q 285 828 285 802 l 285 945 q 292 965 285 958 q 313 972 300 972 m 396 0 l 313 0 q 292 7 300 0 q 285 28 285 15 l 285 143 q 311 178 285 172 l 397 201 q 431 235 425 208 l 454 319 q 489 346 460 346 l 526 346 q 571 365 552 346 q 590 410 590 384 l 590 561 q 616 596 590 590 l 703 619 q 736 653 729 625 l 760 737 q 794 764 766 764 l 889 764 q 909 756 902 764 q 917 736 917 749 l 917 654 q 909 634 917 642 q 889 627 902 627 l 793 627 q 748 607 767 627 q 729 562 729 588 l 729 411 q 703 376 729 382 l 616 353 q 583 319 589 347 l 559 235 q 525 208 553 208 l 488 208 q 443 189 462 208 q 424 144 424 170 l 424 28 q 416 7 424 15 q 396 0 409 0 m 701 0 l 618 0 q 597 7 605 0 q 590 28 590 15 l 590 143 q 616 178 590 172 l 703 201 q 736 235 730 208 l 760 319 q 794 346 766 346 l 889 346 q 909 338 902 346 q 917 318 917 331 l 917 236 q 909 216 917 223 q 889 208 902 208 l 793 208 q 748 189 767 208 q 729 144 729 170 l 729 28 q 722 7 729 15 q 701 0 714 0 z "},"$":{"ha":1014,"x_min":97,"x_max":917,"o":"m 714 0 l 604 0 q 584 -7 591 0 q 576 -28 576 -15 l 576 -111 q 569 -132 576 -124 q 549 -139 562 -139 l 465 -139 q 445 -132 452 -139 q 437 -111 437 -124 l 437 -28 q 430 -7 437 -15 q 410 0 422 0 l 300 0 q 265 26 271 0 l 241 113 q 208 146 235 140 l 123 168 q 97 203 97 174 l 97 286 q 104 307 97 299 q 125 314 112 314 l 207 314 q 227 307 220 314 q 235 286 235 299 l 235 201 q 253 157 235 175 q 298 139 272 139 l 715 139 q 761 157 742 139 q 779 201 779 175 l 779 354 q 760 398 779 379 q 715 416 741 416 l 293 416 q 258 441 264 416 l 233 529 q 199 555 227 555 l 125 555 q 104 563 112 555 q 97 583 97 570 l 97 768 q 123 803 97 797 l 208 827 q 241 860 235 833 l 265 946 q 300 972 271 972 l 410 972 q 430 980 422 972 q 437 1000 437 987 l 437 1083 q 445 1103 437 1096 q 465 1111 452 1111 l 549 1111 q 569 1103 562 1111 q 576 1083 576 1096 l 576 1000 q 584 980 576 987 q 604 972 591 972 l 711 972 q 746 946 740 972 l 770 860 q 803 827 776 833 l 890 803 q 917 768 917 797 l 917 685 q 909 665 917 672 q 889 657 902 657 l 807 657 q 787 665 794 657 q 779 685 779 672 l 779 770 q 760 814 779 795 q 715 833 741 833 l 298 833 q 254 814 273 833 q 235 770 235 795 l 235 618 q 254 574 235 593 q 298 555 273 555 l 721 555 q 755 530 749 555 l 781 443 q 815 416 787 416 l 889 416 q 909 409 902 416 q 917 389 917 401 l 917 203 q 890 168 917 174 l 806 146 q 772 113 779 140 l 749 26 q 714 0 743 0 z "},"%":{"ha":1014,"x_min":97,"x_max":917,"o":"m 322 541 l 300 541 q 265 567 271 541 l 241 653 q 208 686 235 680 l 123 708 q 97 743 97 714 l 97 768 q 123 803 97 797 l 208 827 q 241 860 235 833 l 265 946 q 300 972 271 972 l 322 972 q 357 946 351 972 l 380 860 q 414 827 387 833 l 501 803 q 528 768 528 797 l 528 743 q 501 708 528 714 l 414 686 q 380 653 387 680 l 357 567 q 322 541 351 541 m 559 416 l 476 416 q 431 398 450 416 q 412 354 412 380 l 412 307 q 405 287 412 294 q 385 279 397 279 l 301 279 q 254 261 273 279 q 235 216 235 243 l 235 28 q 227 7 235 15 q 207 0 220 0 l 125 0 q 104 7 112 0 q 97 28 97 15 l 97 215 q 123 250 97 244 l 211 272 q 244 306 237 278 l 268 392 q 302 418 274 418 l 385 418 q 419 444 413 418 l 424 460 q 427 486 427 468 l 427 528 q 434 548 427 541 q 454 555 441 555 l 538 555 q 583 574 564 555 q 602 618 602 592 l 602 665 q 609 686 602 678 q 629 693 616 693 l 713 693 q 760 711 741 693 q 779 755 779 728 l 779 945 q 787 965 779 958 q 807 972 794 972 l 889 972 q 909 965 902 972 q 917 945 917 958 l 917 757 q 890 722 917 728 l 803 700 q 770 667 776 694 l 746 581 q 711 554 740 554 l 629 554 q 595 528 601 554 l 590 513 q 587 486 587 505 l 587 444 q 580 424 587 431 q 559 416 572 416 m 326 833 l 298 833 q 254 814 273 833 q 235 770 235 795 l 235 742 q 253 697 235 715 q 298 679 272 679 l 326 679 q 371 697 353 679 q 390 742 390 715 l 390 770 q 371 814 390 795 q 326 833 352 833 m 711 0 l 689 0 q 654 26 661 0 l 631 113 q 597 146 625 140 l 513 168 q 486 203 486 174 l 486 228 q 513 262 486 256 l 597 286 q 631 319 625 292 l 654 406 q 689 432 661 432 l 711 432 q 746 406 740 432 l 770 319 q 803 286 776 292 l 890 262 q 917 228 917 256 l 917 203 q 890 168 917 174 l 803 146 q 770 113 776 140 l 746 26 q 711 0 740 0 m 715 293 l 688 293 q 643 274 662 293 q 624 229 624 255 l 624 201 q 643 157 624 175 q 688 139 661 139 l 715 139 q 761 157 742 139 q 779 201 779 175 l 779 229 q 760 274 779 255 q 715 293 741 293 z "},"&":{"ha":1014,"x_min":97,"x_max":986,"o":"m 958 416 l 888 416 q 842 398 861 416 q 823 354 823 380 l 823 204 q 798 170 823 176 l 713 146 q 681 113 688 140 l 657 26 q 623 0 651 0 l 300 0 q 265 26 271 0 l 241 113 q 208 146 235 140 l 123 170 q 97 204 97 176 l 97 389 q 104 409 97 401 q 125 416 112 416 l 207 416 q 235 443 235 416 l 235 528 q 227 548 235 541 q 207 555 220 555 l 125 555 q 104 563 112 555 q 97 583 97 570 l 97 770 q 123 804 97 798 l 208 827 q 241 860 235 833 l 265 946 q 300 972 271 972 l 660 972 q 686 945 686 972 l 686 861 q 660 833 686 833 l 298 833 q 253 815 272 833 q 235 771 235 798 l 235 618 q 254 574 235 593 q 298 555 273 555 l 623 555 q 667 574 648 555 q 686 619 686 593 l 686 690 q 713 718 686 718 l 796 718 q 816 711 809 718 q 823 690 823 703 l 823 619 q 799 585 823 591 l 713 561 q 679 528 685 554 l 656 441 q 621 416 650 416 l 298 416 q 253 398 272 416 q 235 354 235 380 l 235 203 q 254 158 235 177 q 298 139 273 139 l 624 139 q 668 158 650 139 q 686 203 686 177 l 686 353 q 713 387 686 381 l 800 411 q 832 443 826 417 l 856 528 q 890 555 863 555 l 958 555 q 979 548 971 555 q 986 528 986 541 l 986 444 q 979 424 986 431 q 958 416 971 416 z "},"'":{"ha":1014,"x_min":437,"x_max":576,"o":"m 549 736 l 465 736 q 445 743 452 736 q 437 764 437 751 l 437 945 q 445 965 437 958 q 465 972 452 972 l 549 972 q 569 965 562 972 q 576 945 576 958 l 576 764 q 569 743 576 751 q 549 736 562 736 z "},"(":{"ha":1014,"x_min":319,"x_max":694,"o":"m 457 64 q 476 19 457 38 q 521 0 495 0 l 667 0 q 687 -7 680 0 q 694 -28 694 -15 l 694 -110 q 687 -130 694 -123 q 667 -138 680 -138 l 624 -138 q 576 -118 599 -138 l 476 -20 q 431 7 452 1 l 346 31 q 319 65 319 37 l 319 907 q 346 942 319 936 l 431 965 q 476 991 452 970 l 576 1090 q 624 1109 598 1109 l 667 1109 q 687 1102 680 1109 q 694 1082 694 1095 l 694 1000 q 687 980 694 987 q 667 972 680 972 l 521 972 q 476 953 495 972 q 457 908 457 934 l 457 64 z "},")":{"ha":1014,"x_min":319,"x_max":694,"o":"m 557 64 l 557 908 q 538 953 557 934 q 493 972 519 972 l 347 972 q 327 980 334 972 q 319 1000 319 987 l 319 1082 q 327 1102 319 1095 q 347 1109 334 1109 l 390 1109 q 437 1090 416 1109 l 538 991 q 583 965 562 970 l 668 942 q 694 907 694 936 l 694 65 q 668 31 694 37 l 583 7 q 538 -20 562 1 l 437 -118 q 390 -138 415 -138 l 347 -138 q 327 -130 334 -138 q 319 -110 319 -123 l 319 -28 q 327 -7 319 -15 q 347 0 334 0 l 493 0 q 538 19 519 0 q 557 64 557 38 z "},"*":{"ha":1014,"x_min":250,"x_max":764,"o":"m 710 848 l 644 783 q 637 774 637 777 q 642 768 637 770 q 653 765 646 765 l 743 765 q 758 760 752 765 q 764 746 764 754 l 764 684 q 758 668 764 674 q 743 663 752 663 l 653 663 q 637 656 637 663 q 644 644 637 649 l 710 583 q 717 570 717 578 q 710 554 717 561 l 667 511 q 652 504 659 504 q 637 511 645 504 l 576 575 q 566 582 570 582 q 558 567 558 582 l 558 478 q 552 463 558 469 q 538 457 547 457 l 476 457 q 461 463 467 457 q 456 478 456 469 l 456 567 q 447 582 456 582 q 437 575 444 582 l 374 511 q 363 504 366 504 q 347 511 355 504 l 304 554 q 297 570 297 562 q 304 583 297 578 l 367 644 q 372 656 372 650 q 359 663 372 663 l 271 663 q 250 682 250 663 l 250 745 q 256 760 250 754 q 271 765 262 765 l 361 765 q 374 774 374 765 q 368 783 374 778 l 304 848 q 297 861 297 856 q 304 875 297 869 l 347 918 q 363 925 354 925 q 374 918 367 925 l 437 856 q 447 850 444 850 q 456 863 456 850 l 456 951 q 461 967 456 961 q 476 972 467 972 l 538 972 q 552 967 547 972 q 558 951 558 961 l 558 863 q 566 850 558 850 q 576 856 570 850 l 637 918 q 652 925 644 925 q 667 918 660 925 l 710 875 q 717 861 717 869 q 710 848 717 855 m 427 715 q 449 657 427 679 q 507 635 471 635 q 566 657 544 635 q 587 715 587 679 q 566 773 587 751 q 507 794 544 794 q 449 773 471 794 q 427 715 427 751 z "},"+":{"ha":1014,"x_min":250,"x_max":764,"o":"m 465 764 l 549 764 q 569 756 562 764 q 576 736 576 749 l 576 621 q 550 586 576 592 l 464 562 q 431 529 437 556 l 407 444 q 372 418 401 418 l 278 418 q 258 425 265 418 q 250 446 250 433 l 250 528 q 258 548 250 541 q 278 555 265 555 l 374 555 q 418 574 399 555 q 437 619 437 593 l 437 736 q 445 756 437 749 q 465 764 452 764 m 549 210 l 465 210 q 445 217 452 210 q 437 237 437 224 l 437 353 q 464 387 437 381 l 550 411 q 583 444 577 417 l 607 529 q 642 555 613 555 l 736 555 q 756 548 749 555 q 764 528 764 541 l 764 446 q 756 425 764 433 q 736 418 749 418 l 640 418 q 595 399 614 418 q 576 354 576 380 l 576 237 q 569 217 576 224 q 549 210 562 210 z "},",":{"ha":1014,"x_min":288,"x_max":576,"o":"m 288 -147 l 288 -64 q 295 -43 288 -51 q 315 -36 302 -36 l 371 -36 q 418 -18 399 -36 q 437 26 437 -1 l 437 125 q 445 145 437 138 q 465 153 452 153 l 549 153 q 569 145 562 153 q 576 125 576 138 l 576 28 q 550 -7 576 -1 l 461 -29 q 428 -62 434 -35 l 404 -149 q 370 -175 398 -175 l 315 -175 q 295 -168 302 -175 q 288 -147 288 -160 z "},"-":{"ha":1014,"x_min":278,"x_max":736,"o":"m 306 555 l 708 555 q 728 548 721 555 q 736 528 736 541 l 736 446 q 728 425 736 433 q 708 418 721 418 l 306 418 q 286 425 293 418 q 278 446 278 433 l 278 528 q 286 548 278 541 q 306 555 293 555 z "},".":{"ha":1014,"x_min":437,"x_max":576,"o":"m 549 0 l 465 0 q 445 7 452 0 q 437 28 437 15 l 437 125 q 445 145 437 138 q 465 153 452 153 l 549 153 q 569 145 562 153 q 576 125 576 138 l 576 28 q 569 7 576 15 q 549 0 562 0 z "},"/":{"ha":1014,"x_min":97,"x_max":917,"o":"m 559 416 l 476 416 q 431 398 450 416 q 412 354 412 380 l 412 307 q 405 287 412 294 q 385 279 397 279 l 301 279 q 254 261 273 279 q 235 216 235 243 l 235 28 q 227 7 235 15 q 207 0 220 0 l 125 0 q 104 7 112 0 q 97 28 97 15 l 97 215 q 123 250 97 244 l 211 272 q 244 306 237 278 l 268 392 q 302 418 274 418 l 385 418 q 419 444 413 418 l 424 460 q 427 486 427 468 l 427 528 q 434 548 427 541 q 454 555 441 555 l 538 555 q 583 574 564 555 q 602 618 602 592 l 602 665 q 609 686 602 678 q 629 693 616 693 l 713 693 q 760 711 741 693 q 779 755 779 728 l 779 945 q 787 965 779 958 q 807 972 794 972 l 889 972 q 909 965 902 972 q 917 945 917 958 l 917 757 q 890 722 917 728 l 803 700 q 770 667 776 694 l 746 581 q 711 554 740 554 l 629 554 q 595 528 601 554 l 590 513 q 587 486 587 505 l 587 444 q 580 424 587 431 q 559 416 572 416 z "},":":{"ha":1014,"x_min":437,"x_max":576,"o":"m 549 458 l 465 458 q 445 466 452 458 q 437 486 437 473 l 437 583 q 445 604 437 596 q 465 611 452 611 l 549 611 q 569 604 562 611 q 576 583 576 596 l 576 486 q 569 466 576 473 q 549 458 562 458 m 549 0 l 465 0 q 445 7 452 0 q 437 28 437 15 l 437 125 q 445 145 437 138 q 465 153 452 153 l 549 153 q 569 145 562 153 q 576 125 576 138 l 576 28 q 569 7 576 15 q 549 0 562 0 z "},";":{"ha":1014,"x_min":288,"x_max":576,"o":"m 549 458 l 465 458 q 445 466 452 458 q 437 486 437 473 l 437 583 q 445 604 437 596 q 465 611 452 611 l 549 611 q 569 604 562 611 q 576 583 576 596 l 576 486 q 569 466 576 473 q 549 458 562 458 m 288 -147 l 288 -64 q 295 -43 288 -51 q 315 -36 302 -36 l 371 -36 q 418 -18 399 -36 q 437 26 437 -1 l 437 125 q 445 145 437 138 q 465 153 452 153 l 549 153 q 569 145 562 153 q 576 125 576 138 l 576 28 q 550 -7 576 -1 l 461 -29 q 428 -62 434 -35 l 404 -149 q 370 -175 398 -175 l 315 -175 q 295 -168 302 -175 q 288 -147 288 -160 z "},"<":{"ha":1014,"x_min":250,"x_max":764,"o":"m 570 279 l 458 279 q 438 287 446 279 q 431 307 431 294 l 431 354 q 412 398 431 380 q 367 416 393 416 l 278 416 q 258 424 265 416 q 250 444 250 431 l 250 528 q 258 548 250 541 q 278 555 265 555 l 367 555 q 412 574 393 555 q 431 618 431 592 l 431 665 q 438 686 431 678 q 458 693 446 693 l 570 693 q 590 701 583 693 q 597 721 597 708 l 597 804 q 605 825 597 817 q 625 832 612 832 l 736 832 q 756 825 749 832 q 764 804 764 817 l 764 721 q 756 701 764 708 q 736 693 749 693 l 661 693 q 616 675 635 693 q 597 631 597 657 l 597 582 q 590 562 597 569 q 570 554 583 554 l 458 554 q 426 533 436 554 q 416 486 416 512 q 426 439 416 460 q 458 418 436 418 l 570 418 q 590 410 583 418 q 597 390 597 403 l 597 342 q 616 297 597 315 q 661 279 635 279 l 736 279 q 756 272 749 279 q 764 252 764 264 l 764 168 q 756 148 764 155 q 736 140 749 140 l 625 140 q 605 148 612 140 q 597 168 597 155 l 597 252 q 590 272 597 264 q 570 279 583 279 z "},"=":{"ha":1014,"x_min":250,"x_max":764,"o":"m 278 693 l 736 693 q 756 686 749 693 q 764 665 764 678 l 764 583 q 756 563 764 570 q 736 555 749 555 l 278 555 q 258 563 265 555 q 250 583 250 570 l 250 665 q 258 686 250 678 q 278 693 265 693 m 278 418 l 736 418 q 756 410 749 418 q 764 390 764 403 l 764 309 q 756 288 764 296 q 736 281 749 281 l 278 281 q 258 288 265 281 q 250 309 250 296 l 250 390 q 258 410 250 403 q 278 418 265 418 z "},">":{"ha":1014,"x_min":250,"x_max":764,"o":"m 555 279 l 444 279 q 424 272 431 279 q 416 252 416 264 l 416 168 q 409 148 416 155 q 389 140 401 140 l 278 140 q 258 148 265 140 q 250 168 250 155 l 250 252 q 258 272 250 264 q 278 279 265 279 l 353 279 q 398 297 379 279 q 416 342 416 315 l 416 390 q 424 410 416 403 q 444 418 431 418 l 555 418 q 588 439 578 418 q 597 486 597 460 q 588 533 597 512 q 555 554 578 554 l 444 554 q 424 562 431 554 q 416 582 416 569 l 416 631 q 398 675 416 657 q 353 693 379 693 l 278 693 q 258 701 265 693 q 250 721 250 708 l 250 804 q 258 825 250 817 q 278 832 265 832 l 389 832 q 409 825 401 832 q 416 804 416 817 l 416 721 q 424 701 416 708 q 444 693 431 693 l 555 693 q 576 686 568 693 q 583 665 583 678 l 583 618 q 602 574 583 592 q 647 555 621 555 l 736 555 q 756 548 749 555 q 764 528 764 541 l 764 444 q 756 424 764 431 q 736 416 749 416 l 647 416 q 602 398 621 416 q 583 354 583 380 l 583 307 q 576 287 583 294 q 555 279 568 279 z "},"?":{"ha":1014,"x_min":97,"x_max":917,"o":"m 779 616 l 779 770 q 761 815 779 796 q 715 833 742 833 l 298 833 q 254 814 273 833 q 235 770 235 795 l 235 685 q 227 665 235 672 q 207 657 220 657 l 125 657 q 104 665 112 657 q 97 685 97 672 l 97 768 q 123 803 97 797 l 211 827 q 244 860 238 833 l 268 946 q 302 972 274 972 l 714 972 q 749 946 743 972 l 772 860 q 806 827 779 833 l 890 803 q 917 770 917 797 l 917 618 q 890 583 917 589 l 803 561 q 770 528 776 555 l 746 441 q 711 415 740 415 l 604 415 q 584 408 591 415 q 576 387 576 400 l 576 319 q 569 299 576 307 q 549 292 562 292 l 467 292 q 446 299 454 292 q 439 319 439 307 l 439 387 q 446 408 439 400 q 467 415 454 415 l 513 415 q 558 433 539 415 q 576 478 576 452 l 576 526 q 584 547 576 539 q 604 554 591 554 l 713 554 q 760 572 741 554 q 779 616 779 589 m 549 0 l 465 0 q 445 7 452 0 q 437 28 437 15 l 437 125 q 445 145 437 138 q 465 153 452 153 l 549 153 q 569 145 562 153 q 576 125 576 138 l 576 28 q 569 7 576 15 q 549 0 562 0 z "},"@":{"ha":1014,"x_min":97,"x_max":917,"o":"m 682 485 l 574 485 q 529 466 548 485 q 510 421 510 447 l 510 201 q 529 157 510 175 q 574 139 547 139 l 751 139 q 772 146 764 139 q 779 167 779 154 l 779 770 q 760 814 779 795 q 715 833 741 833 l 298 833 q 254 814 273 833 q 235 770 235 795 l 235 28 q 227 7 235 15 q 207 0 220 0 l 125 0 q 104 7 112 0 q 97 28 97 15 l 97 768 q 123 803 97 797 l 208 827 q 241 860 235 833 l 265 946 q 300 972 271 972 l 711 972 q 746 946 740 972 l 770 860 q 803 827 776 833 l 890 803 q 917 768 917 797 l 917 28 q 909 7 917 15 q 889 0 902 0 l 575 0 q 541 26 547 0 l 517 113 q 484 146 511 140 l 399 168 q 372 203 372 174 l 372 419 q 399 454 372 448 l 484 478 q 517 511 511 484 l 541 597 q 575 624 547 624 l 682 624 q 703 616 695 624 q 710 596 710 609 l 710 513 q 703 492 710 500 q 682 485 695 485 z "},"A":{"ha":1014,"x_min":97,"x_max":917,"o":"m 711 347 l 298 347 q 253 329 272 347 q 235 285 235 311 l 235 28 q 227 7 235 15 q 207 0 220 0 l 125 0 q 104 7 112 0 q 97 28 97 15 l 97 283 q 123 318 97 312 l 208 340 q 241 374 235 347 l 265 460 q 300 486 271 486 l 715 486 q 761 504 742 486 q 779 549 779 522 l 779 770 q 760 814 779 795 q 715 833 741 833 l 298 833 q 254 814 273 833 q 235 770 235 795 l 235 514 q 227 494 235 501 q 207 486 220 486 l 125 486 q 104 494 112 486 q 97 514 97 501 l 97 667 q 117 714 97 692 l 215 814 q 241 860 236 838 l 265 946 q 300 972 271 972 l 714 972 q 749 946 743 972 l 772 860 q 799 814 778 838 l 897 714 q 917 667 917 692 l 917 550 q 890 515 917 522 l 803 493 q 770 460 776 487 l 746 374 q 711 347 740 347 m 917 319 l 917 28 q 909 7 917 15 q 889 0 902 0 l 807 0 q 787 7 794 0 q 779 28 779 15 l 779 319 q 787 340 779 332 q 807 347 794 347 l 889 347 q 909 340 902 347 q 917 319 917 332 z "},"B":{"ha":1014,"x_min":97,"x_max":917,"o":"m 235 389 l 235 167 q 242 146 235 154 q 262 139 250 139 l 715 139 q 761 157 742 139 q 779 201 779 175 l 779 354 q 760 398 779 379 q 715 416 741 416 l 300 416 q 265 443 271 416 l 241 529 q 208 562 235 556 l 123 586 q 97 621 97 592 l 97 945 q 104 965 97 958 q 125 972 112 972 l 714 972 q 749 946 743 972 l 772 860 q 806 827 779 833 l 890 803 q 917 768 917 797 l 917 583 q 909 563 917 570 q 889 555 902 555 l 807 555 q 787 548 794 555 q 779 528 779 541 l 779 444 q 787 424 779 431 q 807 416 794 416 l 889 416 q 909 409 902 416 q 917 389 917 401 l 917 203 q 890 168 917 174 l 806 146 q 772 113 779 140 l 749 26 q 714 0 743 0 l 125 0 q 104 7 112 0 q 97 28 97 15 l 97 389 q 104 409 97 401 q 125 416 112 416 l 207 416 q 227 409 220 416 q 235 389 235 401 m 298 555 l 715 555 q 761 573 742 555 q 779 618 779 591 l 779 770 q 760 814 779 795 q 715 833 741 833 l 262 833 q 242 826 250 833 q 235 806 235 819 l 235 619 q 254 574 235 593 q 298 555 273 555 z "},"C":{"ha":1014,"x_min":97,"x_max":917,"o":"m 807 314 l 889 314 q 909 307 902 314 q 917 286 917 299 l 917 203 q 890 168 917 174 l 803 146 q 770 113 776 140 l 746 26 q 711 0 740 0 l 300 0 q 265 26 271 0 l 241 113 q 208 146 235 140 l 123 168 q 97 203 97 174 l 97 768 q 123 803 97 797 l 208 827 q 241 860 235 833 l 265 946 q 300 972 271 972 l 711 972 q 746 946 740 972 l 770 860 q 803 827 776 833 l 890 803 q 917 768 917 797 l 917 685 q 909 665 917 672 q 889 657 902 657 l 807 657 q 787 665 794 657 q 779 685 779 672 l 779 770 q 760 814 779 795 q 715 833 741 833 l 298 833 q 254 814 273 833 q 235 770 235 795 l 235 201 q 253 157 235 175 q 298 139 272 139 l 715 139 q 761 157 742 139 q 779 201 779 175 l 779 286 q 787 307 779 299 q 807 314 794 314 z "},"D":{"ha":1014,"x_min":97,"x_max":917,"o":"m 806 827 l 890 803 q 917 768 917 797 l 917 203 q 890 168 917 174 l 806 146 q 772 113 779 140 l 749 26 q 714 0 743 0 l 125 0 q 104 7 112 0 q 97 28 97 15 l 97 945 q 104 965 97 958 q 125 972 112 972 l 714 972 q 749 946 743 972 l 772 860 q 806 827 779 833 m 235 806 l 235 167 q 242 146 235 154 q 262 139 250 139 l 715 139 q 761 157 742 139 q 779 201 779 175 l 779 770 q 760 814 779 795 q 715 833 741 833 l 262 833 q 242 826 250 833 q 235 806 235 819 z "},"E":{"ha":1014,"x_min":97,"x_max":917,"o":"m 97 621 l 97 945 q 104 965 97 958 q 125 972 112 972 l 889 972 q 909 965 902 972 q 917 945 917 958 l 917 861 q 909 841 917 848 q 889 833 902 833 l 262 833 q 242 826 250 833 q 235 806 235 819 l 235 619 q 254 574 235 593 q 298 555 273 555 l 750 555 q 770 548 763 555 q 778 528 778 541 l 778 444 q 770 424 778 431 q 750 416 763 416 l 300 416 q 265 443 271 416 l 241 529 q 208 562 235 556 l 123 586 q 97 621 97 592 m 235 389 l 235 167 q 242 146 235 154 q 262 139 250 139 l 889 139 q 909 132 902 139 q 917 111 917 124 l 917 28 q 909 7 917 15 q 889 0 902 0 l 125 0 q 104 7 112 0 q 97 28 97 15 l 97 389 q 104 409 97 401 q 125 416 112 416 l 207 416 q 227 409 220 416 q 235 389 235 401 z "},"F":{"ha":1014,"x_min":97,"x_max":917,"o":"m 97 621 l 97 945 q 104 965 97 958 q 125 972 112 972 l 889 972 q 909 965 902 972 q 917 945 917 958 l 917 861 q 909 841 917 848 q 889 833 902 833 l 262 833 q 242 826 250 833 q 235 806 235 819 l 235 619 q 254 574 235 593 q 298 555 273 555 l 750 555 q 770 548 763 555 q 778 528 778 541 l 778 444 q 770 424 778 431 q 750 416 763 416 l 300 416 q 265 443 271 416 l 241 529 q 208 562 235 556 l 123 586 q 97 621 97 592 m 207 0 l 125 0 q 104 7 112 0 q 97 28 97 15 l 97 389 q 104 409 97 401 q 125 416 112 416 l 207 416 q 227 409 220 416 q 235 389 235 401 l 235 28 q 227 7 235 15 q 207 0 220 0 z "},"G":{"ha":1014,"x_min":97,"x_max":917,"o":"m 533 555 l 751 555 q 772 548 764 555 q 779 528 779 541 l 779 444 q 787 424 779 431 q 807 416 794 416 l 889 416 q 909 409 902 416 q 917 389 917 401 l 917 203 q 890 168 917 174 l 803 146 q 770 113 776 140 l 746 26 q 711 0 740 0 l 300 0 q 265 26 271 0 l 241 113 q 208 146 235 140 l 123 168 q 97 203 97 174 l 97 768 q 123 803 97 797 l 208 827 q 241 860 235 833 l 265 946 q 300 972 271 972 l 711 972 q 746 946 740 972 l 770 860 q 803 827 776 833 l 890 803 q 917 768 917 797 l 917 686 q 909 666 917 673 q 889 659 902 659 l 807 659 q 787 666 794 659 q 779 686 779 673 l 779 770 q 760 814 779 795 q 715 833 741 833 l 298 833 q 254 814 273 833 q 235 770 235 795 l 235 201 q 253 157 235 175 q 298 139 272 139 l 715 139 q 761 157 742 139 q 779 201 779 175 l 779 354 q 760 398 779 379 q 715 416 741 416 l 533 416 q 513 424 520 416 q 505 444 505 431 l 505 528 q 513 548 505 541 q 533 555 520 555 z "},"H":{"ha":1014,"x_min":97,"x_max":917,"o":"m 715 416 l 300 416 q 265 443 271 416 l 241 529 q 208 562 235 556 l 123 586 q 97 621 97 592 l 97 945 q 104 965 97 958 q 125 972 112 972 l 207 972 q 227 965 220 972 q 235 945 235 958 l 235 619 q 254 574 235 593 q 298 555 273 555 l 714 555 q 749 529 743 555 l 772 443 q 806 410 779 416 l 890 386 q 917 351 917 380 l 917 28 q 909 7 917 15 q 889 0 902 0 l 807 0 q 787 7 794 0 q 779 28 779 15 l 779 353 q 760 397 779 378 q 715 416 741 416 m 779 583 l 779 945 q 787 965 779 958 q 807 972 794 972 l 889 972 q 909 965 902 972 q 917 945 917 958 l 917 583 q 909 563 917 570 q 889 555 902 555 l 807 555 q 787 563 794 555 q 779 583 779 570 m 235 389 l 235 28 q 227 7 235 15 q 207 0 220 0 l 125 0 q 104 7 112 0 q 97 28 97 15 l 97 389 q 104 409 97 401 q 125 416 112 416 l 207 416 q 227 409 220 416 q 235 389 235 401 z "},"I":{"ha":1014,"x_min":97,"x_max":917,"o":"m 437 203 l 437 771 q 418 816 437 797 q 374 835 399 835 l 125 835 q 104 842 112 835 q 97 863 97 850 l 97 945 q 104 965 97 958 q 125 972 112 972 l 372 972 q 407 946 401 972 l 431 861 q 464 828 437 834 l 550 804 q 576 770 576 798 l 576 201 q 595 157 576 176 q 640 138 614 138 l 889 138 q 909 130 902 138 q 917 110 917 123 l 917 28 q 909 7 917 15 q 889 0 902 0 l 642 0 q 607 26 613 0 l 583 111 q 550 144 577 138 l 464 168 q 437 203 437 174 m 889 835 l 604 835 q 584 842 591 835 q 576 863 576 850 l 576 945 q 584 965 576 958 q 604 972 591 972 l 889 972 q 909 965 902 972 q 917 945 917 958 l 917 863 q 909 842 917 850 q 889 835 902 835 m 125 138 l 410 138 q 430 130 422 138 q 437 110 437 123 l 437 28 q 430 7 437 15 q 410 0 422 0 l 125 0 q 104 7 112 0 q 97 28 97 15 l 97 110 q 104 130 97 123 q 125 138 112 138 z "},"J":{"ha":1014,"x_min":97,"x_max":917,"o":"m 917 945 l 917 203 q 890 168 917 174 l 806 146 q 772 113 779 140 l 749 26 q 714 0 743 0 l 302 0 q 268 26 274 0 l 244 113 q 211 146 238 140 l 123 168 q 97 203 97 174 l 97 389 q 104 409 97 401 q 125 416 112 416 l 207 416 q 227 409 220 416 q 235 389 235 401 l 235 201 q 253 157 235 175 q 298 139 272 139 l 715 139 q 761 157 742 139 q 779 201 779 175 l 779 806 q 772 826 779 819 q 751 833 764 833 l 262 833 q 242 841 250 833 q 235 861 235 848 l 235 945 q 242 965 235 958 q 262 972 250 972 l 889 972 q 909 965 902 972 q 917 945 917 958 z "},"K":{"ha":1014,"x_min":97,"x_max":917,"o":"m 538 416 l 300 416 q 265 443 271 416 l 241 529 q 208 562 235 556 l 123 586 q 97 621 97 592 l 97 945 q 104 965 97 958 q 125 972 112 972 l 207 972 q 227 965 220 972 q 235 945 235 958 l 235 619 q 254 574 235 593 q 298 555 273 555 l 538 555 q 583 574 564 555 q 602 618 602 592 l 602 665 q 609 686 602 678 q 629 693 616 693 l 713 693 q 760 711 741 693 q 779 755 779 728 l 779 945 q 787 965 779 958 q 807 972 794 972 l 889 972 q 909 965 902 972 q 917 945 917 958 l 917 757 q 890 722 917 728 l 803 700 q 770 667 776 694 l 746 581 q 711 554 740 554 l 629 554 q 595 528 601 554 l 590 513 q 587 486 587 502 q 590 460 587 471 l 595 444 q 629 418 601 418 l 711 418 q 746 392 740 418 l 770 306 q 803 272 777 278 l 890 250 q 917 215 917 244 l 917 28 q 909 7 917 15 q 889 0 902 0 l 807 0 q 787 7 794 0 q 779 28 779 15 l 779 216 q 760 261 779 243 q 713 279 741 279 l 629 279 q 609 287 616 279 q 602 307 602 294 l 602 354 q 583 398 602 380 q 538 416 564 416 m 97 389 q 104 409 97 401 q 125 416 112 416 l 207 416 q 227 409 220 416 q 235 389 235 401 l 235 28 q 227 7 235 15 q 207 0 220 0 l 125 0 q 104 7 112 0 q 97 28 97 15 l 97 389 z "},"L":{"ha":1014,"x_min":97,"x_max":917,"o":"m 125 972 l 207 972 q 227 965 220 972 q 235 945 235 958 l 235 167 q 242 146 235 154 q 262 139 250 139 l 889 139 q 909 132 902 139 q 917 111 917 124 l 917 28 q 909 7 917 15 q 889 0 902 0 l 125 0 q 104 7 112 0 q 97 28 97 15 l 97 945 q 104 965 97 958 q 125 972 112 972 z "},"M":{"ha":1014,"x_min":97,"x_max":917,"o":"m 300 625 q 265 652 271 625 l 241 737 q 208 771 235 765 l 123 794 q 97 829 97 800 l 97 945 q 104 965 97 958 q 125 972 112 972 l 207 972 q 227 965 220 972 q 235 945 235 958 l 235 828 q 254 783 235 802 q 298 764 273 764 l 410 764 q 430 756 422 764 q 437 736 437 749 l 437 688 q 456 643 437 661 q 501 625 475 625 l 511 625 q 556 643 538 625 q 575 688 575 661 l 575 736 q 583 756 575 749 q 603 764 590 764 l 715 764 q 760 783 741 764 q 779 828 779 802 l 779 945 q 787 965 779 958 q 807 972 794 972 l 889 972 q 909 965 902 972 q 917 945 917 958 l 917 829 q 890 794 917 800 l 806 771 q 772 737 779 765 l 749 652 q 714 625 743 625 l 603 625 q 583 618 590 625 q 575 597 575 610 l 575 443 q 568 422 575 430 q 547 415 560 415 l 465 415 q 445 422 452 415 q 437 443 437 430 l 437 597 q 430 618 437 610 q 410 625 422 625 l 300 625 m 917 597 l 917 28 q 909 7 917 15 q 889 0 902 0 l 807 0 q 787 7 794 0 q 779 28 779 15 l 779 597 q 787 618 779 610 q 807 625 794 625 l 889 625 q 909 618 902 625 q 917 597 917 610 m 97 597 q 104 618 97 610 q 125 625 112 625 l 207 625 q 227 618 220 625 q 235 597 235 610 l 235 28 q 227 7 235 15 q 207 0 220 0 l 125 0 q 104 7 112 0 q 97 28 97 15 l 97 597 z "},"N":{"ha":1014,"x_min":97,"x_max":917,"o":"m 917 351 l 917 28 q 909 7 917 15 q 889 0 902 0 l 807 0 q 787 7 794 0 q 779 28 779 15 l 779 353 q 760 397 779 378 q 715 416 741 416 l 642 416 q 607 443 613 416 l 583 529 q 550 562 577 556 l 465 586 q 439 621 439 592 l 439 770 q 420 814 439 795 q 375 833 401 833 l 262 833 q 242 826 250 833 q 235 806 235 819 l 235 28 q 227 7 235 15 q 207 0 220 0 l 125 0 q 104 7 112 0 q 97 28 97 15 l 97 945 q 104 965 97 958 q 125 972 112 972 l 374 972 q 408 946 402 972 l 432 860 q 465 827 438 833 l 550 803 q 576 768 576 797 l 576 619 q 595 574 576 593 q 640 555 614 555 l 714 555 q 749 529 743 555 l 772 443 q 806 410 779 416 l 890 386 q 917 351 917 380 m 779 583 l 779 945 q 787 965 779 958 q 807 972 794 972 l 889 972 q 909 965 902 972 q 917 945 917 958 l 917 583 q 909 563 917 570 q 889 555 902 555 l 807 555 q 787 563 794 555 q 779 583 779 570 z "},"O":{"ha":1014,"x_min":97,"x_max":917,"o":"m 711 0 l 300 0 q 265 26 271 0 l 241 113 q 208 146 235 140 l 123 168 q 97 203 97 174 l 97 768 q 123 803 97 797 l 208 827 q 241 860 235 833 l 265 946 q 300 972 271 972 l 711 972 q 746 946 740 972 l 770 860 q 803 827 776 833 l 890 803 q 917 768 917 797 l 917 203 q 890 168 917 174 l 803 146 q 770 113 776 140 l 746 26 q 711 0 740 0 m 715 833 l 298 833 q 254 814 273 833 q 235 770 235 795 l 235 201 q 253 157 235 175 q 298 139 272 139 l 715 139 q 761 157 742 139 q 779 201 779 175 l 779 770 q 760 814 779 795 q 715 833 741 833 z "},"P":{"ha":1014,"x_min":97,"x_max":917,"o":"m 751 416 l 300 416 q 265 443 271 416 l 241 529 q 208 562 235 556 l 123 586 q 97 621 97 592 l 97 945 q 104 965 97 958 q 125 972 112 972 l 714 972 q 749 946 743 972 l 772 860 q 806 827 779 833 l 890 803 q 917 768 917 797 l 917 583 q 909 563 917 570 q 889 555 902 555 l 807 555 q 787 548 794 555 q 779 528 779 541 l 779 444 q 772 424 779 431 q 751 416 764 416 m 298 555 l 715 555 q 761 573 742 555 q 779 618 779 591 l 779 770 q 760 814 779 795 q 715 833 741 833 l 262 833 q 242 826 250 833 q 235 806 235 819 l 235 619 q 254 574 235 593 q 298 555 273 555 m 207 0 l 125 0 q 104 7 112 0 q 97 28 97 15 l 97 389 q 104 409 97 401 q 125 416 112 416 l 207 416 q 227 409 220 416 q 235 389 235 401 l 235 28 q 227 7 235 15 q 207 0 220 0 z "},"Q":{"ha":1014,"x_min":97,"x_max":917,"o":"m 576 -64 l 576 -153 q 569 -173 576 -165 q 549 -180 562 -180 l 467 -180 q 446 -173 454 -180 q 439 -153 439 -165 l 439 -64 q 420 -19 439 -38 q 375 0 401 0 l 300 0 q 265 26 271 0 l 241 113 q 208 146 235 140 l 123 168 q 97 203 97 174 l 97 768 q 123 803 97 797 l 208 827 q 241 860 235 833 l 265 946 q 300 972 271 972 l 711 972 q 746 946 740 972 l 770 860 q 803 827 776 833 l 890 803 q 917 768 917 797 l 917 203 q 890 168 917 174 l 803 146 q 770 113 776 140 l 746 26 q 711 0 740 0 l 604 0 q 584 7 591 0 q 576 28 576 15 l 576 111 q 584 132 576 124 q 604 139 591 139 l 715 139 q 761 157 742 139 q 779 201 779 175 l 779 770 q 760 814 779 795 q 715 833 741 833 l 298 833 q 254 814 273 833 q 235 770 235 795 l 235 201 q 253 157 235 175 q 298 139 272 139 l 372 139 q 407 113 401 139 l 431 28 q 464 -5 437 1 l 550 -29 q 576 -64 576 -35 z "},"R":{"ha":1014,"x_min":97,"x_max":917,"o":"m 889 0 l 807 0 q 787 7 794 0 q 779 28 779 15 l 779 354 q 760 398 779 379 q 715 416 741 416 l 300 416 q 265 443 271 416 l 241 529 q 208 562 235 556 l 123 586 q 97 621 97 592 l 97 945 q 104 965 97 958 q 125 972 112 972 l 714 972 q 749 946 743 972 l 772 860 q 806 827 779 833 l 890 803 q 917 768 917 797 l 917 583 q 909 563 917 570 q 889 555 902 555 l 807 555 q 787 548 794 555 q 779 528 779 541 l 779 444 q 787 424 779 431 q 807 416 794 416 l 889 416 q 909 409 902 416 q 917 389 917 401 l 917 28 q 909 7 917 15 q 889 0 902 0 m 298 555 l 715 555 q 761 573 742 555 q 779 618 779 591 l 779 770 q 760 814 779 795 q 715 833 741 833 l 262 833 q 242 826 250 833 q 235 806 235 819 l 235 619 q 254 574 235 593 q 298 555 273 555 m 207 0 l 125 0 q 104 7 112 0 q 97 28 97 15 l 97 389 q 104 409 97 401 q 125 416 112 416 l 207 416 q 227 409 220 416 q 235 389 235 401 l 235 28 q 227 7 235 15 q 207 0 220 0 z "},"S":{"ha":1014,"x_min":97,"x_max":917,"o":"m 298 555 l 721 555 q 755 530 749 555 l 781 443 q 815 416 787 416 l 889 416 q 909 409 902 416 q 917 389 917 401 l 917 203 q 890 168 917 174 l 806 146 q 772 113 779 140 l 749 26 q 714 0 743 0 l 300 0 q 265 26 271 0 l 241 113 q 208 146 235 140 l 123 168 q 97 203 97 174 l 97 286 q 104 307 97 299 q 125 314 112 314 l 207 314 q 227 307 220 314 q 235 286 235 299 l 235 201 q 253 157 235 175 q 298 139 272 139 l 715 139 q 761 157 742 139 q 779 201 779 175 l 779 354 q 760 398 779 379 q 715 416 741 416 l 293 416 q 258 441 264 416 l 233 529 q 199 555 227 555 l 125 555 q 104 563 112 555 q 97 583 97 570 l 97 768 q 123 803 97 797 l 208 827 q 241 860 235 833 l 265 946 q 300 972 271 972 l 711 972 q 746 946 740 972 l 770 860 q 803 827 776 833 l 890 803 q 917 768 917 797 l 917 685 q 909 665 917 672 q 889 657 902 657 l 807 657 q 787 665 794 657 q 779 685 779 672 l 779 770 q 760 814 779 795 q 715 833 741 833 l 298 833 q 254 814 273 833 q 235 770 235 795 l 235 618 q 254 574 235 593 q 298 555 273 555 z "},"T":{"ha":1014,"x_min":97,"x_max":917,"o":"m 410 835 l 125 835 q 104 842 112 835 q 97 863 97 850 l 97 945 q 104 965 97 958 q 125 972 112 972 l 410 972 q 430 965 422 972 q 437 945 437 958 l 437 863 q 430 842 437 850 q 410 835 422 835 m 549 0 l 465 0 q 445 7 452 0 q 437 28 437 15 l 437 770 q 464 804 437 798 l 550 828 q 583 861 577 834 l 607 946 q 642 972 613 972 l 889 972 q 909 965 902 972 q 917 945 917 958 l 917 863 q 909 842 917 850 q 889 835 902 835 l 640 835 q 595 816 614 835 q 576 771 576 797 l 576 28 q 569 7 576 15 q 549 0 562 0 z "},"U":{"ha":1014,"x_min":97,"x_max":917,"o":"m 125 972 l 207 972 q 227 965 220 972 q 235 945 235 958 l 235 201 q 253 157 235 175 q 298 139 272 139 l 715 139 q 761 157 742 139 q 779 201 779 175 l 779 945 q 787 965 779 958 q 807 972 794 972 l 889 972 q 909 965 902 972 q 917 945 917 958 l 917 203 q 890 168 917 174 l 803 146 q 770 113 776 140 l 746 26 q 711 0 740 0 l 300 0 q 265 26 271 0 l 241 113 q 208 146 235 140 l 123 168 q 97 203 97 174 l 97 945 q 104 965 97 958 q 125 972 112 972 z "},"V":{"ha":1014,"x_min":97,"x_max":917,"o":"m 268 167 l 244 250 q 211 283 238 277 l 123 306 q 97 340 97 312 l 97 945 q 104 965 97 958 q 125 972 112 972 l 207 972 q 227 965 220 972 q 235 945 235 958 l 235 339 q 253 295 235 313 q 298 277 272 277 l 374 277 q 394 269 387 277 q 401 249 401 262 l 401 207 q 420 159 401 180 q 465 138 439 138 l 549 138 q 593 159 574 138 q 612 207 612 180 l 612 249 q 620 269 612 262 q 640 277 627 277 l 715 277 q 761 295 742 277 q 779 339 779 313 l 779 945 q 787 965 779 958 q 807 972 794 972 l 889 972 q 909 965 902 972 q 917 945 917 958 l 917 340 q 890 306 917 312 l 803 283 q 770 250 776 277 l 746 167 q 733 146 743 154 q 711 138 724 138 l 640 138 q 606 111 612 138 l 582 26 q 547 0 576 0 l 467 0 q 432 26 438 0 l 408 111 q 374 138 402 138 l 302 138 q 280 146 290 138 q 268 167 271 154 z "},"W":{"ha":1014,"x_min":97,"x_max":917,"o":"m 576 736 l 576 201 q 595 157 576 176 q 640 138 614 138 l 715 138 q 761 156 742 138 q 779 200 779 174 l 779 945 q 787 965 779 958 q 807 972 794 972 l 889 972 q 909 965 902 972 q 917 945 917 958 l 917 203 q 890 168 917 174 l 803 146 q 770 113 776 140 l 746 26 q 711 0 740 0 l 642 0 q 607 26 613 0 l 583 111 q 550 144 577 138 l 464 168 q 439 203 439 174 l 439 736 q 446 756 439 749 q 467 764 454 764 l 549 764 q 569 756 562 764 q 576 736 576 749 m 302 0 q 268 26 274 0 l 244 113 q 211 146 238 140 l 123 168 q 97 203 97 174 l 97 945 q 104 965 97 958 q 125 972 112 972 l 207 972 q 227 965 220 972 q 235 945 235 958 l 235 200 q 253 156 235 174 q 298 138 272 138 l 410 138 q 430 130 422 138 q 437 110 437 123 l 437 28 q 430 7 437 15 q 410 0 422 0 l 302 0 z "},"X":{"ha":1014,"x_min":97,"x_max":917,"o":"m 97 28 l 97 215 q 123 250 97 244 l 211 272 q 244 306 237 278 l 268 392 q 302 418 274 418 l 385 418 q 419 444 413 418 l 424 460 q 427 486 427 465 q 424 513 427 507 l 419 528 q 385 554 413 554 l 302 554 q 268 581 274 554 l 244 667 q 211 700 238 694 l 123 722 q 97 757 97 728 l 97 945 q 104 965 97 958 q 125 972 112 972 l 207 972 q 227 965 220 972 q 235 945 235 958 l 235 755 q 254 711 235 728 q 301 693 273 693 l 385 693 q 405 686 397 693 q 412 665 412 678 l 412 618 q 431 574 412 592 q 476 555 450 555 l 538 555 q 583 574 564 555 q 602 618 602 592 l 602 665 q 609 686 602 678 q 629 693 616 693 l 713 693 q 760 711 741 693 q 779 755 779 728 l 779 945 q 787 965 779 958 q 807 972 794 972 l 889 972 q 909 965 902 972 q 917 945 917 958 l 917 757 q 890 722 917 728 l 803 700 q 770 667 776 694 l 746 581 q 711 554 740 554 l 629 554 q 595 528 601 554 l 590 513 q 587 486 587 502 q 590 460 587 471 l 595 444 q 629 418 601 418 l 711 418 q 746 392 740 418 l 770 306 q 803 272 777 278 l 890 250 q 917 215 917 244 l 917 28 q 909 7 917 15 q 889 0 902 0 l 807 0 q 787 7 794 0 q 779 28 779 15 l 779 216 q 760 261 779 243 q 713 279 741 279 l 629 279 q 609 287 616 279 q 602 307 602 294 l 602 354 q 583 398 602 380 q 538 416 564 416 l 476 416 q 431 398 450 416 q 412 354 412 380 l 412 307 q 405 287 412 294 q 385 279 397 279 l 301 279 q 254 261 273 279 q 235 216 235 243 l 235 28 q 227 7 235 15 q 207 0 220 0 l 125 0 q 104 7 112 0 q 97 28 97 15 z "},"Y":{"ha":1014,"x_min":97,"x_max":917,"o":"m 411 416 l 302 416 q 268 443 274 416 l 244 529 q 211 562 238 556 l 123 585 q 97 619 97 591 l 97 945 q 104 965 97 958 q 125 972 112 972 l 207 972 q 227 965 220 972 q 235 945 235 958 l 235 616 q 254 572 235 589 q 301 554 273 554 l 411 554 q 431 547 424 554 q 439 526 439 539 l 439 479 q 458 435 439 454 q 503 416 477 416 l 513 416 q 558 435 539 416 q 576 479 576 453 l 576 526 q 584 547 576 539 q 604 554 591 554 l 713 554 q 760 572 741 554 q 779 616 779 589 l 779 945 q 787 965 779 958 q 807 972 794 972 l 889 972 q 909 965 902 972 q 917 945 917 958 l 917 619 q 890 585 917 591 l 803 562 q 770 529 776 556 l 746 443 q 711 416 740 416 l 604 416 q 584 409 591 416 q 576 389 576 401 l 576 28 q 569 7 576 15 q 549 0 562 0 l 467 0 q 446 7 454 0 q 439 28 439 15 l 439 389 q 431 409 439 401 q 411 416 424 416 z "},"Z":{"ha":1014,"x_min":97,"x_max":917,"o":"m 125 972 l 889 972 q 909 965 902 972 q 917 945 917 958 l 917 757 q 890 722 917 728 l 803 700 q 770 667 776 694 l 746 581 q 711 554 740 554 l 629 554 q 595 528 601 554 l 590 513 q 587 486 587 505 l 587 444 q 580 424 587 431 q 559 416 572 416 l 476 416 q 431 398 450 416 q 412 354 412 380 l 412 307 q 405 287 412 294 q 385 279 397 279 l 301 279 q 254 261 273 279 q 235 216 235 243 l 235 167 q 242 146 235 154 q 262 139 250 139 l 889 139 q 909 132 902 139 q 917 111 917 124 l 917 28 q 909 7 917 15 q 889 0 902 0 l 125 0 q 104 7 112 0 q 97 28 97 15 l 97 215 q 123 250 97 244 l 211 272 q 244 306 237 278 l 268 392 q 302 418 274 418 l 385 418 q 419 444 413 418 l 424 460 q 427 486 427 468 l 427 528 q 434 548 427 541 q 454 555 441 555 l 538 555 q 583 574 564 555 q 602 618 602 592 l 602 665 q 609 686 602 678 q 629 693 616 693 l 713 693 q 760 711 741 693 q 779 755 779 728 l 779 806 q 772 826 779 819 q 751 833 764 833 l 125 833 q 104 841 112 833 q 97 861 97 848 l 97 945 q 104 965 97 958 q 125 972 112 972 z "},"[":{"ha":1014,"x_min":319,"x_max":694,"o":"m 694 -110 q 687 -130 694 -123 q 667 -138 680 -138 l 485 -138 q 465 -130 472 -138 q 457 -110 457 -123 l 457 -28 q 450 -7 457 -15 q 429 0 442 0 l 347 0 q 327 7 334 0 q 319 28 319 15 l 319 945 q 327 965 319 958 q 347 972 334 972 l 429 972 q 450 980 442 972 q 457 1000 457 987 l 457 1082 q 465 1102 457 1095 q 485 1109 472 1109 l 667 1109 q 687 1102 680 1109 q 694 1082 694 1095 l 694 1000 q 687 980 694 987 q 667 972 680 972 l 521 972 q 476 954 494 972 q 457 909 457 936 l 457 62 q 476 18 457 36 q 521 0 494 0 l 667 0 q 687 -7 680 0 q 694 -28 694 -15 l 694 -110 z "},"\\":{"ha":1014,"x_min":97,"x_max":917,"o":"m 454 416 q 434 424 441 416 q 427 444 427 431 l 427 486 q 424 513 427 505 l 419 528 q 385 554 413 554 l 302 554 q 268 581 274 554 l 244 667 q 211 700 238 694 l 123 722 q 97 757 97 728 l 97 945 q 104 965 97 958 q 125 972 112 972 l 207 972 q 227 965 220 972 q 235 945 235 958 l 235 755 q 254 711 235 728 q 301 693 273 693 l 385 693 q 405 686 397 693 q 412 665 412 678 l 412 618 q 431 574 412 592 q 476 555 450 555 l 559 555 q 580 548 572 555 q 587 528 587 541 l 587 486 q 590 460 587 468 l 595 444 q 629 418 601 418 l 711 418 q 746 392 740 418 l 770 306 q 803 272 777 278 l 890 250 q 917 215 917 244 l 917 28 q 909 7 917 15 q 889 0 902 0 l 807 0 q 787 7 794 0 q 779 28 779 15 l 779 216 q 760 261 779 243 q 713 279 741 279 l 629 279 q 609 287 616 279 q 602 307 602 294 l 602 354 q 583 398 602 380 q 538 416 564 416 l 454 416 z "},"]":{"ha":1014,"x_min":319,"x_max":694,"o":"m 319 -110 l 319 -28 q 327 -7 319 -15 q 347 0 334 0 l 493 0 q 538 18 519 0 q 557 62 557 36 l 557 909 q 538 954 557 936 q 493 972 519 972 l 347 972 q 327 980 334 972 q 319 1000 319 987 l 319 1082 q 327 1102 319 1095 q 347 1109 334 1109 l 529 1109 q 549 1102 542 1109 q 557 1082 557 1095 l 557 1000 q 564 980 557 987 q 585 972 572 972 l 667 972 q 687 965 680 972 q 694 945 694 958 l 694 28 q 687 7 694 15 q 667 0 680 0 l 585 0 q 564 -7 572 0 q 557 -28 557 -15 l 557 -110 q 549 -130 557 -123 q 529 -138 542 -138 l 347 -138 q 327 -130 334 -138 q 319 -110 319 -123 z "},"^":{"ha":1014,"x_min":161,"x_max":852,"o":"m 300 708 l 300 791 q 307 812 300 804 q 328 819 315 819 l 375 819 q 419 838 401 819 q 437 884 437 857 l 437 945 q 445 965 437 958 q 465 972 452 972 l 549 972 q 569 965 562 972 q 576 945 576 958 l 576 884 q 595 838 576 857 q 639 819 613 819 l 686 819 q 707 812 699 819 q 714 791 714 804 l 714 708 q 722 688 714 695 q 742 681 729 681 l 825 681 q 845 673 838 681 q 852 653 852 666 l 852 570 q 845 549 852 557 q 825 542 838 542 l 742 542 q 722 549 729 542 q 714 570 714 557 l 714 616 q 696 662 714 643 q 652 681 678 681 l 603 681 q 583 688 590 681 q 575 708 575 695 l 575 791 q 554 824 575 814 q 507 833 533 833 q 460 824 481 833 q 439 791 439 814 l 439 708 q 431 688 439 695 q 411 681 424 681 l 363 681 q 318 662 336 681 q 300 616 300 643 l 300 570 q 292 549 300 557 q 272 542 285 542 l 189 542 q 169 549 176 542 q 161 570 161 557 l 161 653 q 169 673 161 666 q 189 681 176 681 l 272 681 q 292 688 285 681 q 300 708 300 695 z "},"_":{"ha":1014,"x_min":97,"x_max":917,"o":"m 125 0 l 889 0 q 909 -7 902 0 q 917 -28 917 -15 l 917 -110 q 909 -130 917 -123 q 889 -138 902 -138 l 125 -138 q 104 -130 112 -138 q 97 -110 97 -123 l 97 -28 q 104 -7 97 -15 q 125 0 112 0 z "},"`":{"ha":1014,"x_min":368,"x_max":646,"o":"m 368 1042 l 368 1125 q 376 1145 368 1138 q 396 1153 383 1153 l 479 1153 q 500 1145 492 1153 q 507 1125 507 1138 l 507 1078 q 525 1033 507 1051 q 570 1014 543 1014 l 618 1014 q 638 1006 631 1014 q 646 986 646 999 l 646 903 q 638 882 646 890 q 618 875 631 875 l 534 875 q 514 882 522 875 q 507 903 507 890 l 507 986 q 500 1006 507 999 q 479 1014 492 1014 l 396 1014 q 376 1021 383 1014 q 368 1042 368 1029 z "},"a":{"ha":1014,"x_min":97,"x_max":917,"o":"m 917 559 l 917 479 q 909 459 917 467 q 889 452 902 452 l 807 452 q 787 459 794 452 q 779 479 779 467 l 779 561 q 760 606 779 587 q 715 625 741 625 l 298 625 q 254 606 273 625 q 235 561 235 587 l 235 518 q 227 498 235 505 q 207 490 220 490 l 125 490 q 104 498 112 490 q 97 518 97 505 l 97 559 q 123 595 97 589 l 211 618 q 244 652 237 624 l 268 737 q 302 764 274 764 l 714 764 q 749 737 743 764 l 772 652 q 806 618 779 624 l 890 595 q 917 559 917 589 m 917 248 l 917 28 q 909 7 917 15 q 889 0 902 0 l 300 0 q 265 26 271 0 l 241 113 q 208 146 235 140 l 123 168 q 97 203 97 174 l 97 285 q 104 305 97 298 q 125 313 112 313 l 199 313 q 233 339 227 313 l 258 427 q 293 452 264 452 l 714 452 q 749 425 743 452 l 772 339 q 806 306 779 312 l 890 282 q 917 248 917 276 m 298 139 l 751 139 q 772 146 764 139 q 779 167 779 154 l 779 249 q 760 294 779 275 q 715 313 741 313 l 298 313 q 254 294 273 313 q 235 250 235 275 l 235 201 q 253 157 235 175 q 298 139 272 139 z "},"b":{"ha":1014,"x_min":97,"x_max":917,"o":"m 298 764 l 714 764 q 749 737 743 764 l 772 653 q 806 619 779 625 l 890 596 q 917 561 917 590 l 917 204 q 890 170 917 176 l 806 146 q 772 113 779 140 l 749 26 q 714 0 743 0 l 125 0 q 104 7 112 0 q 97 28 97 15 l 97 597 q 104 618 97 610 q 125 625 112 625 l 207 625 q 227 618 220 625 q 235 597 235 610 l 235 167 q 242 146 235 154 q 262 139 250 139 l 715 139 q 760 158 741 139 q 779 203 779 177 l 779 561 q 760 606 779 587 q 715 625 741 625 l 300 625 q 265 652 271 625 l 241 737 q 208 771 235 765 l 123 794 q 97 829 97 800 l 97 945 q 104 965 97 958 q 125 972 112 972 l 207 972 q 227 965 220 972 q 235 945 235 958 l 235 828 q 254 783 235 802 q 298 764 273 764 z "},"c":{"ha":1014,"x_min":97,"x_max":917,"o":"m 807 272 l 889 272 q 909 264 902 272 q 917 244 917 257 l 917 203 q 890 168 917 174 l 803 146 q 770 113 776 140 l 746 26 q 711 0 740 0 l 300 0 q 265 26 271 0 l 241 113 q 208 146 235 140 l 123 168 q 97 203 97 174 l 97 559 q 123 595 97 589 l 208 618 q 241 652 235 624 l 265 737 q 300 764 271 764 l 711 764 q 746 737 740 764 l 770 652 q 803 618 777 624 l 890 595 q 917 559 917 589 l 917 518 q 909 498 917 505 q 889 490 902 490 l 807 490 q 787 498 794 490 q 779 518 779 505 l 779 561 q 760 606 779 587 q 715 625 741 625 l 298 625 q 254 606 273 625 q 235 561 235 587 l 235 201 q 253 157 235 175 q 298 139 272 139 l 715 139 q 761 157 742 139 q 779 201 779 175 l 779 244 q 787 264 779 257 q 807 272 794 272 z "},"d":{"ha":1014,"x_min":97,"x_max":917,"o":"m 300 764 l 715 764 q 760 783 741 764 q 779 828 779 802 l 779 945 q 787 965 779 958 q 807 972 794 972 l 889 972 q 909 965 902 972 q 917 945 917 958 l 917 829 q 890 794 917 800 l 806 771 q 772 737 779 765 l 749 652 q 714 625 743 625 l 298 625 q 254 606 273 625 q 235 561 235 587 l 235 203 q 254 158 235 177 q 298 139 273 139 l 751 139 q 772 146 764 139 q 779 167 779 154 l 779 597 q 787 618 779 610 q 807 625 794 625 l 889 625 q 909 618 902 625 q 917 597 917 610 l 917 28 q 909 7 917 15 q 889 0 902 0 l 300 0 q 265 26 271 0 l 241 113 q 208 146 235 140 l 123 170 q 97 204 97 176 l 97 561 q 123 596 97 590 l 208 619 q 241 653 235 625 l 265 737 q 300 764 271 764 z "},"e":{"ha":1014,"x_min":97,"x_max":917,"o":"m 304 340 l 304 424 q 312 444 304 437 q 332 452 319 452 l 715 452 q 760 470 741 452 q 779 514 779 489 l 779 562 q 761 607 779 589 q 715 625 742 625 l 298 625 q 253 607 272 625 q 235 562 235 589 l 235 203 q 254 158 235 177 q 298 139 273 139 l 715 139 q 760 158 741 139 q 779 203 779 177 l 779 245 q 787 266 779 258 q 807 273 794 273 l 889 273 q 909 266 902 273 q 917 245 917 258 l 917 204 q 890 170 917 176 l 803 146 q 770 113 776 140 l 746 26 q 711 0 740 0 l 300 0 q 265 26 271 0 l 241 113 q 208 146 235 140 l 123 170 q 97 204 97 176 l 97 561 q 123 596 97 590 l 208 618 q 241 652 235 624 l 265 737 q 300 764 271 764 l 714 764 q 749 737 743 764 l 772 652 q 806 618 779 624 l 890 596 q 917 561 917 590 l 917 479 q 909 459 917 467 q 889 452 902 452 l 815 452 q 781 425 787 452 l 755 338 q 721 313 749 313 l 332 313 q 312 320 319 313 q 304 340 304 328 z "},"f":{"ha":1014,"x_min":97,"x_max":917,"o":"m 314 690 l 314 807 q 321 827 314 820 q 342 835 329 835 l 425 835 q 460 861 454 835 l 484 946 q 518 972 490 972 l 889 972 q 909 965 902 972 q 917 945 917 958 l 917 863 q 909 842 917 850 q 889 835 902 835 l 517 835 q 472 816 490 835 q 453 771 453 798 l 453 692 q 427 657 453 663 l 340 633 q 307 600 313 627 l 283 515 q 249 489 277 489 l 125 489 q 104 496 112 489 q 97 517 97 504 l 97 599 q 104 619 97 612 q 125 627 112 627 l 250 627 q 295 646 276 627 q 314 690 314 665 m 425 0 l 342 0 q 321 7 329 0 q 314 28 314 15 l 314 424 q 340 458 314 452 l 427 482 q 460 515 454 488 l 484 600 q 518 627 490 627 l 819 627 q 840 619 832 627 q 847 599 847 612 l 847 517 q 840 496 847 504 q 819 489 832 489 l 517 489 q 472 470 491 489 q 453 425 453 451 l 453 28 q 446 7 453 15 q 425 0 438 0 z "},"g":{"ha":1014,"x_min":97,"x_max":917,"o":"m 714 0 l 262 0 q 242 7 250 0 q 235 28 235 15 l 235 111 q 208 146 235 140 l 123 168 q 97 203 97 174 l 97 561 q 123 596 97 590 l 208 618 q 241 652 235 624 l 265 737 q 300 764 271 764 l 751 764 q 772 756 764 764 q 779 736 779 749 l 779 653 q 787 633 779 640 q 807 625 794 625 l 889 625 q 909 618 902 625 q 917 597 917 610 l 917 204 q 890 170 917 176 l 806 146 q 772 113 779 140 l 749 26 q 714 0 743 0 m 298 139 l 715 139 q 760 158 741 139 q 779 203 779 177 l 779 562 q 761 607 779 589 q 715 625 742 625 l 298 625 q 253 607 272 625 q 235 562 235 589 l 235 201 q 253 157 235 175 q 298 139 272 139 m 235 -257 l 235 -174 q 242 -153 235 -161 q 262 -146 250 -146 l 715 -146 q 760 -127 741 -146 q 779 -82 779 -108 l 779 -28 q 787 -7 779 -15 q 807 0 794 0 l 889 0 q 909 -7 902 0 q 917 -28 917 -15 l 917 -81 q 890 -115 917 -109 l 806 -139 q 772 -172 779 -145 l 749 -258 q 714 -285 743 -285 l 262 -285 q 242 -277 250 -285 q 235 -257 235 -270 z "},"h":{"ha":1014,"x_min":97,"x_max":917,"o":"m 889 0 l 807 0 q 787 7 794 0 q 779 28 779 15 l 779 561 q 760 606 779 587 q 715 625 741 625 l 300 625 q 265 652 271 625 l 241 737 q 208 771 235 765 l 123 794 q 97 829 97 800 l 97 945 q 104 965 97 958 q 125 972 112 972 l 207 972 q 227 965 220 972 q 235 945 235 958 l 235 828 q 254 783 235 802 q 298 764 273 764 l 714 764 q 749 737 743 764 l 772 653 q 806 619 779 625 l 890 596 q 917 561 917 590 l 917 28 q 909 7 917 15 q 889 0 902 0 m 207 0 l 125 0 q 104 7 112 0 q 97 28 97 15 l 97 597 q 104 618 97 610 q 125 625 112 625 l 207 625 q 227 618 220 625 q 235 597 235 610 l 235 28 q 227 7 235 15 q 207 0 220 0 z "},"i":{"ha":1014,"x_min":97,"x_max":917,"o":"m 465 833 q 445 841 452 833 q 437 861 437 848 l 437 945 q 445 965 437 958 q 465 972 452 972 l 562 972 q 583 965 575 972 q 590 945 590 958 l 590 861 q 583 841 590 848 q 562 833 575 833 l 465 833 m 125 764 l 372 764 q 407 737 401 764 l 431 653 q 465 627 437 627 l 549 627 q 569 619 562 627 q 576 599 576 612 l 576 201 q 595 157 576 176 q 640 138 614 138 l 889 138 q 909 130 902 138 q 917 110 917 123 l 917 28 q 909 7 917 15 q 889 0 902 0 l 642 0 q 607 26 613 0 l 583 111 q 550 144 577 138 l 464 168 q 437 203 437 174 l 437 562 q 419 608 437 589 q 374 627 400 627 l 125 627 q 104 634 112 627 q 97 654 97 642 l 97 736 q 104 756 97 749 q 125 764 112 764 m 125 138 l 410 138 q 430 130 422 138 q 437 110 437 123 l 437 28 q 430 7 437 15 q 410 0 422 0 l 125 0 q 104 7 112 0 q 97 28 97 15 l 97 110 q 104 130 97 123 q 125 138 112 138 z "},"j":{"ha":1014,"x_min":97,"x_max":917,"o":"m 889 833 l 791 833 q 771 841 779 833 q 764 861 764 848 l 764 945 q 771 965 764 958 q 791 972 779 972 l 889 972 q 909 965 902 972 q 917 945 917 958 l 917 861 q 909 841 917 848 q 889 833 902 833 m 917 597 l 917 -82 q 890 -117 917 -111 l 804 -139 q 772 -172 779 -145 l 749 -258 q 714 -285 743 -285 l 304 -285 q 269 -258 275 -285 l 245 -172 q 212 -139 239 -145 l 123 -117 q 97 -82 97 -111 l 97 69 q 104 90 97 82 q 125 97 112 97 l 208 97 q 229 90 221 97 q 236 69 236 82 l 236 -83 q 255 -128 236 -110 q 300 -146 273 -146 l 715 -146 q 760 -128 742 -146 q 778 -83 778 -110 l 778 561 q 759 606 778 587 q 714 625 741 625 l 264 625 q 243 633 251 625 q 236 653 236 640 l 236 736 q 243 756 236 749 q 264 764 251 764 l 713 764 q 747 736 741 764 l 771 652 q 806 625 777 625 l 889 625 q 909 618 902 625 q 917 597 917 610 z "},"k":{"ha":1014,"x_min":97,"x_max":917,"o":"m 538 313 l 300 313 q 265 339 271 313 l 241 425 q 208 458 235 452 l 123 482 q 97 517 97 488 l 97 945 q 104 965 97 958 q 125 972 112 972 l 207 972 q 227 965 220 972 q 235 945 235 958 l 235 515 q 254 471 235 490 q 298 452 273 452 l 538 452 q 583 470 564 452 q 602 514 602 488 l 602 561 q 609 581 602 574 q 629 589 616 589 l 713 589 q 760 607 741 589 q 779 652 779 625 l 779 736 q 787 756 779 749 q 807 764 794 764 l 889 764 q 909 756 902 764 q 917 736 917 749 l 917 653 q 890 618 917 624 l 803 596 q 770 562 777 590 l 746 476 q 711 450 740 450 l 629 450 q 595 424 601 450 l 590 408 q 587 382 587 397 q 590 355 587 366 l 595 340 q 629 314 601 314 l 711 314 q 746 288 740 314 l 770 201 q 803 168 776 174 l 890 146 q 917 111 917 140 l 917 28 q 909 7 917 15 q 889 0 902 0 l 807 0 q 787 7 794 0 q 779 28 779 15 l 779 113 q 760 157 779 140 q 713 175 741 175 l 629 175 q 609 182 616 175 q 602 203 602 190 l 602 250 q 583 294 602 276 q 538 313 564 313 m 97 285 q 104 305 97 298 q 125 313 112 313 l 207 313 q 227 305 220 313 q 235 285 235 298 l 235 28 q 227 7 235 15 q 207 0 220 0 l 125 0 q 104 7 112 0 q 97 28 97 15 l 97 285 z "},"l":{"ha":1014,"x_min":97,"x_max":917,"o":"m 437 203 l 437 771 q 418 816 437 797 q 374 835 399 835 l 125 835 q 104 842 112 835 q 97 863 97 850 l 97 945 q 104 965 97 958 q 125 972 112 972 l 372 972 q 407 946 401 972 l 431 861 q 464 828 437 834 l 550 804 q 576 770 576 798 l 576 201 q 595 157 576 176 q 640 138 614 138 l 889 138 q 909 130 902 138 q 917 110 917 123 l 917 28 q 909 7 917 15 q 889 0 902 0 l 642 0 q 607 26 613 0 l 583 111 q 550 144 577 138 l 464 168 q 437 203 437 174 m 125 138 l 410 138 q 430 130 422 138 q 437 110 437 123 l 437 28 q 430 7 437 15 q 410 0 422 0 l 125 0 q 104 7 112 0 q 97 28 97 15 l 97 110 q 104 130 97 123 q 125 138 112 138 z "},"m":{"ha":1014,"x_min":97,"x_max":917,"o":"m 576 561 l 576 340 q 569 320 576 328 q 549 313 562 313 l 468 313 q 447 320 455 313 q 439 340 439 328 l 439 562 q 419 607 439 588 q 374 627 399 627 l 262 627 q 242 618 250 627 q 235 597 235 610 l 235 28 q 227 7 235 15 q 207 0 220 0 l 125 0 q 104 7 112 0 q 97 28 97 15 l 97 736 q 104 756 97 749 q 125 764 112 764 l 372 764 q 407 737 401 764 l 431 653 q 464 619 437 625 l 550 596 q 576 561 576 590 m 917 28 q 909 7 917 15 q 889 0 902 0 l 807 0 q 787 7 794 0 q 779 28 779 15 l 779 561 q 760 607 779 587 q 715 627 741 627 l 604 627 q 584 634 591 627 q 576 654 576 642 l 576 736 q 584 756 576 749 q 604 764 591 764 l 714 764 q 749 737 743 764 l 772 652 q 806 618 779 624 l 890 595 q 917 559 917 589 l 917 28 z "},"n":{"ha":1014,"x_min":97,"x_max":917,"o":"m 889 0 l 807 0 q 787 7 794 0 q 779 28 779 15 l 779 561 q 760 606 779 587 q 715 625 741 625 l 262 625 q 242 618 250 625 q 235 597 235 610 l 235 28 q 227 7 235 15 q 207 0 220 0 l 125 0 q 104 7 112 0 q 97 28 97 15 l 97 736 q 104 756 97 749 q 125 764 112 764 l 714 764 q 749 737 743 764 l 772 652 q 806 618 779 624 l 890 595 q 917 559 917 589 l 917 28 q 909 7 917 15 q 889 0 902 0 z "},"o":{"ha":1014,"x_min":97,"x_max":917,"o":"m 711 0 l 300 0 q 265 26 271 0 l 241 113 q 208 146 235 140 l 123 168 q 97 203 97 174 l 97 559 q 123 595 97 589 l 208 618 q 241 652 235 624 l 265 737 q 300 764 271 764 l 711 764 q 746 737 740 764 l 770 652 q 803 618 777 624 l 890 595 q 917 559 917 589 l 917 203 q 890 168 917 174 l 803 146 q 770 113 776 140 l 746 26 q 711 0 740 0 m 715 625 l 298 625 q 254 606 273 625 q 235 561 235 587 l 235 201 q 253 157 235 175 q 298 139 272 139 l 715 139 q 761 157 742 139 q 779 201 779 175 l 779 561 q 760 606 779 587 q 715 625 741 625 z "},"p":{"ha":1014,"x_min":97,"x_max":917,"o":"m 772 113 l 749 26 q 714 0 743 0 l 300 0 q 265 26 271 0 l 241 113 q 208 146 235 140 l 123 170 q 97 204 97 176 l 97 736 q 104 756 97 749 q 125 764 112 764 l 714 764 q 749 737 743 764 l 772 652 q 806 618 779 624 l 890 595 q 917 559 917 589 l 917 204 q 890 170 917 176 l 806 146 q 772 113 779 140 m 235 597 l 235 203 q 254 158 235 177 q 298 139 273 139 l 715 139 q 760 158 741 139 q 779 203 779 177 l 779 561 q 760 606 779 587 q 715 625 741 625 l 262 625 q 242 618 250 625 q 235 597 235 610 m 235 -28 l 235 -257 q 227 -277 235 -270 q 207 -285 220 -285 l 125 -285 q 104 -277 112 -285 q 97 -257 97 -270 l 97 -28 q 104 -7 97 -15 q 125 0 112 0 l 207 0 q 227 -7 220 0 q 235 -28 235 -15 z "},"q":{"ha":1014,"x_min":97,"x_max":917,"o":"m 265 26 l 241 113 q 208 146 235 140 l 123 170 q 97 204 97 176 l 97 559 q 123 595 97 589 l 208 618 q 241 652 235 624 l 265 737 q 300 764 271 764 l 889 764 q 909 756 902 764 q 917 736 917 749 l 917 204 q 890 170 917 176 l 806 146 q 772 113 779 140 l 749 26 q 714 0 743 0 l 300 0 q 265 26 271 0 m 779 203 l 779 597 q 772 618 779 610 q 751 625 764 625 l 298 625 q 254 606 273 625 q 235 561 235 587 l 235 203 q 254 158 235 177 q 298 139 273 139 l 715 139 q 760 158 741 139 q 779 203 779 177 m 779 -257 l 779 -28 q 787 -7 779 -15 q 807 0 794 0 l 889 0 q 909 -7 902 0 q 917 -28 917 -15 l 917 -257 q 909 -277 917 -270 q 889 -285 902 -285 l 807 -285 q 787 -277 794 -285 q 779 -257 779 -270 z "},"r":{"ha":1014,"x_min":97,"x_max":917,"o":"m 917 597 l 917 479 q 909 459 917 467 q 889 452 902 452 l 807 452 q 787 459 794 452 q 779 479 779 467 l 779 561 q 760 606 779 587 q 715 625 741 625 l 262 625 q 242 618 250 625 q 235 597 235 610 l 235 28 q 227 7 235 15 q 207 0 220 0 l 125 0 q 104 7 112 0 q 97 28 97 15 l 97 736 q 104 756 97 749 q 125 764 112 764 l 711 764 q 746 737 738 764 l 771 652 q 784 632 774 640 q 807 625 794 625 l 889 625 q 909 618 902 625 q 917 597 917 610 z "},"s":{"ha":1014,"x_min":97,"x_max":917,"o":"m 917 285 l 917 204 q 890 170 917 176 l 806 146 q 772 113 779 140 l 749 26 q 714 0 743 0 l 302 0 q 268 26 274 0 l 244 113 q 211 146 238 140 l 123 170 q 97 204 97 176 l 97 245 q 104 266 97 258 q 125 273 112 273 l 207 273 q 227 266 220 273 q 235 245 235 258 l 235 203 q 254 158 235 177 q 298 139 273 139 l 715 139 q 760 158 741 139 q 779 203 779 177 l 779 250 q 760 294 779 275 q 715 313 741 313 l 293 313 q 258 338 264 313 l 233 425 q 199 452 227 452 l 125 452 q 104 459 112 452 q 97 479 97 467 l 97 561 q 123 596 97 590 l 208 618 q 241 652 235 624 l 265 737 q 300 764 271 764 l 711 764 q 746 737 740 764 l 770 652 q 803 618 777 624 l 890 595 q 917 559 917 589 l 917 518 q 909 498 917 505 q 889 490 902 490 l 807 490 q 787 498 794 490 q 779 518 779 505 l 779 561 q 760 606 779 587 q 715 625 741 625 l 298 625 q 253 607 272 625 q 235 562 235 589 l 235 514 q 254 470 235 489 q 298 452 273 452 l 721 452 q 755 427 749 452 l 781 339 q 815 313 787 313 l 889 313 q 909 305 902 313 q 917 285 917 298 z "},"t":{"ha":1014,"x_min":56,"x_max":917,"o":"m 262 972 l 346 972 q 366 965 359 972 q 374 945 374 958 l 374 829 q 347 794 374 800 l 261 771 q 228 737 235 765 l 204 653 q 170 627 198 627 l 83 627 q 63 634 71 627 q 56 654 56 642 l 56 736 q 63 756 56 749 q 83 764 71 764 l 171 764 q 216 783 197 764 q 235 828 235 802 l 235 945 q 242 965 235 958 q 262 972 250 972 m 403 26 l 380 113 q 346 139 374 139 l 262 139 q 242 146 250 139 q 235 167 235 154 l 235 561 q 261 596 235 590 l 347 619 q 380 653 374 625 l 404 737 q 439 764 410 764 l 751 764 q 772 756 764 764 q 779 736 779 749 l 779 654 q 772 634 779 642 q 751 627 764 627 l 437 627 q 393 607 412 627 q 374 562 374 588 l 374 201 q 392 157 374 175 q 436 139 410 139 l 715 139 q 761 157 742 139 q 779 201 779 175 l 779 296 q 787 316 779 309 q 807 323 794 323 l 889 323 q 909 316 902 323 q 917 296 917 309 l 917 203 q 890 168 917 174 l 803 146 q 770 113 776 140 l 746 26 q 711 0 740 0 l 437 0 q 403 26 409 0 z "},"u":{"ha":1014,"x_min":97,"x_max":917,"o":"m 125 764 l 207 764 q 227 756 220 764 q 235 736 235 749 l 235 203 q 254 158 235 177 q 298 139 273 139 l 751 139 q 772 146 764 139 q 779 167 779 154 l 779 736 q 787 756 779 749 q 807 764 794 764 l 889 764 q 909 756 902 764 q 917 736 917 749 l 917 28 q 909 7 917 15 q 889 0 902 0 l 300 0 q 265 26 271 0 l 241 113 q 208 146 235 140 l 123 170 q 97 204 97 176 l 97 736 q 104 756 97 749 q 125 764 112 764 z "},"v":{"ha":1014,"x_min":97,"x_max":917,"o":"m 268 164 l 244 250 q 211 283 238 277 l 123 306 q 97 340 97 312 l 97 736 q 104 756 97 749 q 125 764 112 764 l 207 764 q 227 756 220 764 q 235 736 235 749 l 235 339 q 253 295 235 313 q 298 277 272 277 l 374 277 q 394 269 387 277 q 401 249 401 262 l 401 204 q 420 158 401 178 q 465 138 439 138 l 549 138 q 593 158 574 138 q 612 204 612 178 l 612 249 q 620 269 612 262 q 640 277 627 277 l 715 277 q 761 295 742 277 q 779 339 779 313 l 779 736 q 787 756 779 749 q 807 764 794 764 l 889 764 q 909 756 902 764 q 917 736 917 749 l 917 340 q 890 306 917 312 l 803 283 q 770 250 776 277 l 746 164 q 711 138 740 138 l 640 138 q 606 111 612 138 l 582 26 q 547 0 576 0 l 467 0 q 432 26 438 0 l 408 111 q 374 138 402 138 l 302 138 q 268 164 274 138 z "},"w":{"ha":1014,"x_min":97,"x_max":917,"o":"m 917 203 q 890 168 917 174 l 803 146 q 770 113 776 140 l 746 26 q 711 0 740 0 l 642 0 q 607 26 613 0 l 583 111 q 550 144 577 138 l 464 168 q 439 203 439 174 l 439 528 q 446 548 439 541 q 467 555 454 555 l 549 555 q 569 548 562 555 q 576 528 576 541 l 576 201 q 595 157 576 176 q 640 138 614 138 l 715 138 q 761 156 742 138 q 779 200 779 174 l 779 736 q 787 756 779 749 q 807 764 794 764 l 889 764 q 909 756 902 764 q 917 736 917 749 l 917 203 m 97 203 l 97 736 q 104 756 97 749 q 125 764 112 764 l 207 764 q 227 756 220 764 q 235 736 235 749 l 235 200 q 253 156 235 174 q 298 138 272 138 l 410 138 q 430 130 422 138 q 437 110 437 123 l 437 28 q 430 7 437 15 q 410 0 422 0 l 302 0 q 268 26 274 0 l 244 113 q 211 146 238 140 l 123 168 q 97 203 97 174 z "},"x":{"ha":1014,"x_min":97,"x_max":917,"o":"m 97 28 l 97 111 q 123 146 97 140 l 211 168 q 244 201 238 174 l 268 288 q 302 314 274 314 l 385 314 q 419 340 413 314 l 424 355 q 427 382 427 361 q 424 408 427 403 l 419 424 q 385 450 413 450 l 302 450 q 268 476 274 450 l 244 562 q 211 596 237 590 l 123 618 q 97 653 97 624 l 97 736 q 104 756 97 749 q 125 764 112 764 l 207 764 q 227 756 220 764 q 235 736 235 749 l 235 652 q 254 607 235 625 q 301 589 273 589 l 385 589 q 405 581 397 589 q 412 561 412 574 l 412 514 q 431 470 412 488 q 476 452 450 452 l 538 452 q 583 470 564 452 q 602 514 602 488 l 602 561 q 609 581 602 574 q 629 589 616 589 l 713 589 q 760 607 741 589 q 779 652 779 625 l 779 736 q 787 756 779 749 q 807 764 794 764 l 889 764 q 909 756 902 764 q 917 736 917 749 l 917 653 q 890 618 917 624 l 803 596 q 770 562 777 590 l 746 476 q 711 450 740 450 l 629 450 q 595 424 601 450 l 590 408 q 587 382 587 397 q 590 355 587 366 l 595 340 q 629 314 601 314 l 711 314 q 746 288 740 314 l 770 201 q 803 168 776 174 l 890 146 q 917 111 917 140 l 917 28 q 909 7 917 15 q 889 0 902 0 l 807 0 q 787 7 794 0 q 779 28 779 15 l 779 113 q 760 157 779 140 q 713 175 741 175 l 629 175 q 609 182 616 175 q 602 203 602 190 l 602 250 q 583 294 602 276 q 538 313 564 313 l 476 313 q 431 294 450 313 q 412 250 412 276 l 412 203 q 405 182 412 190 q 385 175 397 175 l 301 175 q 254 157 273 175 q 235 113 235 140 l 235 28 q 227 7 235 15 q 207 0 220 0 l 125 0 q 104 7 112 0 q 97 28 97 15 z "},"y":{"ha":1014,"x_min":97,"x_max":917,"o":"m 807 764 l 889 764 q 909 756 902 764 q 917 736 917 749 l 917 204 q 890 170 917 176 l 806 146 q 772 113 779 140 l 749 26 q 714 0 743 0 l 262 0 q 242 7 250 0 q 235 28 235 15 l 235 111 q 208 146 235 140 l 123 168 q 97 203 97 174 l 97 736 q 104 756 97 749 q 125 764 112 764 l 207 764 q 227 756 220 764 q 235 736 235 749 l 235 201 q 253 157 235 175 q 298 139 272 139 l 715 139 q 760 158 741 139 q 779 203 779 177 l 779 736 q 787 756 779 749 q 807 764 794 764 m 235 -257 l 235 -174 q 242 -153 235 -161 q 262 -146 250 -146 l 715 -146 q 760 -127 741 -146 q 779 -82 779 -108 l 779 -28 q 787 -7 779 -15 q 807 0 794 0 l 889 0 q 909 -7 902 0 q 917 -28 917 -15 l 917 -81 q 890 -115 917 -109 l 806 -139 q 772 -172 779 -145 l 749 -258 q 714 -285 743 -285 l 262 -285 q 242 -277 250 -285 q 235 -257 235 -270 z "},"z":{"ha":1014,"x_min":97,"x_max":917,"o":"m 262 139 l 889 139 q 909 132 902 139 q 917 111 917 124 l 917 28 q 909 7 917 15 q 889 0 902 0 l 125 0 q 104 7 112 0 q 97 28 97 15 l 97 285 q 104 305 97 298 q 125 313 112 313 l 199 313 q 233 339 227 313 l 258 427 q 293 452 264 452 l 715 452 q 760 470 741 452 q 779 514 779 489 l 779 597 q 772 618 779 610 q 751 625 764 625 l 125 625 q 104 633 112 625 q 97 653 97 640 l 97 736 q 104 756 97 749 q 125 764 112 764 l 889 764 q 909 756 902 764 q 917 736 917 749 l 917 479 q 909 459 917 467 q 889 452 902 452 l 815 452 q 781 425 787 452 l 755 338 q 721 313 749 313 l 298 313 q 254 294 273 313 q 235 250 235 275 l 235 167 q 242 146 235 154 q 262 139 250 139 z "},"{":{"ha":1014,"x_min":250,"x_max":764,"o":"m 387 619 l 387 907 q 414 942 387 936 l 498 965 q 545 991 521 970 l 644 1090 q 692 1109 665 1109 l 736 1109 q 756 1102 749 1109 q 764 1082 764 1095 l 764 1000 q 756 980 764 987 q 736 972 749 972 l 589 972 q 544 953 563 972 q 525 908 525 934 l 525 619 q 517 599 525 606 q 497 591 510 591 l 457 591 q 409 572 431 591 q 387 528 387 553 l 387 444 q 409 399 387 418 q 457 380 431 380 l 497 380 q 517 373 510 380 q 525 353 525 366 l 525 64 q 544 19 525 38 q 589 0 563 0 l 736 0 q 756 -7 749 0 q 764 -28 764 -15 l 764 -110 q 756 -130 764 -123 q 736 -138 749 -138 l 692 -138 q 644 -118 667 -138 l 545 -20 q 498 7 521 1 l 414 31 q 387 65 387 37 l 387 353 q 361 387 387 381 l 277 411 q 250 446 250 417 l 250 526 q 277 561 250 555 l 361 585 q 387 619 387 591 z "},"|":{"ha":1014,"x_min":437,"x_max":576,"o":"m 549 -139 l 465 -139 q 445 -132 452 -139 q 437 -111 437 -124 l 437 1083 q 445 1103 437 1096 q 465 1111 452 1111 l 549 1111 q 569 1103 562 1111 q 576 1083 576 1096 l 576 -111 q 569 -132 576 -124 q 549 -139 562 -139 z "},"}":{"ha":1014,"x_min":250,"x_max":764,"o":"m 627 907 l 627 619 q 653 585 627 591 l 737 561 q 764 526 764 555 l 764 446 q 737 411 764 417 l 653 387 q 627 353 627 381 l 627 65 q 600 31 627 37 l 515 7 q 469 -20 493 1 l 370 -118 q 322 -138 347 -138 l 278 -138 q 258 -130 265 -138 q 250 -110 250 -123 l 250 -28 q 258 -7 250 -15 q 278 0 265 0 l 425 0 q 470 19 451 0 q 489 64 489 38 l 489 353 q 496 373 489 366 q 517 380 504 380 l 557 380 q 605 399 583 380 q 627 444 627 418 l 627 528 q 605 572 627 553 q 557 591 583 591 l 517 591 q 496 599 504 591 q 489 619 489 606 l 489 908 q 470 953 489 934 q 425 972 451 972 l 278 972 q 258 980 265 972 q 250 1000 250 987 l 250 1082 q 258 1102 250 1095 q 278 1109 265 1109 l 322 1109 q 370 1090 349 1109 l 469 991 q 515 965 493 970 l 600 942 q 627 907 627 936 z "},"~":{"ha":1014,"x_min":174,"x_max":840,"o":"m 340 458 l 340 375 q 333 355 340 362 q 313 347 326 347 l 201 347 q 181 355 189 347 q 174 375 174 362 l 174 458 q 181 479 174 471 q 201 486 189 486 l 278 486 q 322 505 304 486 q 340 550 340 524 l 340 597 q 348 618 340 610 q 368 625 355 625 l 479 625 q 500 618 492 625 q 507 597 507 610 l 507 550 q 525 505 507 524 q 570 486 543 486 l 611 486 q 655 505 637 486 q 673 550 673 524 l 673 597 q 681 618 673 610 q 701 625 688 625 l 812 625 q 833 618 825 625 q 840 597 840 610 l 840 514 q 833 494 840 501 q 812 486 825 486 l 701 486 q 681 479 688 486 q 673 458 673 471 l 673 375 q 666 355 673 362 q 646 347 659 347 l 534 347 q 514 355 522 347 q 507 375 507 362 l 507 458 q 500 479 507 471 q 479 486 492 486 l 368 486 q 348 479 355 486 q 340 458 340 471 z "},"":{"ha":1014,"x_min":437,"x_max":576,"o":"m 465 764 l 549 764 q 569 756 562 764 q 576 736 576 749 l 576 639 q 569 618 576 626 q 549 611 562 611 l 465 611 q 445 618 452 611 q 437 639 437 626 l 437 736 q 445 756 437 749 q 465 764 452 764 m 465 472 l 549 472 q 569 465 562 472 q 576 444 576 457 l 576 -180 q 569 -201 576 -193 q 549 -208 562 -208 l 465 -208 q 445 -201 452 -208 q 437 -180 437 -193 l 437 444 q 445 465 437 457 q 465 472 452 472 z "},"":{"ha":1014,"x_min":97,"x_max":917,"o":"m 807 376 l 889 376 q 909 369 902 376 q 917 349 917 361 l 917 307 q 890 272 917 278 l 803 250 q 770 216 777 244 l 746 131 q 711 104 740 104 l 576 104 l 576 -7 q 569 -27 576 -20 q 549 -35 562 -35 l 465 -35 q 445 -27 452 -35 q 437 -7 437 -20 l 437 104 l 300 104 q 265 131 271 104 l 241 216 q 208 250 235 244 l 123 272 q 97 307 97 278 l 97 664 q 123 699 97 692 l 208 722 q 241 755 235 728 l 265 842 q 300 868 271 868 l 437 868 l 437 979 q 445 1000 437 992 q 465 1007 452 1007 l 549 1007 q 569 1000 562 1007 q 576 979 576 992 l 576 868 l 711 868 q 746 842 740 868 l 770 755 q 803 722 776 728 l 890 699 q 917 664 917 692 l 917 623 q 909 602 917 610 q 889 595 902 595 l 807 595 q 787 602 794 595 q 779 623 779 610 l 779 665 q 760 710 779 691 q 715 729 741 729 l 298 729 q 254 710 273 729 q 235 665 235 691 l 235 306 q 253 261 235 279 q 298 243 272 243 l 715 243 q 761 261 742 243 q 779 306 779 279 l 779 349 q 787 369 779 361 q 807 376 794 376 z "},"":{"ha":1014,"x_min":97,"x_max":917,"o":"m 372 770 l 372 576 q 391 532 372 551 q 436 513 410 513 l 751 513 q 772 505 764 513 q 779 485 779 498 l 779 403 q 772 382 779 390 q 751 375 764 375 l 437 375 q 403 401 409 375 l 379 486 q 346 519 373 513 l 260 543 q 235 578 235 549 l 235 768 q 261 803 235 797 l 346 827 q 379 860 373 833 l 403 946 q 437 972 409 972 l 711 972 q 746 946 740 972 l 770 860 q 803 827 776 833 l 890 803 q 917 768 917 797 l 917 685 q 909 665 917 672 q 889 657 902 657 l 807 657 q 787 665 794 657 q 779 685 779 672 l 779 770 q 760 814 779 795 q 715 833 741 833 l 436 833 q 391 814 410 833 q 372 770 372 795 m 374 201 q 392 157 374 176 q 436 138 411 138 l 889 138 q 909 130 902 138 q 917 110 917 123 l 917 28 q 909 7 917 15 q 889 0 902 0 l 401 0 q 381 7 389 0 q 374 28 374 15 l 374 110 q 366 130 374 123 q 346 138 359 138 l 262 138 q 242 130 250 138 q 235 110 235 123 l 235 28 q 227 7 235 15 q 207 0 220 0 l 125 0 q 104 7 112 0 q 97 28 97 15 l 97 110 q 104 130 97 123 q 125 138 112 138 l 172 138 q 217 156 199 138 q 235 201 235 175 l 235 347 q 242 368 235 360 q 262 375 250 375 l 346 375 q 366 368 359 375 q 374 347 374 360 l 374 201 z "},"":{"ha":1014,"x_min":286,"x_max":726,"o":"m 361 277 l 296 342 q 286 367 286 351 q 290 385 286 376 l 335 463 q 342 486 342 474 q 335 510 342 498 l 290 585 q 286 603 286 593 q 296 628 286 618 l 363 694 q 389 705 374 705 q 407 701 399 705 l 484 659 q 507 653 494 653 q 530 659 522 653 l 607 701 q 627 707 618 707 q 652 696 641 707 l 715 632 q 726 606 726 621 q 722 587 726 595 l 677 511 q 671 489 671 500 q 677 464 671 477 l 722 385 q 726 367 726 376 q 717 342 726 351 l 650 275 q 627 264 638 264 q 607 269 621 264 l 529 315 q 505 322 517 322 q 482 315 496 322 l 404 271 q 386 267 396 267 q 361 277 371 267 m 621 530 l 551 599 q 507 618 532 618 q 461 599 480 618 l 393 530 q 374 485 374 511 q 393 440 374 460 l 463 372 q 509 353 482 353 q 551 371 533 353 l 621 440 q 639 486 639 458 q 621 530 639 514 z "},"":{"ha":1014,"x_min":97,"x_max":917,"o":"m 411 484 l 302 484 q 268 510 274 484 l 244 596 q 211 629 238 623 l 123 652 q 97 686 97 658 l 97 945 q 104 965 97 958 q 125 972 112 972 l 207 972 q 227 965 220 972 q 235 945 235 958 l 235 684 q 254 638 235 656 q 301 621 273 621 l 411 621 q 431 613 424 621 q 439 593 439 606 l 439 546 q 458 502 439 521 q 503 484 477 484 l 513 484 q 558 502 539 484 q 576 546 576 519 l 576 593 q 584 613 576 606 q 604 621 591 621 l 713 621 q 760 638 741 621 q 779 684 779 656 l 779 945 q 787 965 779 958 q 807 972 794 972 l 889 972 q 909 965 902 972 q 917 945 917 958 l 917 686 q 890 652 917 658 l 803 629 q 770 596 776 623 l 746 510 q 711 484 740 484 l 604 484 q 584 476 591 484 q 576 456 576 469 l 576 411 q 550 376 576 382 l 464 353 q 431 319 437 347 l 407 235 q 372 208 401 208 l 262 208 q 242 216 250 208 q 235 236 235 223 l 235 318 q 242 338 235 331 q 262 346 250 346 l 374 346 q 419 365 399 346 q 439 410 439 384 l 439 456 q 431 476 439 469 q 411 484 424 484 m 549 0 l 465 0 q 445 7 452 0 q 437 28 437 15 l 437 143 q 464 178 437 172 l 550 201 q 583 235 577 208 l 607 319 q 642 346 613 346 l 751 346 q 772 338 764 346 q 779 318 779 331 l 779 236 q 772 216 779 223 q 751 208 764 208 l 640 208 q 595 189 614 208 q 576 144 576 170 l 576 28 q 569 7 576 15 q 549 0 562 0 z "},"":{"ha":1014,"x_min":437,"x_max":576,"o":"m 549 555 l 465 555 q 445 563 452 555 q 437 583 437 570 l 437 1083 q 445 1103 437 1096 q 465 1111 452 1111 l 549 1111 q 569 1103 562 1111 q 576 1083 576 1096 l 576 583 q 569 563 576 570 q 549 555 562 555 m 465 416 l 549 416 q 569 409 562 416 q 576 389 576 401 l 576 -111 q 569 -132 576 -124 q 549 -139 562 -139 l 465 -139 q 445 -132 452 -139 q 437 -111 437 -124 l 437 389 q 445 409 437 401 q 465 416 452 416 z "},"":{"ha":1014,"x_min":97,"x_max":917,"o":"m 779 329 l 779 250 q 787 230 779 237 q 807 222 794 222 l 889 222 q 909 215 902 222 q 917 195 917 208 l 917 64 q 890 29 917 35 l 806 7 q 772 -26 779 1 l 749 -113 q 714 -139 743 -139 l 300 -139 q 265 -113 271 -139 l 241 -26 q 208 7 235 1 l 123 29 q 97 64 97 35 l 97 119 q 104 140 97 132 q 125 147 112 147 l 207 147 q 227 140 220 147 q 235 119 235 132 l 235 62 q 253 18 235 36 q 298 0 272 0 l 715 0 q 761 18 742 0 q 779 62 779 36 l 779 160 q 760 204 779 185 q 715 222 741 222 l 293 222 q 258 248 264 222 l 233 335 q 199 361 227 361 l 125 361 q 104 368 112 361 q 97 389 97 376 l 97 546 q 123 581 97 574 l 207 604 q 233 639 233 610 l 233 722 q 226 743 233 735 q 205 750 218 750 l 125 750 q 104 758 112 750 q 97 778 97 765 l 97 908 q 123 943 97 937 l 208 965 q 241 999 235 971 l 265 1084 q 300 1111 271 1111 l 714 1111 q 749 1084 743 1111 l 772 999 q 806 965 779 971 l 890 943 q 917 908 917 937 l 917 852 q 909 832 917 840 q 889 825 902 825 l 807 825 q 787 832 794 825 q 779 852 779 840 l 779 909 q 761 954 779 936 q 715 972 742 972 l 298 972 q 253 954 272 972 q 235 909 235 936 l 235 812 q 254 769 235 787 q 298 750 273 750 l 721 750 q 755 725 749 750 l 781 637 q 815 611 787 611 l 889 611 q 909 604 902 611 q 917 583 917 596 l 917 427 q 890 392 917 400 l 806 366 q 779 329 779 356 m 298 361 l 715 361 q 760 380 741 361 q 779 425 779 399 l 779 547 q 760 592 779 573 q 715 611 741 611 l 298 611 q 254 592 273 611 q 235 547 235 573 l 235 425 q 254 380 235 399 q 298 361 273 361 z "},"":{"ha":1014,"x_min":298,"x_max":715,"o":"m 576 903 l 576 986 q 584 1006 576 999 q 604 1014 591 1014 l 688 1014 q 708 1006 701 1014 q 715 986 715 999 l 715 903 q 708 882 715 890 q 688 875 701 875 l 604 875 q 584 882 591 875 q 576 903 576 890 m 326 1014 l 410 1014 q 430 1006 422 1014 q 437 986 437 999 l 437 903 q 430 882 437 890 q 410 875 422 875 l 326 875 q 306 882 313 875 q 298 903 298 890 l 298 986 q 306 1006 298 999 q 326 1014 313 1014 z "},"":{"ha":1014,"x_min":153,"x_max":861,"o":"m 742 66 l 272 66 q 253 82 257 66 l 239 136 q 216 157 234 152 l 165 171 q 153 189 153 175 l 153 783 q 165 802 153 798 l 216 819 q 239 836 235 826 l 253 890 q 272 905 256 905 l 742 905 q 761 890 757 905 l 775 836 q 781 826 777 829 q 794 819 785 823 l 848 802 q 861 783 861 798 l 861 189 q 848 171 861 175 l 794 157 q 775 136 780 153 l 761 82 q 742 66 757 66 m 743 822 l 271 822 q 245 810 256 822 q 235 783 235 799 l 235 189 q 246 162 235 174 q 271 150 257 150 l 743 150 q 769 161 759 150 q 779 189 779 173 l 779 783 q 769 811 779 800 q 743 822 759 822 m 636 418 l 684 418 q 700 400 700 418 l 700 351 q 685 330 700 334 l 632 318 q 612 297 616 313 l 599 249 q 578 232 594 232 l 433 232 q 412 249 417 232 l 400 297 q 380 318 396 313 l 329 330 q 314 351 314 334 l 314 619 q 329 640 314 636 l 380 653 q 400 673 396 658 l 412 725 q 433 741 417 741 l 578 741 q 599 725 593 741 l 612 673 q 632 653 616 658 l 685 640 q 700 619 700 636 l 700 570 q 684 554 700 554 l 636 554 q 618 570 618 554 l 618 621 q 607 646 618 635 q 581 657 597 657 l 433 657 q 407 646 417 657 q 396 621 396 635 l 396 350 q 406 325 396 334 q 433 315 416 315 l 581 315 q 608 325 597 315 q 618 350 618 334 l 618 400 q 636 418 618 418 z "},"":{"ha":1014,"x_min":160,"x_max":854,"o":"m 507 665 l 507 582 q 500 562 507 569 q 479 554 492 554 l 368 554 q 336 533 346 554 q 326 486 326 512 q 336 439 326 460 q 368 418 346 418 l 479 418 q 500 410 492 418 q 507 390 507 403 l 507 307 q 500 287 507 294 q 479 279 492 279 l 368 279 q 348 287 355 279 q 340 307 340 294 l 340 354 q 321 398 340 380 q 277 416 302 416 l 187 416 q 167 424 174 416 q 160 444 160 431 l 160 528 q 167 548 160 541 q 187 555 174 555 l 277 555 q 321 574 302 555 q 340 618 340 592 l 340 665 q 348 686 340 678 q 368 693 355 693 l 479 693 q 500 686 492 693 q 507 665 507 678 m 854 665 l 854 582 q 847 562 854 569 q 827 554 840 554 l 715 554 q 683 533 693 554 q 673 486 673 512 q 683 439 673 460 q 715 418 693 418 l 827 418 q 847 410 840 418 q 854 390 854 403 l 854 307 q 847 287 854 294 q 827 279 840 279 l 715 279 q 695 287 703 279 q 688 307 688 294 l 688 354 q 669 398 688 380 q 624 416 650 416 l 534 416 q 514 424 522 416 q 507 444 507 431 l 507 528 q 514 548 507 541 q 534 555 522 555 l 624 555 q 669 574 650 555 q 688 618 688 592 l 688 665 q 695 686 688 678 q 715 693 703 693 l 827 693 q 847 686 840 693 q 854 665 854 678 z "},"":{"ha":1014,"x_min":250,"x_max":764,"o":"m 627 279 l 627 390 q 619 410 627 403 q 599 418 612 418 l 278 418 q 258 425 265 418 q 250 446 250 433 l 250 528 q 258 548 250 541 q 278 555 265 555 l 736 555 q 756 548 749 555 q 764 528 764 541 l 764 279 q 755 259 764 267 q 734 252 747 252 l 653 252 q 627 279 627 252 z "},"":{"ha":1014,"x_min":153,"x_max":861,"o":"m 741 66 l 275 66 q 254 82 258 66 l 240 134 q 218 154 235 150 l 165 168 q 153 187 153 172 l 153 785 q 165 804 153 800 l 218 821 q 240 839 237 827 l 254 890 q 275 905 258 905 l 741 905 q 760 890 755 905 l 774 839 q 791 821 778 825 l 848 804 q 861 785 861 800 l 861 187 q 848 168 861 172 l 791 154 q 774 134 779 151 l 760 82 q 741 66 755 66 m 741 823 l 273 823 q 247 812 258 823 q 235 785 235 800 l 235 187 q 247 160 235 171 q 273 149 258 149 l 741 149 q 768 159 758 149 q 779 187 779 170 l 779 785 q 768 812 779 801 q 741 823 757 823 m 682 232 l 633 232 q 623 237 627 232 q 618 248 618 241 l 618 407 q 606 433 618 422 q 579 444 594 444 l 435 444 q 415 461 421 444 l 400 510 q 380 532 393 528 l 329 545 q 314 567 314 549 l 314 725 q 318 736 314 731 q 329 741 323 741 l 579 741 q 599 725 594 741 l 614 675 q 633 656 617 661 l 685 640 q 700 621 700 636 l 700 543 q 695 531 700 536 q 682 526 690 526 l 633 526 q 618 510 618 526 l 618 463 q 623 449 618 454 q 633 444 627 444 l 682 444 q 700 428 700 444 l 700 248 q 695 237 700 241 q 682 232 690 232 m 435 526 l 579 526 q 607 537 595 526 q 618 564 618 547 l 618 621 q 606 647 618 636 q 579 659 595 659 l 414 659 q 401 654 406 659 q 396 642 396 649 l 396 567 q 408 538 396 550 q 435 526 419 526 m 380 232 l 329 232 q 318 237 323 232 q 314 248 314 241 l 314 428 q 318 439 314 435 q 329 444 323 444 l 380 444 q 391 439 387 444 q 396 428 396 435 l 396 248 q 391 237 396 241 q 380 232 387 232 z "},"":{"ha":1014,"x_min":250,"x_max":764,"o":"m 278 1013 l 736 1013 q 756 1005 749 1013 q 764 985 764 998 l 764 903 q 756 882 764 890 q 736 875 749 875 l 278 875 q 258 882 265 875 q 250 903 250 890 l 250 985 q 258 1005 250 998 q 278 1013 265 1013 z "},"":{"ha":1014,"x_min":271,"x_max":743,"o":"m 538 498 l 473 498 q 439 525 445 498 l 415 611 q 382 644 409 638 l 297 667 q 271 701 271 673 l 271 768 q 297 803 271 797 l 382 827 q 415 860 409 833 l 439 946 q 473 972 445 972 l 538 972 q 572 946 566 972 l 596 860 q 629 827 602 833 l 717 803 q 743 768 743 797 l 743 701 q 717 667 743 673 l 629 644 q 596 611 602 638 l 572 525 q 538 498 566 498 m 542 833 l 472 833 q 427 814 446 833 q 408 770 408 795 l 408 700 q 427 655 408 673 q 472 637 446 637 l 542 637 q 587 655 568 637 q 606 700 606 673 l 606 770 q 587 814 606 795 q 542 833 568 833 z "},"":{"ha":1014,"x_min":250,"x_max":764,"o":"m 465 764 l 549 764 q 569 756 562 764 q 576 736 576 749 l 576 621 q 550 586 576 592 l 464 562 q 431 529 437 556 l 407 444 q 372 418 401 418 l 278 418 q 258 425 265 418 q 250 446 250 433 l 250 528 q 258 548 250 541 q 278 555 265 555 l 374 555 q 418 574 399 555 q 437 619 437 593 l 437 736 q 445 756 437 749 q 465 764 452 764 m 549 210 l 465 210 q 445 217 452 210 q 437 237 437 224 l 437 353 q 464 387 437 381 l 550 411 q 583 444 577 417 l 607 529 q 642 555 613 555 l 736 555 q 756 548 749 555 q 764 528 764 541 l 764 446 q 756 425 764 433 q 736 418 749 418 l 640 418 q 595 399 614 418 q 576 354 576 380 l 576 237 q 569 217 576 224 q 549 210 562 210 m 278 138 l 736 138 q 756 130 749 138 q 764 110 764 123 l 764 28 q 756 7 764 15 q 736 0 749 0 l 278 0 q 258 7 265 0 q 250 28 250 15 l 250 110 q 258 130 250 123 q 278 138 265 138 z "},"":{"ha":1014,"x_min":368,"x_max":646,"o":"m 646 1125 l 646 1042 q 638 1021 646 1029 q 618 1014 631 1014 l 534 1014 q 514 1006 522 1014 q 507 986 507 999 l 507 903 q 500 882 507 890 q 479 875 492 875 l 396 875 q 376 882 383 875 q 368 903 368 890 l 368 986 q 376 1006 368 999 q 396 1014 383 1014 l 444 1014 q 489 1033 471 1014 q 507 1078 507 1051 l 507 1125 q 514 1145 507 1138 q 534 1153 522 1153 l 618 1153 q 638 1145 631 1153 q 646 1125 646 1138 z "},"":{"ha":1014,"x_min":97,"x_max":917,"o":"m 642 806 l 642 621 q 615 586 642 592 l 530 562 q 497 529 503 556 l 473 443 q 439 416 467 416 l 262 416 q 242 424 250 416 q 235 444 235 431 l 235 528 q 227 548 235 541 q 207 555 220 555 l 125 555 q 104 563 112 555 q 97 583 97 570 l 97 768 q 123 803 97 797 l 208 827 q 241 860 235 833 l 265 946 q 300 972 271 972 l 889 972 q 909 965 902 972 q 917 945 917 958 l 917 28 q 909 7 917 15 q 889 0 902 0 l 807 0 q 787 7 794 0 q 779 28 779 15 l 779 806 q 772 826 779 819 q 751 833 764 833 l 669 833 q 649 826 656 833 q 642 806 642 819 m 532 0 q 511 7 519 0 q 504 28 504 15 l 504 389 q 511 409 504 401 q 532 416 519 416 l 614 416 q 634 409 627 416 q 642 389 642 401 l 642 28 q 634 7 642 15 q 614 0 627 0 l 532 0 z "},"":{"ha":1014,"x_min":437,"x_max":576,"o":"m 549 410 l 465 410 q 445 417 452 410 q 437 437 437 425 l 437 534 q 445 555 437 547 q 465 562 452 562 l 549 562 q 569 555 562 562 q 576 534 576 547 l 576 437 q 569 417 576 425 q 549 410 562 410 z "},"":{"ha":1014,"x_min":437,"x_max":715,"o":"m 437 -361 l 437 -278 q 445 -258 437 -265 q 465 -250 452 -250 l 549 -250 q 569 -243 562 -250 q 576 -222 576 -235 l 576 -139 q 569 -119 576 -126 q 549 -111 562 -111 l 465 -111 q 445 -104 452 -111 q 437 -83 437 -96 l 437 28 q 445 48 437 41 q 465 56 452 56 l 549 56 q 569 48 562 56 q 576 28 576 41 l 576 -49 q 595 -93 576 -75 q 640 -111 614 -111 l 688 -111 q 708 -119 701 -111 q 715 -139 715 -126 l 715 -222 q 708 -243 715 -235 q 688 -250 701 -250 l 640 -250 q 595 -268 614 -250 q 576 -313 576 -286 l 576 -361 q 569 -381 576 -374 q 549 -389 562 -389 l 465 -389 q 445 -381 452 -389 q 437 -361 437 -374 z "},"":{"ha":1014,"x_min":160,"x_max":854,"o":"m 507 582 l 507 665 q 514 686 507 678 q 534 693 522 693 l 646 693 q 666 686 659 693 q 673 665 673 678 l 673 618 q 692 574 673 592 q 737 555 711 555 l 827 555 q 847 548 840 555 q 854 528 854 541 l 854 444 q 847 424 854 431 q 827 416 840 416 l 737 416 q 692 398 711 416 q 673 354 673 380 l 673 307 q 666 287 673 294 q 646 279 659 279 l 534 279 q 514 287 522 279 q 507 307 507 294 l 507 390 q 514 410 507 403 q 534 418 522 418 l 646 418 q 678 439 668 418 q 688 486 688 460 q 678 533 688 512 q 646 554 668 554 l 534 554 q 514 562 522 554 q 507 582 507 569 m 160 582 l 160 665 q 167 686 160 678 q 187 693 174 693 l 298 693 q 319 686 311 693 q 326 665 326 678 l 326 618 q 345 574 326 592 q 390 555 364 555 l 479 555 q 500 548 492 555 q 507 528 507 541 l 507 444 q 500 424 507 431 q 479 416 492 416 l 390 416 q 345 398 364 416 q 326 354 326 380 l 326 307 q 319 287 326 294 q 298 279 311 279 l 187 279 q 167 287 174 279 q 160 307 160 294 l 160 390 q 167 410 160 403 q 187 418 174 418 l 298 418 q 331 439 321 418 q 340 486 340 460 q 331 533 340 512 q 298 554 321 554 l 187 554 q 167 562 174 554 q 160 582 160 569 z "},"":{"ha":1014,"x_min":97,"x_max":917,"o":"m 465 764 l 549 764 q 569 756 562 764 q 576 736 576 749 l 576 639 q 569 618 576 626 q 549 611 562 611 l 465 611 q 445 618 452 611 q 437 639 437 626 l 437 736 q 445 756 437 749 q 465 764 452 764 m 235 147 l 235 -5 q 253 -51 235 -32 q 298 -69 272 -69 l 715 -69 q 760 -50 741 -69 q 779 -5 779 -31 l 779 79 q 787 100 779 92 q 807 107 794 107 l 889 107 q 909 100 902 107 q 917 79 917 92 l 917 -4 q 890 -39 917 -33 l 803 -62 q 770 -96 776 -68 l 746 -182 q 711 -208 740 -208 l 300 -208 q 265 -182 271 -208 l 241 -96 q 208 -62 235 -68 l 123 -39 q 97 -5 97 -33 l 97 146 q 123 180 97 174 l 211 203 q 244 236 238 209 l 268 322 q 302 349 274 349 l 410 349 q 430 356 422 349 q 437 376 437 363 l 437 444 q 445 465 437 457 q 465 472 452 472 l 547 472 q 568 465 560 472 q 575 444 575 457 l 575 376 q 568 356 575 363 q 547 349 560 349 l 501 349 q 456 331 475 349 q 437 286 437 313 l 437 237 q 430 217 437 224 q 410 210 422 210 l 301 210 q 254 192 273 210 q 235 147 235 174 z "},"":{"ha":1014,"x_min":97,"x_max":917,"o":"m 368 1250 l 368 1333 q 376 1354 368 1346 q 396 1361 383 1361 l 479 1361 q 500 1354 492 1361 q 507 1333 507 1346 l 507 1286 q 525 1241 507 1259 q 570 1222 543 1222 l 618 1222 q 638 1215 631 1222 q 646 1194 646 1207 l 646 1111 q 638 1090 646 1098 q 618 1083 631 1083 l 534 1083 q 514 1090 522 1083 q 507 1111 507 1098 l 507 1194 q 500 1215 507 1207 q 479 1222 492 1222 l 396 1222 q 376 1230 383 1222 q 368 1250 368 1237 m 711 347 l 298 347 q 253 329 272 347 q 235 285 235 311 l 235 28 q 227 7 235 15 q 207 0 220 0 l 125 0 q 104 7 112 0 q 97 28 97 15 l 97 283 q 123 318 97 312 l 208 340 q 241 374 235 347 l 265 460 q 300 486 271 486 l 715 486 q 761 504 742 486 q 779 549 779 522 l 779 770 q 760 814 779 795 q 715 833 741 833 l 298 833 q 254 814 273 833 q 235 770 235 795 l 235 514 q 227 494 235 501 q 207 486 220 486 l 125 486 q 104 494 112 486 q 97 514 97 501 l 97 667 q 117 714 97 692 l 215 814 q 241 860 236 838 l 265 946 q 300 972 271 972 l 714 972 q 749 946 743 972 l 772 860 q 799 814 778 838 l 897 714 q 917 667 917 692 l 917 550 q 890 515 917 522 l 803 493 q 770 460 776 487 l 746 374 q 711 347 740 347 m 917 319 l 917 28 q 909 7 917 15 q 889 0 902 0 l 807 0 q 787 7 794 0 q 779 28 779 15 l 779 319 q 787 340 779 332 q 807 347 794 347 l 889 347 q 909 340 902 347 q 917 319 917 332 z "},"":{"ha":1014,"x_min":97,"x_max":917,"o":"m 646 1333 l 646 1250 q 638 1230 646 1237 q 618 1222 631 1222 l 534 1222 q 514 1215 522 1222 q 507 1194 507 1207 l 507 1111 q 500 1090 507 1098 q 479 1083 492 1083 l 396 1083 q 376 1090 383 1083 q 368 1111 368 1098 l 368 1194 q 376 1215 368 1207 q 396 1222 383 1222 l 444 1222 q 489 1241 471 1222 q 507 1286 507 1259 l 507 1333 q 514 1354 507 1346 q 534 1361 522 1361 l 618 1361 q 638 1354 631 1361 q 646 1333 646 1346 m 711 347 l 298 347 q 253 329 272 347 q 235 285 235 311 l 235 28 q 227 7 235 15 q 207 0 220 0 l 125 0 q 104 7 112 0 q 97 28 97 15 l 97 283 q 123 318 97 312 l 208 340 q 241 374 235 347 l 265 460 q 300 486 271 486 l 715 486 q 761 504 742 486 q 779 549 779 522 l 779 770 q 760 814 779 795 q 715 833 741 833 l 298 833 q 254 814 273 833 q 235 770 235 795 l 235 514 q 227 494 235 501 q 207 486 220 486 l 125 486 q 104 494 112 486 q 97 514 97 501 l 97 667 q 117 714 97 692 l 215 814 q 241 860 236 838 l 265 946 q 300 972 271 972 l 714 972 q 749 946 743 972 l 772 860 q 799 814 778 838 l 897 714 q 917 667 917 692 l 917 550 q 890 515 917 522 l 803 493 q 770 460 776 487 l 746 374 q 711 347 740 347 m 917 319 l 917 28 q 909 7 917 15 q 889 0 902 0 l 807 0 q 787 7 794 0 q 779 28 779 15 l 779 319 q 787 340 779 332 q 807 347 794 347 l 889 347 q 909 340 902 347 q 917 319 917 332 z "},"":{"ha":1014,"x_min":97,"x_max":917,"o":"m 410 1083 l 326 1083 q 306 1090 313 1083 q 298 1111 298 1098 l 298 1194 q 306 1215 298 1207 q 326 1222 313 1222 l 375 1222 q 419 1241 401 1222 q 437 1286 437 1259 l 437 1333 q 445 1354 437 1346 q 465 1361 452 1361 l 549 1361 q 569 1354 562 1361 q 576 1333 576 1346 l 576 1286 q 594 1241 576 1259 q 639 1222 612 1222 l 688 1222 q 708 1215 701 1222 q 715 1194 715 1207 l 715 1111 q 708 1090 715 1098 q 688 1083 701 1083 l 604 1083 q 584 1090 591 1083 q 576 1111 576 1098 l 576 1194 q 569 1215 576 1207 q 549 1222 562 1222 l 465 1222 q 445 1215 452 1222 q 437 1194 437 1207 l 437 1111 q 430 1090 437 1098 q 410 1083 422 1083 m 711 347 l 298 347 q 253 329 272 347 q 235 285 235 311 l 235 28 q 227 7 235 15 q 207 0 220 0 l 125 0 q 104 7 112 0 q 97 28 97 15 l 97 283 q 123 318 97 312 l 208 340 q 241 374 235 347 l 265 460 q 300 486 271 486 l 715 486 q 761 504 742 486 q 779 549 779 522 l 779 770 q 760 814 779 795 q 715 833 741 833 l 298 833 q 254 814 273 833 q 235 770 235 795 l 235 514 q 227 494 235 501 q 207 486 220 486 l 125 486 q 104 494 112 486 q 97 514 97 501 l 97 667 q 117 714 97 692 l 215 814 q 241 860 236 838 l 265 946 q 300 972 271 972 l 714 972 q 749 946 743 972 l 772 860 q 799 814 778 838 l 897 714 q 917 667 917 692 l 917 550 q 890 515 917 522 l 803 493 q 770 460 776 487 l 746 374 q 711 347 740 347 m 917 319 l 917 28 q 909 7 917 15 q 889 0 902 0 l 807 0 q 787 7 794 0 q 779 28 779 15 l 779 319 q 787 340 779 332 q 807 347 794 347 l 889 347 q 909 340 902 347 q 917 319 917 332 z "},"":{"ha":1014,"x_min":97,"x_max":917,"o":"m 368 1194 l 368 1111 q 361 1090 368 1098 q 340 1083 353 1083 l 257 1083 q 237 1090 244 1083 q 229 1111 229 1098 l 229 1194 q 237 1215 229 1207 q 257 1222 244 1222 l 306 1222 q 350 1241 332 1222 q 368 1286 368 1259 l 368 1333 q 376 1354 368 1346 q 396 1361 383 1361 l 479 1361 q 500 1354 492 1361 q 507 1333 507 1346 l 507 1286 q 525 1241 507 1259 q 570 1222 543 1222 l 583 1222 q 628 1241 610 1222 q 646 1286 646 1259 l 646 1333 q 653 1354 646 1346 q 673 1361 661 1361 l 757 1361 q 777 1354 770 1361 q 785 1333 785 1346 l 785 1250 q 777 1230 785 1237 q 757 1222 770 1222 l 673 1222 q 653 1215 661 1222 q 646 1194 646 1207 l 646 1111 q 638 1090 646 1098 q 618 1083 631 1083 l 534 1083 q 514 1090 522 1083 q 507 1111 507 1098 l 507 1194 q 500 1215 507 1207 q 479 1222 492 1222 l 396 1222 q 376 1215 383 1222 q 368 1194 368 1207 m 711 347 l 298 347 q 253 329 272 347 q 235 285 235 311 l 235 28 q 227 7 235 15 q 207 0 220 0 l 125 0 q 104 7 112 0 q 97 28 97 15 l 97 283 q 123 318 97 312 l 208 340 q 241 374 235 347 l 265 460 q 300 486 271 486 l 715 486 q 761 504 742 486 q 779 549 779 522 l 779 770 q 760 814 779 795 q 715 833 741 833 l 298 833 q 254 814 273 833 q 235 770 235 795 l 235 514 q 227 494 235 501 q 207 486 220 486 l 125 486 q 104 494 112 486 q 97 514 97 501 l 97 667 q 117 714 97 692 l 215 814 q 241 860 236 838 l 265 946 q 300 972 271 972 l 714 972 q 749 946 743 972 l 772 860 q 799 814 778 838 l 897 714 q 917 667 917 692 l 917 550 q 890 515 917 522 l 803 493 q 770 460 776 487 l 746 374 q 711 347 740 347 m 917 319 l 917 28 q 909 7 917 15 q 889 0 902 0 l 807 0 q 787 7 794 0 q 779 28 779 15 l 779 319 q 787 340 779 332 q 807 347 794 347 l 889 347 q 909 340 902 347 q 917 319 917 332 z "},"":{"ha":1014,"x_min":97,"x_max":917,"o":"m 576 1111 l 576 1194 q 584 1215 576 1207 q 604 1222 591 1222 l 688 1222 q 708 1215 701 1222 q 715 1194 715 1207 l 715 1111 q 708 1090 715 1098 q 688 1083 701 1083 l 604 1083 q 584 1090 591 1083 q 576 1111 576 1098 m 326 1222 l 410 1222 q 430 1215 422 1222 q 437 1194 437 1207 l 437 1111 q 430 1090 437 1098 q 410 1083 422 1083 l 326 1083 q 306 1090 313 1083 q 298 1111 298 1098 l 298 1194 q 306 1215 298 1207 q 326 1222 313 1222 m 711 347 l 298 347 q 253 329 272 347 q 235 285 235 311 l 235 28 q 227 7 235 15 q 207 0 220 0 l 125 0 q 104 7 112 0 q 97 28 97 15 l 97 283 q 123 318 97 312 l 208 340 q 241 374 235 347 l 265 460 q 300 486 271 486 l 715 486 q 761 504 742 486 q 779 549 779 522 l 779 770 q 760 814 779 795 q 715 833 741 833 l 298 833 q 254 814 273 833 q 235 770 235 795 l 235 514 q 227 494 235 501 q 207 486 220 486 l 125 486 q 104 494 112 486 q 97 514 97 501 l 97 667 q 117 714 97 692 l 215 814 q 241 860 236 838 l 265 946 q 300 972 271 972 l 714 972 q 749 946 743 972 l 772 860 q 799 814 778 838 l 897 714 q 917 667 917 692 l 917 550 q 890 515 917 522 l 803 493 q 770 460 776 487 l 746 374 q 711 347 740 347 m 917 319 l 917 28 q 909 7 917 15 q 889 0 902 0 l 807 0 q 787 7 794 0 q 779 28 779 15 l 779 319 q 787 340 779 332 q 807 347 794 347 l 889 347 q 909 340 902 347 q 917 319 917 332 z "},"":{"ha":1014,"x_min":97,"x_max":917,"o":"m 517 1014 l 494 1014 q 460 1040 466 1014 l 436 1126 q 403 1160 430 1154 l 318 1182 q 292 1217 292 1188 l 292 1242 q 318 1276 292 1270 l 403 1300 q 436 1333 430 1306 l 460 1419 q 494 1446 466 1446 l 517 1446 q 551 1419 545 1446 l 575 1333 q 608 1300 581 1306 l 696 1276 q 722 1242 722 1270 l 722 1217 q 696 1182 722 1188 l 608 1160 q 575 1126 581 1154 l 551 1040 q 517 1014 545 1014 m 521 1307 l 493 1307 q 448 1288 467 1307 q 429 1243 429 1269 l 429 1215 q 448 1171 429 1189 q 493 1153 467 1153 l 521 1153 q 566 1171 547 1153 q 585 1215 585 1189 l 585 1243 q 566 1288 585 1269 q 521 1307 547 1307 m 711 347 l 298 347 q 253 329 272 347 q 235 285 235 311 l 235 28 q 227 7 235 15 q 207 0 220 0 l 125 0 q 104 7 112 0 q 97 28 97 15 l 97 283 q 123 318 97 312 l 208 340 q 241 374 235 347 l 265 460 q 300 486 271 486 l 715 486 q 761 504 742 486 q 779 549 779 522 l 779 770 q 760 814 779 795 q 715 833 741 833 l 298 833 q 254 814 273 833 q 235 770 235 795 l 235 514 q 227 494 235 501 q 207 486 220 486 l 125 486 q 104 494 112 486 q 97 514 97 501 l 97 667 q 117 714 97 692 l 215 814 q 241 860 236 838 l 265 946 q 300 972 271 972 l 714 972 q 749 946 743 972 l 772 860 q 799 814 778 838 l 897 714 q 917 667 917 692 l 917 550 q 890 515 917 522 l 803 493 q 770 460 776 487 l 746 374 q 711 347 740 347 m 917 319 l 917 28 q 909 7 917 15 q 889 0 902 0 l 807 0 q 787 7 794 0 q 779 28 779 15 l 779 319 q 787 340 779 332 q 807 347 794 347 l 889 347 q 909 340 902 347 q 917 319 917 332 z "},"":{"ha":1014,"x_min":97,"x_max":917,"o":"m 424 833 l 298 833 q 254 814 273 833 q 235 770 235 795 l 235 514 q 227 494 235 501 q 207 486 220 486 l 125 486 q 104 494 112 486 q 97 514 97 501 l 97 667 q 117 714 97 692 l 215 814 q 241 860 236 838 l 265 946 q 300 972 271 972 l 424 972 q 444 965 437 972 q 452 945 452 958 l 452 861 q 444 841 452 848 q 424 833 437 833 m 597 861 l 621 946 q 656 972 627 972 l 889 972 q 909 965 902 972 q 917 945 917 958 l 917 863 q 909 842 917 850 q 889 835 902 835 l 654 835 q 608 816 628 835 q 589 771 589 797 l 589 619 q 608 574 589 593 q 653 555 627 555 l 750 555 q 770 548 763 555 q 778 528 778 541 l 778 444 q 770 424 778 431 q 750 416 763 416 l 654 416 q 619 443 625 416 l 596 529 q 562 562 590 555 l 478 586 q 452 621 452 592 l 452 807 q 459 827 452 820 q 479 835 467 835 l 561 835 q 584 842 574 835 q 597 861 595 849 m 382 458 l 382 375 q 374 355 382 362 q 354 347 367 347 l 298 347 q 253 329 272 347 q 235 285 235 311 l 235 28 q 227 7 235 15 q 207 0 220 0 l 125 0 q 104 7 112 0 q 97 28 97 15 l 97 283 q 123 318 97 312 l 208 340 q 241 374 235 347 l 265 460 q 300 486 271 486 l 354 486 q 374 479 367 486 q 382 458 382 471 m 589 203 q 608 158 589 177 q 654 139 628 139 l 889 139 q 909 132 902 139 q 917 111 917 124 l 917 28 q 909 7 917 15 q 889 0 902 0 l 656 0 q 621 26 627 0 l 597 111 q 564 144 591 138 l 478 168 q 452 203 452 174 l 452 389 q 459 409 452 401 q 479 416 467 416 l 561 416 q 581 409 574 416 q 589 389 589 401 l 589 203 z "},"":{"ha":1014,"x_min":97,"x_max":917,"o":"m 807 314 l 889 314 q 909 307 902 314 q 917 286 917 299 l 917 203 q 890 168 917 174 l 803 146 q 770 113 776 140 l 746 26 q 711 0 740 0 l 576 0 l 576 -49 q 595 -93 576 -75 q 640 -111 614 -111 l 688 -111 q 708 -119 701 -111 q 715 -139 715 -126 l 715 -222 q 708 -243 715 -235 q 688 -250 701 -250 l 640 -250 q 595 -268 614 -250 q 576 -313 576 -286 l 576 -361 q 569 -381 576 -374 q 549 -389 562 -389 l 465 -389 q 445 -381 452 -389 q 437 -361 437 -374 l 437 -278 q 445 -258 437 -265 q 465 -250 452 -250 l 549 -250 q 569 -243 562 -250 q 576 -222 576 -235 l 576 -139 q 569 -119 576 -126 q 549 -111 562 -111 l 465 -111 q 445 -104 452 -111 q 437 -83 437 -96 l 437 0 l 300 0 q 265 26 271 0 l 241 113 q 208 146 235 140 l 123 168 q 97 203 97 174 l 97 768 q 123 803 97 797 l 208 827 q 241 860 235 833 l 265 946 q 300 972 271 972 l 711 972 q 746 946 740 972 l 770 860 q 803 827 776 833 l 890 803 q 917 768 917 797 l 917 685 q 909 665 917 672 q 889 657 902 657 l 807 657 q 787 665 794 657 q 779 685 779 672 l 779 770 q 760 814 779 795 q 715 833 741 833 l 298 833 q 254 814 273 833 q 235 770 235 795 l 235 201 q 253 157 235 175 q 298 139 272 139 l 715 139 q 761 157 742 139 q 779 201 779 175 l 779 286 q 787 307 779 299 q 807 314 794 314 z "},"":{"ha":1014,"x_min":97,"x_max":917,"o":"m 368 1250 l 368 1333 q 376 1354 368 1346 q 396 1361 383 1361 l 479 1361 q 500 1354 492 1361 q 507 1333 507 1346 l 507 1286 q 525 1241 507 1259 q 570 1222 543 1222 l 618 1222 q 638 1215 631 1222 q 646 1194 646 1207 l 646 1111 q 638 1090 646 1098 q 618 1083 631 1083 l 534 1083 q 514 1090 522 1083 q 507 1111 507 1098 l 507 1194 q 500 1215 507 1207 q 479 1222 492 1222 l 396 1222 q 376 1230 383 1222 q 368 1250 368 1237 m 97 621 l 97 945 q 104 965 97 958 q 125 972 112 972 l 889 972 q 909 965 902 972 q 917 945 917 958 l 917 861 q 909 841 917 848 q 889 833 902 833 l 262 833 q 242 826 250 833 q 235 806 235 819 l 235 619 q 254 574 235 593 q 298 555 273 555 l 750 555 q 770 548 763 555 q 778 528 778 541 l 778 444 q 770 424 778 431 q 750 416 763 416 l 300 416 q 265 443 271 416 l 241 529 q 208 562 235 556 l 123 586 q 97 621 97 592 m 235 389 l 235 167 q 242 146 235 154 q 262 139 250 139 l 889 139 q 909 132 902 139 q 917 111 917 124 l 917 28 q 909 7 917 15 q 889 0 902 0 l 125 0 q 104 7 112 0 q 97 28 97 15 l 97 389 q 104 409 97 401 q 125 416 112 416 l 207 416 q 227 409 220 416 q 235 389 235 401 z "},"":{"ha":1014,"x_min":97,"x_max":917,"o":"m 646 1333 l 646 1250 q 638 1230 646 1237 q 618 1222 631 1222 l 534 1222 q 514 1215 522 1222 q 507 1194 507 1207 l 507 1111 q 500 1090 507 1098 q 479 1083 492 1083 l 396 1083 q 376 1090 383 1083 q 368 1111 368 1098 l 368 1194 q 376 1215 368 1207 q 396 1222 383 1222 l 444 1222 q 489 1241 471 1222 q 507 1286 507 1259 l 507 1333 q 514 1354 507 1346 q 534 1361 522 1361 l 618 1361 q 638 1354 631 1361 q 646 1333 646 1346 m 97 621 l 97 945 q 104 965 97 958 q 125 972 112 972 l 889 972 q 909 965 902 972 q 917 945 917 958 l 917 861 q 909 841 917 848 q 889 833 902 833 l 262 833 q 242 826 250 833 q 235 806 235 819 l 235 619 q 254 574 235 593 q 298 555 273 555 l 750 555 q 770 548 763 555 q 778 528 778 541 l 778 444 q 770 424 778 431 q 750 416 763 416 l 300 416 q 265 443 271 416 l 241 529 q 208 562 235 556 l 123 586 q 97 621 97 592 m 235 389 l 235 167 q 242 146 235 154 q 262 139 250 139 l 889 139 q 909 132 902 139 q 917 111 917 124 l 917 28 q 909 7 917 15 q 889 0 902 0 l 125 0 q 104 7 112 0 q 97 28 97 15 l 97 389 q 104 409 97 401 q 125 416 112 416 l 207 416 q 227 409 220 416 q 235 389 235 401 z "},"":{"ha":1014,"x_min":97,"x_max":917,"o":"m 410 1083 l 326 1083 q 306 1090 313 1083 q 298 1111 298 1098 l 298 1194 q 306 1215 298 1207 q 326 1222 313 1222 l 375 1222 q 419 1241 401 1222 q 437 1286 437 1259 l 437 1333 q 445 1354 437 1346 q 465 1361 452 1361 l 549 1361 q 569 1354 562 1361 q 576 1333 576 1346 l 576 1286 q 594 1241 576 1259 q 639 1222 612 1222 l 688 1222 q 708 1215 701 1222 q 715 1194 715 1207 l 715 1111 q 708 1090 715 1098 q 688 1083 701 1083 l 604 1083 q 584 1090 591 1083 q 576 1111 576 1098 l 576 1194 q 569 1215 576 1207 q 549 1222 562 1222 l 465 1222 q 445 1215 452 1222 q 437 1194 437 1207 l 437 1111 q 430 1090 437 1098 q 410 1083 422 1083 m 97 621 l 97 945 q 104 965 97 958 q 125 972 112 972 l 889 972 q 909 965 902 972 q 917 945 917 958 l 917 861 q 909 841 917 848 q 889 833 902 833 l 262 833 q 242 826 250 833 q 235 806 235 819 l 235 619 q 254 574 235 593 q 298 555 273 555 l 750 555 q 770 548 763 555 q 778 528 778 541 l 778 444 q 770 424 778 431 q 750 416 763 416 l 300 416 q 265 443 271 416 l 241 529 q 208 562 235 556 l 123 586 q 97 621 97 592 m 235 389 l 235 167 q 242 146 235 154 q 262 139 250 139 l 889 139 q 909 132 902 139 q 917 111 917 124 l 917 28 q 909 7 917 15 q 889 0 902 0 l 125 0 q 104 7 112 0 q 97 28 97 15 l 97 389 q 104 409 97 401 q 125 416 112 416 l 207 416 q 227 409 220 416 q 235 389 235 401 z "},"":{"ha":1014,"x_min":97,"x_max":917,"o":"m 576 1111 l 576 1194 q 584 1215 576 1207 q 604 1222 591 1222 l 688 1222 q 708 1215 701 1222 q 715 1194 715 1207 l 715 1111 q 708 1090 715 1098 q 688 1083 701 1083 l 604 1083 q 584 1090 591 1083 q 576 1111 576 1098 m 326 1222 l 410 1222 q 430 1215 422 1222 q 437 1194 437 1207 l 437 1111 q 430 1090 437 1098 q 410 1083 422 1083 l 326 1083 q 306 1090 313 1083 q 298 1111 298 1098 l 298 1194 q 306 1215 298 1207 q 326 1222 313 1222 m 97 621 l 97 945 q 104 965 97 958 q 125 972 112 972 l 889 972 q 909 965 902 972 q 917 945 917 958 l 917 861 q 909 841 917 848 q 889 833 902 833 l 262 833 q 242 826 250 833 q 235 806 235 819 l 235 619 q 254 574 235 593 q 298 555 273 555 l 750 555 q 770 548 763 555 q 778 528 778 541 l 778 444 q 770 424 778 431 q 750 416 763 416 l 300 416 q 265 443 271 416 l 241 529 q 208 562 235 556 l 123 586 q 97 621 97 592 m 235 389 l 235 167 q 242 146 235 154 q 262 139 250 139 l 889 139 q 909 132 902 139 q 917 111 917 124 l 917 28 q 909 7 917 15 q 889 0 902 0 l 125 0 q 104 7 112 0 q 97 28 97 15 l 97 389 q 104 409 97 401 q 125 416 112 416 l 207 416 q 227 409 220 416 q 235 389 235 401 z "},"":{"ha":1014,"x_min":97,"x_max":917,"o":"m 368 1250 l 368 1333 q 376 1354 368 1346 q 396 1361 383 1361 l 479 1361 q 500 1354 492 1361 q 507 1333 507 1346 l 507 1286 q 525 1241 507 1259 q 570 1222 543 1222 l 618 1222 q 638 1215 631 1222 q 646 1194 646 1207 l 646 1111 q 638 1090 646 1098 q 618 1083 631 1083 l 534 1083 q 514 1090 522 1083 q 507 1111 507 1098 l 507 1194 q 500 1215 507 1207 q 479 1222 492 1222 l 396 1222 q 376 1230 383 1222 q 368 1250 368 1237 m 437 203 l 437 771 q 418 816 437 797 q 374 835 399 835 l 125 835 q 104 842 112 835 q 97 863 97 850 l 97 945 q 104 965 97 958 q 125 972 112 972 l 372 972 q 407 946 401 972 l 431 861 q 464 828 437 834 l 550 804 q 576 770 576 798 l 576 201 q 595 157 576 176 q 640 138 614 138 l 889 138 q 909 130 902 138 q 917 110 917 123 l 917 28 q 909 7 917 15 q 889 0 902 0 l 642 0 q 607 26 613 0 l 583 111 q 550 144 577 138 l 464 168 q 437 203 437 174 m 889 835 l 604 835 q 584 842 591 835 q 576 863 576 850 l 576 945 q 584 965 576 958 q 604 972 591 972 l 889 972 q 909 965 902 972 q 917 945 917 958 l 917 863 q 909 842 917 850 q 889 835 902 835 m 125 138 l 410 138 q 430 130 422 138 q 437 110 437 123 l 437 28 q 430 7 437 15 q 410 0 422 0 l 125 0 q 104 7 112 0 q 97 28 97 15 l 97 110 q 104 130 97 123 q 125 138 112 138 z "},"":{"ha":1014,"x_min":97,"x_max":917,"o":"m 646 1333 l 646 1250 q 638 1230 646 1237 q 618 1222 631 1222 l 534 1222 q 514 1215 522 1222 q 507 1194 507 1207 l 507 1111 q 500 1090 507 1098 q 479 1083 492 1083 l 396 1083 q 376 1090 383 1083 q 368 1111 368 1098 l 368 1194 q 376 1215 368 1207 q 396 1222 383 1222 l 444 1222 q 489 1241 471 1222 q 507 1286 507 1259 l 507 1333 q 514 1354 507 1346 q 534 1361 522 1361 l 618 1361 q 638 1354 631 1361 q 646 1333 646 1346 m 437 203 l 437 771 q 418 816 437 797 q 374 835 399 835 l 125 835 q 104 842 112 835 q 97 863 97 850 l 97 945 q 104 965 97 958 q 125 972 112 972 l 372 972 q 407 946 401 972 l 431 861 q 464 828 437 834 l 550 804 q 576 770 576 798 l 576 201 q 595 157 576 176 q 640 138 614 138 l 889 138 q 909 130 902 138 q 917 110 917 123 l 917 28 q 909 7 917 15 q 889 0 902 0 l 642 0 q 607 26 613 0 l 583 111 q 550 144 577 138 l 464 168 q 437 203 437 174 m 889 835 l 604 835 q 584 842 591 835 q 576 863 576 850 l 576 945 q 584 965 576 958 q 604 972 591 972 l 889 972 q 909 965 902 972 q 917 945 917 958 l 917 863 q 909 842 917 850 q 889 835 902 835 m 125 138 l 410 138 q 430 130 422 138 q 437 110 437 123 l 437 28 q 430 7 437 15 q 410 0 422 0 l 125 0 q 104 7 112 0 q 97 28 97 15 l 97 110 q 104 130 97 123 q 125 138 112 138 z "},"":{"ha":1014,"x_min":97,"x_max":917,"o":"m 410 1083 l 326 1083 q 306 1090 313 1083 q 298 1111 298 1098 l 298 1194 q 306 1215 298 1207 q 326 1222 313 1222 l 375 1222 q 419 1241 401 1222 q 437 1286 437 1259 l 437 1333 q 445 1354 437 1346 q 465 1361 452 1361 l 549 1361 q 569 1354 562 1361 q 576 1333 576 1346 l 576 1286 q 594 1241 576 1259 q 639 1222 612 1222 l 688 1222 q 708 1215 701 1222 q 715 1194 715 1207 l 715 1111 q 708 1090 715 1098 q 688 1083 701 1083 l 604 1083 q 584 1090 591 1083 q 576 1111 576 1098 l 576 1194 q 569 1215 576 1207 q 549 1222 562 1222 l 465 1222 q 445 1215 452 1222 q 437 1194 437 1207 l 437 1111 q 430 1090 437 1098 q 410 1083 422 1083 m 437 203 l 437 771 q 418 816 437 797 q 374 835 399 835 l 125 835 q 104 842 112 835 q 97 863 97 850 l 97 945 q 104 965 97 958 q 125 972 112 972 l 372 972 q 407 946 401 972 l 431 861 q 464 828 437 834 l 550 804 q 576 770 576 798 l 576 201 q 595 157 576 176 q 640 138 614 138 l 889 138 q 909 130 902 138 q 917 110 917 123 l 917 28 q 909 7 917 15 q 889 0 902 0 l 642 0 q 607 26 613 0 l 583 111 q 550 144 577 138 l 464 168 q 437 203 437 174 m 889 835 l 604 835 q 584 842 591 835 q 576 863 576 850 l 576 945 q 584 965 576 958 q 604 972 591 972 l 889 972 q 909 965 902 972 q 917 945 917 958 l 917 863 q 909 842 917 850 q 889 835 902 835 m 125 138 l 410 138 q 430 130 422 138 q 437 110 437 123 l 437 28 q 430 7 437 15 q 410 0 422 0 l 125 0 q 104 7 112 0 q 97 28 97 15 l 97 110 q 104 130 97 123 q 125 138 112 138 z "},"":{"ha":1014,"x_min":97,"x_max":917,"o":"m 576 1111 l 576 1194 q 584 1215 576 1207 q 604 1222 591 1222 l 688 1222 q 708 1215 701 1222 q 715 1194 715 1207 l 715 1111 q 708 1090 715 1098 q 688 1083 701 1083 l 604 1083 q 584 1090 591 1083 q 576 1111 576 1098 m 326 1222 l 410 1222 q 430 1215 422 1222 q 437 1194 437 1207 l 437 1111 q 430 1090 437 1098 q 410 1083 422 1083 l 326 1083 q 306 1090 313 1083 q 298 1111 298 1098 l 298 1194 q 306 1215 298 1207 q 326 1222 313 1222 m 437 203 l 437 771 q 418 816 437 797 q 374 835 399 835 l 125 835 q 104 842 112 835 q 97 863 97 850 l 97 945 q 104 965 97 958 q 125 972 112 972 l 372 972 q 407 946 401 972 l 431 861 q 464 828 437 834 l 550 804 q 576 770 576 798 l 576 201 q 595 157 576 176 q 640 138 614 138 l 889 138 q 909 130 902 138 q 917 110 917 123 l 917 28 q 909 7 917 15 q 889 0 902 0 l 642 0 q 607 26 613 0 l 583 111 q 550 144 577 138 l 464 168 q 437 203 437 174 m 889 835 l 604 835 q 584 842 591 835 q 576 863 576 850 l 576 945 q 584 965 576 958 q 604 972 591 972 l 889 972 q 909 965 902 972 q 917 945 917 958 l 917 863 q 909 842 917 850 q 889 835 902 835 m 125 138 l 410 138 q 430 130 422 138 q 437 110 437 123 l 437 28 q 430 7 437 15 q 410 0 422 0 l 125 0 q 104 7 112 0 q 97 28 97 15 l 97 110 q 104 130 97 123 q 125 138 112 138 z "},"":{"ha":1014,"x_min":56,"x_max":917,"o":"m 189 28 l 189 353 q 214 387 189 381 l 300 411 q 334 444 328 418 l 357 529 q 392 555 363 555 l 612 555 q 633 548 625 555 q 640 528 640 541 l 640 446 q 633 425 640 433 q 612 418 625 418 l 390 418 q 345 399 364 418 q 326 354 326 380 l 326 167 q 334 146 326 154 q 354 139 341 139 l 715 139 q 761 157 742 139 q 779 201 779 175 l 779 770 q 760 814 779 795 q 715 833 741 833 l 354 833 q 334 826 341 833 q 326 806 326 819 l 326 621 q 300 586 326 592 l 214 562 q 180 529 186 556 l 157 444 q 122 418 151 418 l 83 418 q 63 425 71 418 q 56 446 56 433 l 56 528 q 63 548 56 541 q 83 555 71 555 l 123 555 q 170 574 150 555 q 189 619 189 593 l 189 945 q 196 965 189 958 q 216 972 203 972 l 714 972 q 749 946 743 972 l 772 860 q 806 827 779 833 l 890 803 q 917 768 917 797 l 917 203 q 890 168 917 174 l 806 146 q 772 113 779 140 l 749 26 q 714 0 743 0 l 216 0 q 196 7 203 0 q 189 28 189 15 z "},"":{"ha":1014,"x_min":97,"x_max":917,"o":"m 368 1194 l 368 1111 q 361 1090 368 1098 q 340 1083 353 1083 l 257 1083 q 237 1090 244 1083 q 229 1111 229 1098 l 229 1194 q 237 1215 229 1207 q 257 1222 244 1222 l 306 1222 q 350 1241 332 1222 q 368 1286 368 1259 l 368 1333 q 376 1354 368 1346 q 396 1361 383 1361 l 479 1361 q 500 1354 492 1361 q 507 1333 507 1346 l 507 1286 q 525 1241 507 1259 q 570 1222 543 1222 l 583 1222 q 628 1241 610 1222 q 646 1286 646 1259 l 646 1333 q 653 1354 646 1346 q 673 1361 661 1361 l 757 1361 q 777 1354 770 1361 q 785 1333 785 1346 l 785 1250 q 777 1230 785 1237 q 757 1222 770 1222 l 673 1222 q 653 1215 661 1222 q 646 1194 646 1207 l 646 1111 q 638 1090 646 1098 q 618 1083 631 1083 l 534 1083 q 514 1090 522 1083 q 507 1111 507 1098 l 507 1194 q 500 1215 507 1207 q 479 1222 492 1222 l 396 1222 q 376 1215 383 1222 q 368 1194 368 1207 m 917 351 l 917 28 q 909 7 917 15 q 889 0 902 0 l 807 0 q 787 7 794 0 q 779 28 779 15 l 779 353 q 760 397 779 378 q 715 416 741 416 l 642 416 q 607 443 613 416 l 583 529 q 550 562 577 556 l 465 586 q 439 621 439 592 l 439 770 q 420 814 439 795 q 375 833 401 833 l 262 833 q 242 826 250 833 q 235 806 235 819 l 235 28 q 227 7 235 15 q 207 0 220 0 l 125 0 q 104 7 112 0 q 97 28 97 15 l 97 945 q 104 965 97 958 q 125 972 112 972 l 374 972 q 408 946 402 972 l 432 860 q 465 827 438 833 l 550 803 q 576 768 576 797 l 576 619 q 595 574 576 593 q 640 555 614 555 l 714 555 q 749 529 743 555 l 772 443 q 806 410 779 416 l 890 386 q 917 351 917 380 m 779 583 l 779 945 q 787 965 779 958 q 807 972 794 972 l 889 972 q 909 965 902 972 q 917 945 917 958 l 917 583 q 909 563 917 570 q 889 555 902 555 l 807 555 q 787 563 794 555 q 779 583 779 570 z "},"":{"ha":1014,"x_min":97,"x_max":917,"o":"m 368 1250 l 368 1333 q 376 1354 368 1346 q 396 1361 383 1361 l 479 1361 q 500 1354 492 1361 q 507 1333 507 1346 l 507 1286 q 525 1241 507 1259 q 570 1222 543 1222 l 618 1222 q 638 1215 631 1222 q 646 1194 646 1207 l 646 1111 q 638 1090 646 1098 q 618 1083 631 1083 l 534 1083 q 514 1090 522 1083 q 507 1111 507 1098 l 507 1194 q 500 1215 507 1207 q 479 1222 492 1222 l 396 1222 q 376 1230 383 1222 q 368 1250 368 1237 m 711 0 l 300 0 q 265 26 271 0 l 241 113 q 208 146 235 140 l 123 168 q 97 203 97 174 l 97 768 q 123 803 97 797 l 208 827 q 241 860 235 833 l 265 946 q 300 972 271 972 l 711 972 q 746 946 740 972 l 770 860 q 803 827 776 833 l 890 803 q 917 768 917 797 l 917 203 q 890 168 917 174 l 803 146 q 770 113 776 140 l 746 26 q 711 0 740 0 m 715 833 l 298 833 q 254 814 273 833 q 235 770 235 795 l 235 201 q 253 157 235 175 q 298 139 272 139 l 715 139 q 761 157 742 139 q 779 201 779 175 l 779 770 q 760 814 779 795 q 715 833 741 833 z "},"":{"ha":1014,"x_min":97,"x_max":917,"o":"m 646 1333 l 646 1250 q 638 1230 646 1237 q 618 1222 631 1222 l 534 1222 q 514 1215 522 1222 q 507 1194 507 1207 l 507 1111 q 500 1090 507 1098 q 479 1083 492 1083 l 396 1083 q 376 1090 383 1083 q 368 1111 368 1098 l 368 1194 q 376 1215 368 1207 q 396 1222 383 1222 l 444 1222 q 489 1241 471 1222 q 507 1286 507 1259 l 507 1333 q 514 1354 507 1346 q 534 1361 522 1361 l 618 1361 q 638 1354 631 1361 q 646 1333 646 1346 m 711 0 l 300 0 q 265 26 271 0 l 241 113 q 208 146 235 140 l 123 168 q 97 203 97 174 l 97 768 q 123 803 97 797 l 208 827 q 241 860 235 833 l 265 946 q 300 972 271 972 l 711 972 q 746 946 740 972 l 770 860 q 803 827 776 833 l 890 803 q 917 768 917 797 l 917 203 q 890 168 917 174 l 803 146 q 770 113 776 140 l 746 26 q 711 0 740 0 m 715 833 l 298 833 q 254 814 273 833 q 235 770 235 795 l 235 201 q 253 157 235 175 q 298 139 272 139 l 715 139 q 761 157 742 139 q 779 201 779 175 l 779 770 q 760 814 779 795 q 715 833 741 833 z "},"":{"ha":1014,"x_min":97,"x_max":917,"o":"m 410 1083 l 326 1083 q 306 1090 313 1083 q 298 1111 298 1098 l 298 1194 q 306 1215 298 1207 q 326 1222 313 1222 l 375 1222 q 419 1241 401 1222 q 437 1286 437 1259 l 437 1333 q 445 1354 437 1346 q 465 1361 452 1361 l 549 1361 q 569 1354 562 1361 q 576 1333 576 1346 l 576 1286 q 594 1241 576 1259 q 639 1222 612 1222 l 688 1222 q 708 1215 701 1222 q 715 1194 715 1207 l 715 1111 q 708 1090 715 1098 q 688 1083 701 1083 l 604 1083 q 584 1090 591 1083 q 576 1111 576 1098 l 576 1194 q 569 1215 576 1207 q 549 1222 562 1222 l 465 1222 q 445 1215 452 1222 q 437 1194 437 1207 l 437 1111 q 430 1090 437 1098 q 410 1083 422 1083 m 711 0 l 300 0 q 265 26 271 0 l 241 113 q 208 146 235 140 l 123 168 q 97 203 97 174 l 97 768 q 123 803 97 797 l 208 827 q 241 860 235 833 l 265 946 q 300 972 271 972 l 711 972 q 746 946 740 972 l 770 860 q 803 827 776 833 l 890 803 q 917 768 917 797 l 917 203 q 890 168 917 174 l 803 146 q 770 113 776 140 l 746 26 q 711 0 740 0 m 715 833 l 298 833 q 254 814 273 833 q 235 770 235 795 l 235 201 q 253 157 235 175 q 298 139 272 139 l 715 139 q 761 157 742 139 q 779 201 779 175 l 779 770 q 760 814 779 795 q 715 833 741 833 z "},"":{"ha":1014,"x_min":97,"x_max":917,"o":"m 368 1194 l 368 1111 q 361 1090 368 1098 q 340 1083 353 1083 l 257 1083 q 237 1090 244 1083 q 229 1111 229 1098 l 229 1194 q 237 1215 229 1207 q 257 1222 244 1222 l 306 1222 q 350 1241 332 1222 q 368 1286 368 1259 l 368 1333 q 376 1354 368 1346 q 396 1361 383 1361 l 479 1361 q 500 1354 492 1361 q 507 1333 507 1346 l 507 1286 q 525 1241 507 1259 q 570 1222 543 1222 l 583 1222 q 628 1241 610 1222 q 646 1286 646 1259 l 646 1333 q 653 1354 646 1346 q 673 1361 661 1361 l 757 1361 q 777 1354 770 1361 q 785 1333 785 1346 l 785 1250 q 777 1230 785 1237 q 757 1222 770 1222 l 673 1222 q 653 1215 661 1222 q 646 1194 646 1207 l 646 1111 q 638 1090 646 1098 q 618 1083 631 1083 l 534 1083 q 514 1090 522 1083 q 507 1111 507 1098 l 507 1194 q 500 1215 507 1207 q 479 1222 492 1222 l 396 1222 q 376 1215 383 1222 q 368 1194 368 1207 m 711 0 l 300 0 q 265 26 271 0 l 241 113 q 208 146 235 140 l 123 168 q 97 203 97 174 l 97 768 q 123 803 97 797 l 208 827 q 241 860 235 833 l 265 946 q 300 972 271 972 l 711 972 q 746 946 740 972 l 770 860 q 803 827 776 833 l 890 803 q 917 768 917 797 l 917 203 q 890 168 917 174 l 803 146 q 770 113 776 140 l 746 26 q 711 0 740 0 m 715 833 l 298 833 q 254 814 273 833 q 235 770 235 795 l 235 201 q 253 157 235 175 q 298 139 272 139 l 715 139 q 761 157 742 139 q 779 201 779 175 l 779 770 q 760 814 779 795 q 715 833 741 833 z "},"":{"ha":1014,"x_min":97,"x_max":917,"o":"m 576 1111 l 576 1194 q 584 1215 576 1207 q 604 1222 591 1222 l 688 1222 q 708 1215 701 1222 q 715 1194 715 1207 l 715 1111 q 708 1090 715 1098 q 688 1083 701 1083 l 604 1083 q 584 1090 591 1083 q 576 1111 576 1098 m 326 1222 l 410 1222 q 430 1215 422 1222 q 437 1194 437 1207 l 437 1111 q 430 1090 437 1098 q 410 1083 422 1083 l 326 1083 q 306 1090 313 1083 q 298 1111 298 1098 l 298 1194 q 306 1215 298 1207 q 326 1222 313 1222 m 711 0 l 300 0 q 265 26 271 0 l 241 113 q 208 146 235 140 l 123 168 q 97 203 97 174 l 97 768 q 123 803 97 797 l 208 827 q 241 860 235 833 l 265 946 q 300 972 271 972 l 711 972 q 746 946 740 972 l 770 860 q 803 827 776 833 l 890 803 q 917 768 917 797 l 917 203 q 890 168 917 174 l 803 146 q 770 113 776 140 l 746 26 q 711 0 740 0 m 715 833 l 298 833 q 254 814 273 833 q 235 770 235 795 l 235 201 q 253 157 235 175 q 298 139 272 139 l 715 139 q 761 157 742 139 q 779 201 779 175 l 779 770 q 760 814 779 795 q 715 833 741 833 z "},"":{"ha":1014,"x_min":264,"x_max":750,"o":"m 684 722 l 742 663 q 750 643 750 652 q 742 624 750 632 l 652 532 q 627 521 641 521 q 610 525 618 521 l 530 571 q 507 578 519 578 q 484 571 495 578 l 404 526 q 387 522 396 522 q 363 533 374 522 l 272 625 q 264 644 264 635 q 272 664 264 656 l 329 722 q 350 732 336 732 q 370 722 362 732 l 461 629 q 505 611 479 611 q 551 629 533 611 l 644 722 q 664 730 652 730 q 684 722 675 730 m 330 252 l 272 311 q 264 330 264 321 q 272 350 264 342 l 363 441 q 387 453 374 453 q 404 449 396 453 l 484 403 q 507 397 494 397 q 530 403 522 397 l 610 447 q 627 452 619 452 q 652 440 640 452 l 742 349 q 750 329 750 340 q 742 310 750 320 l 685 252 q 665 241 675 241 q 644 252 654 241 l 553 345 q 509 364 535 364 q 463 345 482 364 l 370 252 q 350 243 361 243 q 330 252 339 243 z "},"":{"ha":1014,"x_min":97,"x_max":917,"o":"m 207 418 l 125 418 q 104 425 112 418 q 97 446 97 433 l 97 768 q 123 803 97 797 l 208 827 q 241 860 235 833 l 265 946 q 300 972 271 972 l 682 972 q 703 965 695 972 q 710 945 710 958 l 710 861 q 703 841 710 848 q 682 833 695 833 l 298 833 q 254 814 273 833 q 235 770 235 795 l 235 446 q 227 425 235 433 q 207 418 220 418 m 559 416 l 476 416 q 431 398 450 416 q 412 354 412 380 l 412 307 q 405 287 412 294 q 385 279 397 279 l 301 279 q 254 261 273 279 q 235 216 235 243 l 235 28 q 227 7 235 15 q 207 0 220 0 l 125 0 q 104 7 112 0 q 97 28 97 15 l 97 215 q 123 250 97 244 l 211 272 q 244 306 237 278 l 268 392 q 302 418 274 418 l 385 418 q 419 444 413 418 l 424 460 q 427 486 427 468 l 427 528 q 434 548 427 541 q 454 555 441 555 l 538 555 q 583 574 564 555 q 602 618 602 592 l 602 665 q 609 686 602 678 q 629 693 616 693 l 713 693 q 760 711 741 693 q 779 755 779 728 l 779 945 q 787 965 779 958 q 807 972 794 972 l 889 972 q 909 965 902 972 q 917 945 917 958 l 917 757 q 890 722 917 728 l 803 700 q 770 667 776 694 l 746 581 q 711 554 740 554 l 629 554 q 595 528 601 554 l 590 513 q 587 486 587 505 l 587 444 q 580 424 587 431 q 559 416 572 416 m 304 28 l 304 111 q 312 132 304 124 q 332 139 319 139 l 715 139 q 761 157 742 139 q 779 201 779 175 l 779 526 q 787 547 779 539 q 807 554 794 554 l 889 554 q 909 547 902 554 q 917 526 917 539 l 917 203 q 890 168 917 174 l 803 146 q 770 113 776 140 l 746 26 q 711 0 740 0 l 332 0 q 312 7 319 0 q 304 28 304 15 z "},"":{"ha":1014,"x_min":97,"x_max":917,"o":"m 368 1250 l 368 1333 q 376 1354 368 1346 q 396 1361 383 1361 l 479 1361 q 500 1354 492 1361 q 507 1333 507 1346 l 507 1286 q 525 1241 507 1259 q 570 1222 543 1222 l 618 1222 q 638 1215 631 1222 q 646 1194 646 1207 l 646 1111 q 638 1090 646 1098 q 618 1083 631 1083 l 534 1083 q 514 1090 522 1083 q 507 1111 507 1098 l 507 1194 q 500 1215 507 1207 q 479 1222 492 1222 l 396 1222 q 376 1230 383 1222 q 368 1250 368 1237 m 125 972 l 207 972 q 227 965 220 972 q 235 945 235 958 l 235 201 q 253 157 235 175 q 298 139 272 139 l 715 139 q 761 157 742 139 q 779 201 779 175 l 779 945 q 787 965 779 958 q 807 972 794 972 l 889 972 q 909 965 902 972 q 917 945 917 958 l 917 203 q 890 168 917 174 l 803 146 q 770 113 776 140 l 746 26 q 711 0 740 0 l 300 0 q 265 26 271 0 l 241 113 q 208 146 235 140 l 123 168 q 97 203 97 174 l 97 945 q 104 965 97 958 q 125 972 112 972 z "},"":{"ha":1014,"x_min":97,"x_max":917,"o":"m 646 1333 l 646 1250 q 638 1230 646 1237 q 618 1222 631 1222 l 534 1222 q 514 1215 522 1222 q 507 1194 507 1207 l 507 1111 q 500 1090 507 1098 q 479 1083 492 1083 l 396 1083 q 376 1090 383 1083 q 368 1111 368 1098 l 368 1194 q 376 1215 368 1207 q 396 1222 383 1222 l 444 1222 q 489 1241 471 1222 q 507 1286 507 1259 l 507 1333 q 514 1354 507 1346 q 534 1361 522 1361 l 618 1361 q 638 1354 631 1361 q 646 1333 646 1346 m 125 972 l 207 972 q 227 965 220 972 q 235 945 235 958 l 235 201 q 253 157 235 175 q 298 139 272 139 l 715 139 q 761 157 742 139 q 779 201 779 175 l 779 945 q 787 965 779 958 q 807 972 794 972 l 889 972 q 909 965 902 972 q 917 945 917 958 l 917 203 q 890 168 917 174 l 803 146 q 770 113 776 140 l 746 26 q 711 0 740 0 l 300 0 q 265 26 271 0 l 241 113 q 208 146 235 140 l 123 168 q 97 203 97 174 l 97 945 q 104 965 97 958 q 125 972 112 972 z "},"":{"ha":1014,"x_min":97,"x_max":917,"o":"m 410 1083 l 326 1083 q 306 1090 313 1083 q 298 1111 298 1098 l 298 1194 q 306 1215 298 1207 q 326 1222 313 1222 l 375 1222 q 419 1241 401 1222 q 437 1286 437 1259 l 437 1333 q 445 1354 437 1346 q 465 1361 452 1361 l 549 1361 q 569 1354 562 1361 q 576 1333 576 1346 l 576 1286 q 594 1241 576 1259 q 639 1222 612 1222 l 688 1222 q 708 1215 701 1222 q 715 1194 715 1207 l 715 1111 q 708 1090 715 1098 q 688 1083 701 1083 l 604 1083 q 584 1090 591 1083 q 576 1111 576 1098 l 576 1194 q 569 1215 576 1207 q 549 1222 562 1222 l 465 1222 q 445 1215 452 1222 q 437 1194 437 1207 l 437 1111 q 430 1090 437 1098 q 410 1083 422 1083 m 125 972 l 207 972 q 227 965 220 972 q 235 945 235 958 l 235 201 q 253 157 235 175 q 298 139 272 139 l 715 139 q 761 157 742 139 q 779 201 779 175 l 779 945 q 787 965 779 958 q 807 972 794 972 l 889 972 q 909 965 902 972 q 917 945 917 958 l 917 203 q 890 168 917 174 l 803 146 q 770 113 776 140 l 746 26 q 711 0 740 0 l 300 0 q 265 26 271 0 l 241 113 q 208 146 235 140 l 123 168 q 97 203 97 174 l 97 945 q 104 965 97 958 q 125 972 112 972 z "},"":{"ha":1014,"x_min":97,"x_max":917,"o":"m 576 1111 l 576 1194 q 584 1215 576 1207 q 604 1222 591 1222 l 688 1222 q 708 1215 701 1222 q 715 1194 715 1207 l 715 1111 q 708 1090 715 1098 q 688 1083 701 1083 l 604 1083 q 584 1090 591 1083 q 576 1111 576 1098 m 326 1222 l 410 1222 q 430 1215 422 1222 q 437 1194 437 1207 l 437 1111 q 430 1090 437 1098 q 410 1083 422 1083 l 326 1083 q 306 1090 313 1083 q 298 1111 298 1098 l 298 1194 q 306 1215 298 1207 q 326 1222 313 1222 m 125 972 l 207 972 q 227 965 220 972 q 235 945 235 958 l 235 201 q 253 157 235 175 q 298 139 272 139 l 715 139 q 761 157 742 139 q 779 201 779 175 l 779 945 q 787 965 779 958 q 807 972 794 972 l 889 972 q 909 965 902 972 q 917 945 917 958 l 917 203 q 890 168 917 174 l 803 146 q 770 113 776 140 l 746 26 q 711 0 740 0 l 300 0 q 265 26 271 0 l 241 113 q 208 146 235 140 l 123 168 q 97 203 97 174 l 97 945 q 104 965 97 958 q 125 972 112 972 z "},"":{"ha":1014,"x_min":97,"x_max":917,"o":"m 646 1333 l 646 1250 q 638 1230 646 1237 q 618 1222 631 1222 l 534 1222 q 514 1215 522 1222 q 507 1194 507 1207 l 507 1111 q 500 1090 507 1098 q 479 1083 492 1083 l 396 1083 q 376 1090 383 1083 q 368 1111 368 1098 l 368 1194 q 376 1215 368 1207 q 396 1222 383 1222 l 444 1222 q 489 1241 471 1222 q 507 1286 507 1259 l 507 1333 q 514 1354 507 1346 q 534 1361 522 1361 l 618 1361 q 638 1354 631 1361 q 646 1333 646 1346 m 411 416 l 302 416 q 268 443 274 416 l 244 529 q 211 562 238 556 l 123 585 q 97 619 97 591 l 97 945 q 104 965 97 958 q 125 972 112 972 l 207 972 q 227 965 220 972 q 235 945 235 958 l 235 616 q 254 572 235 589 q 301 554 273 554 l 411 554 q 431 547 424 554 q 439 526 439 539 l 439 479 q 458 435 439 454 q 503 416 477 416 l 513 416 q 558 435 539 416 q 576 479 576 453 l 576 526 q 584 547 576 539 q 604 554 591 554 l 713 554 q 760 572 741 554 q 779 616 779 589 l 779 945 q 787 965 779 958 q 807 972 794 972 l 889 972 q 909 965 902 972 q 917 945 917 958 l 917 619 q 890 585 917 591 l 803 562 q 770 529 776 556 l 746 443 q 711 416 740 416 l 604 416 q 584 409 591 416 q 576 389 576 401 l 576 28 q 569 7 576 15 q 549 0 562 0 l 467 0 q 446 7 454 0 q 439 28 439 15 l 439 389 q 431 409 439 401 q 411 416 424 416 z "},"":{"ha":1014,"x_min":97,"x_max":917,"o":"m 779 770 l 779 653 q 772 633 779 640 q 751 625 764 625 l 669 625 q 649 633 656 625 q 642 653 642 640 l 642 771 q 623 815 642 798 q 578 833 604 833 l 298 833 q 253 815 272 833 q 235 771 235 798 l 235 28 q 227 7 235 15 q 207 0 220 0 l 125 0 q 104 7 112 0 q 97 28 97 15 l 97 770 q 123 804 97 798 l 208 827 q 241 860 235 833 l 265 946 q 300 972 271 972 l 576 972 q 611 946 605 972 l 635 860 q 668 827 641 833 l 753 804 q 779 770 779 798 m 917 204 q 890 170 917 176 l 806 146 q 772 113 779 140 l 749 26 q 714 0 743 0 l 401 0 q 381 7 389 0 q 374 28 374 15 l 374 111 q 381 132 374 124 q 401 139 389 139 l 715 139 q 760 158 741 139 q 779 203 779 177 l 779 353 q 760 397 779 378 q 715 416 741 416 l 401 416 q 381 424 389 416 q 374 444 374 431 l 374 528 q 381 548 374 541 q 401 555 389 555 l 714 555 q 749 529 743 555 l 772 443 q 806 410 779 416 l 890 386 q 917 351 917 380 l 917 204 z "},"":{"ha":1014,"x_min":97,"x_max":917,"o":"m 368 1042 l 368 1125 q 376 1145 368 1138 q 396 1153 383 1153 l 479 1153 q 500 1145 492 1153 q 507 1125 507 1138 l 507 1078 q 525 1033 507 1051 q 570 1014 543 1014 l 618 1014 q 638 1006 631 1014 q 646 986 646 999 l 646 903 q 638 882 646 890 q 618 875 631 875 l 534 875 q 514 882 522 875 q 507 903 507 890 l 507 986 q 500 1006 507 999 q 479 1014 492 1014 l 396 1014 q 376 1021 383 1014 q 368 1042 368 1029 m 917 559 l 917 479 q 909 459 917 467 q 889 452 902 452 l 807 452 q 787 459 794 452 q 779 479 779 467 l 779 561 q 760 606 779 587 q 715 625 741 625 l 298 625 q 254 606 273 625 q 235 561 235 587 l 235 518 q 227 498 235 505 q 207 490 220 490 l 125 490 q 104 498 112 490 q 97 518 97 505 l 97 559 q 123 595 97 589 l 211 618 q 244 652 237 624 l 268 737 q 302 764 274 764 l 714 764 q 749 737 743 764 l 772 652 q 806 618 779 624 l 890 595 q 917 559 917 589 m 917 248 l 917 28 q 909 7 917 15 q 889 0 902 0 l 300 0 q 265 26 271 0 l 241 113 q 208 146 235 140 l 123 168 q 97 203 97 174 l 97 285 q 104 305 97 298 q 125 313 112 313 l 199 313 q 233 339 227 313 l 258 427 q 293 452 264 452 l 714 452 q 749 425 743 452 l 772 339 q 806 306 779 312 l 890 282 q 917 248 917 276 m 298 139 l 751 139 q 772 146 764 139 q 779 167 779 154 l 779 249 q 760 294 779 275 q 715 313 741 313 l 298 313 q 254 294 273 313 q 235 250 235 275 l 235 201 q 253 157 235 175 q 298 139 272 139 z "},"":{"ha":1014,"x_min":97,"x_max":917,"o":"m 646 1125 l 646 1042 q 638 1021 646 1029 q 618 1014 631 1014 l 534 1014 q 514 1006 522 1014 q 507 986 507 999 l 507 903 q 500 882 507 890 q 479 875 492 875 l 396 875 q 376 882 383 875 q 368 903 368 890 l 368 986 q 376 1006 368 999 q 396 1014 383 1014 l 444 1014 q 489 1033 471 1014 q 507 1078 507 1051 l 507 1125 q 514 1145 507 1138 q 534 1153 522 1153 l 618 1153 q 638 1145 631 1153 q 646 1125 646 1138 m 917 559 l 917 479 q 909 459 917 467 q 889 452 902 452 l 807 452 q 787 459 794 452 q 779 479 779 467 l 779 561 q 760 606 779 587 q 715 625 741 625 l 298 625 q 254 606 273 625 q 235 561 235 587 l 235 518 q 227 498 235 505 q 207 490 220 490 l 125 490 q 104 498 112 490 q 97 518 97 505 l 97 559 q 123 595 97 589 l 211 618 q 244 652 237 624 l 268 737 q 302 764 274 764 l 714 764 q 749 737 743 764 l 772 652 q 806 618 779 624 l 890 595 q 917 559 917 589 m 917 248 l 917 28 q 909 7 917 15 q 889 0 902 0 l 300 0 q 265 26 271 0 l 241 113 q 208 146 235 140 l 123 168 q 97 203 97 174 l 97 285 q 104 305 97 298 q 125 313 112 313 l 199 313 q 233 339 227 313 l 258 427 q 293 452 264 452 l 714 452 q 749 425 743 452 l 772 339 q 806 306 779 312 l 890 282 q 917 248 917 276 m 298 139 l 751 139 q 772 146 764 139 q 779 167 779 154 l 779 249 q 760 294 779 275 q 715 313 741 313 l 298 313 q 254 294 273 313 q 235 250 235 275 l 235 201 q 253 157 235 175 q 298 139 272 139 z "},"":{"ha":1014,"x_min":97,"x_max":917,"o":"m 410 875 l 326 875 q 306 882 313 875 q 298 903 298 890 l 298 986 q 306 1006 298 999 q 326 1014 313 1014 l 375 1014 q 419 1033 401 1014 q 437 1078 437 1051 l 437 1125 q 445 1145 437 1138 q 465 1153 452 1153 l 549 1153 q 569 1145 562 1153 q 576 1125 576 1138 l 576 1078 q 594 1033 576 1051 q 639 1014 612 1014 l 688 1014 q 708 1006 701 1014 q 715 986 715 999 l 715 903 q 708 882 715 890 q 688 875 701 875 l 604 875 q 584 882 591 875 q 576 903 576 890 l 576 986 q 569 1006 576 999 q 549 1014 562 1014 l 465 1014 q 445 1006 452 1014 q 437 986 437 999 l 437 903 q 430 882 437 890 q 410 875 422 875 m 917 559 l 917 479 q 909 459 917 467 q 889 452 902 452 l 807 452 q 787 459 794 452 q 779 479 779 467 l 779 561 q 760 606 779 587 q 715 625 741 625 l 298 625 q 254 606 273 625 q 235 561 235 587 l 235 518 q 227 498 235 505 q 207 490 220 490 l 125 490 q 104 498 112 490 q 97 518 97 505 l 97 559 q 123 595 97 589 l 211 618 q 244 652 237 624 l 268 737 q 302 764 274 764 l 714 764 q 749 737 743 764 l 772 652 q 806 618 779 624 l 890 595 q 917 559 917 589 m 917 248 l 917 28 q 909 7 917 15 q 889 0 902 0 l 300 0 q 265 26 271 0 l 241 113 q 208 146 235 140 l 123 168 q 97 203 97 174 l 97 285 q 104 305 97 298 q 125 313 112 313 l 199 313 q 233 339 227 313 l 258 427 q 293 452 264 452 l 714 452 q 749 425 743 452 l 772 339 q 806 306 779 312 l 890 282 q 917 248 917 276 m 298 139 l 751 139 q 772 146 764 139 q 779 167 779 154 l 779 249 q 760 294 779 275 q 715 313 741 313 l 298 313 q 254 294 273 313 q 235 250 235 275 l 235 201 q 253 157 235 175 q 298 139 272 139 z "},"":{"ha":1014,"x_min":97,"x_max":917,"o":"m 368 986 l 368 903 q 361 882 368 890 q 340 875 353 875 l 257 875 q 237 882 244 875 q 229 903 229 890 l 229 986 q 237 1006 229 999 q 257 1014 244 1014 l 306 1014 q 350 1033 332 1014 q 368 1078 368 1051 l 368 1125 q 376 1145 368 1138 q 396 1153 383 1153 l 479 1153 q 500 1145 492 1153 q 507 1125 507 1138 l 507 1078 q 525 1033 507 1051 q 570 1014 543 1014 l 583 1014 q 628 1033 610 1014 q 646 1078 646 1051 l 646 1125 q 653 1145 646 1138 q 673 1153 661 1153 l 757 1153 q 777 1145 770 1153 q 785 1125 785 1138 l 785 1042 q 777 1021 785 1029 q 757 1014 770 1014 l 673 1014 q 653 1006 661 1014 q 646 986 646 999 l 646 903 q 638 882 646 890 q 618 875 631 875 l 534 875 q 514 882 522 875 q 507 903 507 890 l 507 986 q 500 1006 507 999 q 479 1014 492 1014 l 396 1014 q 376 1006 383 1014 q 368 986 368 999 m 917 559 l 917 479 q 909 459 917 467 q 889 452 902 452 l 807 452 q 787 459 794 452 q 779 479 779 467 l 779 561 q 760 606 779 587 q 715 625 741 625 l 298 625 q 254 606 273 625 q 235 561 235 587 l 235 518 q 227 498 235 505 q 207 490 220 490 l 125 490 q 104 498 112 490 q 97 518 97 505 l 97 559 q 123 595 97 589 l 211 618 q 244 652 237 624 l 268 737 q 302 764 274 764 l 714 764 q 749 737 743 764 l 772 652 q 806 618 779 624 l 890 595 q 917 559 917 589 m 917 248 l 917 28 q 909 7 917 15 q 889 0 902 0 l 300 0 q 265 26 271 0 l 241 113 q 208 146 235 140 l 123 168 q 97 203 97 174 l 97 285 q 104 305 97 298 q 125 313 112 313 l 199 313 q 233 339 227 313 l 258 427 q 293 452 264 452 l 714 452 q 749 425 743 452 l 772 339 q 806 306 779 312 l 890 282 q 917 248 917 276 m 298 139 l 751 139 q 772 146 764 139 q 779 167 779 154 l 779 249 q 760 294 779 275 q 715 313 741 313 l 298 313 q 254 294 273 313 q 235 250 235 275 l 235 201 q 253 157 235 175 q 298 139 272 139 z "},"":{"ha":1014,"x_min":97,"x_max":917,"o":"m 576 903 l 576 986 q 584 1006 576 999 q 604 1014 591 1014 l 688 1014 q 708 1006 701 1014 q 715 986 715 999 l 715 903 q 708 882 715 890 q 688 875 701 875 l 604 875 q 584 882 591 875 q 576 903 576 890 m 326 1014 l 410 1014 q 430 1006 422 1014 q 437 986 437 999 l 437 903 q 430 882 437 890 q 410 875 422 875 l 326 875 q 306 882 313 875 q 298 903 298 890 l 298 986 q 306 1006 298 999 q 326 1014 313 1014 m 917 559 l 917 479 q 909 459 917 467 q 889 452 902 452 l 807 452 q 787 459 794 452 q 779 479 779 467 l 779 561 q 760 606 779 587 q 715 625 741 625 l 298 625 q 254 606 273 625 q 235 561 235 587 l 235 518 q 227 498 235 505 q 207 490 220 490 l 125 490 q 104 498 112 490 q 97 518 97 505 l 97 559 q 123 595 97 589 l 211 618 q 244 652 237 624 l 268 737 q 302 764 274 764 l 714 764 q 749 737 743 764 l 772 652 q 806 618 779 624 l 890 595 q 917 559 917 589 m 917 248 l 917 28 q 909 7 917 15 q 889 0 902 0 l 300 0 q 265 26 271 0 l 241 113 q 208 146 235 140 l 123 168 q 97 203 97 174 l 97 285 q 104 305 97 298 q 125 313 112 313 l 199 313 q 233 339 227 313 l 258 427 q 293 452 264 452 l 714 452 q 749 425 743 452 l 772 339 q 806 306 779 312 l 890 282 q 917 248 917 276 m 298 139 l 751 139 q 772 146 764 139 q 779 167 779 154 l 779 249 q 760 294 779 275 q 715 313 741 313 l 298 313 q 254 294 273 313 q 235 250 235 275 l 235 201 q 253 157 235 175 q 298 139 272 139 z "},"":{"ha":1014,"x_min":97,"x_max":917,"o":"m 517 806 l 494 806 q 460 832 466 806 l 436 918 q 403 951 430 945 l 318 974 q 292 1008 292 980 l 292 1034 q 318 1068 292 1062 l 403 1092 q 436 1125 430 1098 l 460 1211 q 494 1238 466 1238 l 517 1238 q 551 1211 545 1238 l 575 1125 q 608 1092 581 1098 l 696 1068 q 722 1034 722 1062 l 722 1008 q 696 974 722 980 l 608 951 q 575 918 581 945 l 551 832 q 517 806 545 806 m 521 1099 l 493 1099 q 448 1080 467 1099 q 429 1035 429 1061 l 429 1007 q 448 963 429 981 q 493 945 467 945 l 521 945 q 566 963 547 945 q 585 1007 585 981 l 585 1035 q 566 1080 585 1061 q 521 1099 547 1099 m 917 559 l 917 479 q 909 459 917 467 q 889 452 902 452 l 807 452 q 787 459 794 452 q 779 479 779 467 l 779 561 q 760 606 779 587 q 715 625 741 625 l 298 625 q 254 606 273 625 q 235 561 235 587 l 235 518 q 227 498 235 505 q 207 490 220 490 l 125 490 q 104 498 112 490 q 97 518 97 505 l 97 559 q 123 595 97 589 l 211 618 q 244 652 237 624 l 268 737 q 302 764 274 764 l 714 764 q 749 737 743 764 l 772 652 q 806 618 779 624 l 890 595 q 917 559 917 589 m 917 248 l 917 28 q 909 7 917 15 q 889 0 902 0 l 300 0 q 265 26 271 0 l 241 113 q 208 146 235 140 l 123 168 q 97 203 97 174 l 97 285 q 104 305 97 298 q 125 313 112 313 l 199 313 q 233 339 227 313 l 258 427 q 293 452 264 452 l 714 452 q 749 425 743 452 l 772 339 q 806 306 779 312 l 890 282 q 917 248 917 276 m 298 139 l 751 139 q 772 146 764 139 q 779 167 779 154 l 779 249 q 760 294 779 275 q 715 313 741 313 l 298 313 q 254 294 273 313 q 235 250 235 275 l 235 201 q 253 157 235 175 q 298 139 272 139 z "},"":{"ha":1014,"x_min":97,"x_max":917,"o":"m 606 26 l 582 113 q 569 132 578 124 q 547 139 560 139 l 465 139 q 445 146 452 139 q 437 167 437 154 l 437 597 q 445 618 437 610 q 465 625 452 625 l 547 625 q 569 633 560 625 q 582 652 578 640 l 606 737 q 640 764 612 764 l 714 764 q 749 737 743 764 l 772 652 q 806 618 779 624 l 890 596 q 917 561 917 590 l 917 479 q 909 459 917 467 q 889 452 902 452 l 815 452 q 781 425 787 452 l 755 338 q 721 313 749 313 l 672 313 q 652 320 659 313 q 644 340 644 328 l 644 424 q 652 444 644 437 q 672 452 659 452 l 715 452 q 760 470 741 452 q 779 514 779 489 l 779 562 q 761 607 779 589 q 715 625 742 625 l 639 625 q 594 607 612 625 q 575 562 575 589 l 575 203 q 594 158 575 177 q 639 139 613 139 l 715 139 q 760 158 741 139 q 779 203 779 177 l 779 245 q 787 266 779 258 q 807 273 794 273 l 889 273 q 909 266 902 273 q 917 245 917 258 l 917 204 q 890 170 917 176 l 803 146 q 770 113 776 140 l 746 26 q 711 0 740 0 l 640 0 q 606 26 612 0 m 437 736 l 437 653 q 430 633 437 640 q 410 625 422 625 l 298 625 q 254 606 273 625 q 235 561 235 587 l 235 518 q 227 498 235 505 q 207 490 220 490 l 125 490 q 104 498 112 490 q 97 518 97 505 l 97 559 q 123 595 97 589 l 211 618 q 244 652 237 624 l 268 737 q 302 764 274 764 l 410 764 q 430 756 422 764 q 437 736 437 749 m 437 111 l 437 28 q 430 7 437 15 q 410 0 422 0 l 300 0 q 265 26 271 0 l 241 113 q 208 146 235 140 l 123 168 q 97 203 97 174 l 97 285 q 104 305 97 298 q 125 313 112 313 l 199 313 q 233 339 227 313 l 258 427 q 293 452 264 452 l 340 452 q 361 444 353 452 q 368 424 368 437 l 368 340 q 361 320 368 328 q 340 313 353 313 l 298 313 q 254 294 273 313 q 235 250 235 275 l 235 201 q 253 157 235 175 q 298 139 272 139 l 410 139 q 430 132 422 139 q 437 111 437 124 z "},"":{"ha":1014,"x_min":97,"x_max":917,"o":"m 807 272 l 889 272 q 909 264 902 272 q 917 244 917 257 l 917 203 q 890 168 917 174 l 803 146 q 770 113 776 140 l 746 26 q 711 0 740 0 l 576 0 l 576 -49 q 595 -93 576 -75 q 640 -111 614 -111 l 688 -111 q 708 -119 701 -111 q 715 -139 715 -126 l 715 -222 q 708 -243 715 -235 q 688 -250 701 -250 l 640 -250 q 595 -268 614 -250 q 576 -313 576 -286 l 576 -361 q 569 -381 576 -374 q 549 -389 562 -389 l 465 -389 q 445 -381 452 -389 q 437 -361 437 -374 l 437 -278 q 445 -258 437 -265 q 465 -250 452 -250 l 549 -250 q 569 -243 562 -250 q 576 -222 576 -235 l 576 -139 q 569 -119 576 -126 q 549 -111 562 -111 l 465 -111 q 445 -104 452 -111 q 437 -83 437 -96 l 437 0 l 300 0 q 265 26 271 0 l 241 113 q 208 146 235 140 l 123 168 q 97 203 97 174 l 97 559 q 123 595 97 589 l 208 618 q 241 652 235 624 l 265 737 q 300 764 271 764 l 711 764 q 746 737 740 764 l 770 652 q 803 618 777 624 l 890 595 q 917 559 917 589 l 917 518 q 909 498 917 505 q 889 490 902 490 l 807 490 q 787 498 794 490 q 779 518 779 505 l 779 561 q 760 606 779 587 q 715 625 741 625 l 298 625 q 254 606 273 625 q 235 561 235 587 l 235 201 q 253 157 235 175 q 298 139 272 139 l 715 139 q 761 157 742 139 q 779 201 779 175 l 779 244 q 787 264 779 257 q 807 272 794 272 z "},"":{"ha":1014,"x_min":97,"x_max":917,"o":"m 368 1042 l 368 1125 q 376 1145 368 1138 q 396 1153 383 1153 l 479 1153 q 500 1145 492 1153 q 507 1125 507 1138 l 507 1078 q 525 1033 507 1051 q 570 1014 543 1014 l 618 1014 q 638 1006 631 1014 q 646 986 646 999 l 646 903 q 638 882 646 890 q 618 875 631 875 l 534 875 q 514 882 522 875 q 507 903 507 890 l 507 986 q 500 1006 507 999 q 479 1014 492 1014 l 396 1014 q 376 1021 383 1014 q 368 1042 368 1029 m 304 340 l 304 424 q 312 444 304 437 q 332 452 319 452 l 715 452 q 760 470 741 452 q 779 514 779 489 l 779 562 q 761 607 779 589 q 715 625 742 625 l 298 625 q 253 607 272 625 q 235 562 235 589 l 235 203 q 254 158 235 177 q 298 139 273 139 l 715 139 q 760 158 741 139 q 779 203 779 177 l 779 245 q 787 266 779 258 q 807 273 794 273 l 889 273 q 909 266 902 273 q 917 245 917 258 l 917 204 q 890 170 917 176 l 803 146 q 770 113 776 140 l 746 26 q 711 0 740 0 l 300 0 q 265 26 271 0 l 241 113 q 208 146 235 140 l 123 170 q 97 204 97 176 l 97 561 q 123 596 97 590 l 208 618 q 241 652 235 624 l 265 737 q 300 764 271 764 l 714 764 q 749 737 743 764 l 772 652 q 806 618 779 624 l 890 596 q 917 561 917 590 l 917 479 q 909 459 917 467 q 889 452 902 452 l 815 452 q 781 425 787 452 l 755 338 q 721 313 749 313 l 332 313 q 312 320 319 313 q 304 340 304 328 z "},"":{"ha":1014,"x_min":97,"x_max":917,"o":"m 646 1125 l 646 1042 q 638 1021 646 1029 q 618 1014 631 1014 l 534 1014 q 514 1006 522 1014 q 507 986 507 999 l 507 903 q 500 882 507 890 q 479 875 492 875 l 396 875 q 376 882 383 875 q 368 903 368 890 l 368 986 q 376 1006 368 999 q 396 1014 383 1014 l 444 1014 q 489 1033 471 1014 q 507 1078 507 1051 l 507 1125 q 514 1145 507 1138 q 534 1153 522 1153 l 618 1153 q 638 1145 631 1153 q 646 1125 646 1138 m 304 340 l 304 424 q 312 444 304 437 q 332 452 319 452 l 715 452 q 760 470 741 452 q 779 514 779 489 l 779 562 q 761 607 779 589 q 715 625 742 625 l 298 625 q 253 607 272 625 q 235 562 235 589 l 235 203 q 254 158 235 177 q 298 139 273 139 l 715 139 q 760 158 741 139 q 779 203 779 177 l 779 245 q 787 266 779 258 q 807 273 794 273 l 889 273 q 909 266 902 273 q 917 245 917 258 l 917 204 q 890 170 917 176 l 803 146 q 770 113 776 140 l 746 26 q 711 0 740 0 l 300 0 q 265 26 271 0 l 241 113 q 208 146 235 140 l 123 170 q 97 204 97 176 l 97 561 q 123 596 97 590 l 208 618 q 241 652 235 624 l 265 737 q 300 764 271 764 l 714 764 q 749 737 743 764 l 772 652 q 806 618 779 624 l 890 596 q 917 561 917 590 l 917 479 q 909 459 917 467 q 889 452 902 452 l 815 452 q 781 425 787 452 l 755 338 q 721 313 749 313 l 332 313 q 312 320 319 313 q 304 340 304 328 z "},"":{"ha":1014,"x_min":97,"x_max":917,"o":"m 410 875 l 326 875 q 306 882 313 875 q 298 903 298 890 l 298 986 q 306 1006 298 999 q 326 1014 313 1014 l 375 1014 q 419 1033 401 1014 q 437 1078 437 1051 l 437 1125 q 445 1145 437 1138 q 465 1153 452 1153 l 549 1153 q 569 1145 562 1153 q 576 1125 576 1138 l 576 1078 q 594 1033 576 1051 q 639 1014 612 1014 l 688 1014 q 708 1006 701 1014 q 715 986 715 999 l 715 903 q 708 882 715 890 q 688 875 701 875 l 604 875 q 584 882 591 875 q 576 903 576 890 l 576 986 q 569 1006 576 999 q 549 1014 562 1014 l 465 1014 q 445 1006 452 1014 q 437 986 437 999 l 437 903 q 430 882 437 890 q 410 875 422 875 m 304 340 l 304 424 q 312 444 304 437 q 332 452 319 452 l 715 452 q 760 470 741 452 q 779 514 779 489 l 779 562 q 761 607 779 589 q 715 625 742 625 l 298 625 q 253 607 272 625 q 235 562 235 589 l 235 203 q 254 158 235 177 q 298 139 273 139 l 715 139 q 760 158 741 139 q 779 203 779 177 l 779 245 q 787 266 779 258 q 807 273 794 273 l 889 273 q 909 266 902 273 q 917 245 917 258 l 917 204 q 890 170 917 176 l 803 146 q 770 113 776 140 l 746 26 q 711 0 740 0 l 300 0 q 265 26 271 0 l 241 113 q 208 146 235 140 l 123 170 q 97 204 97 176 l 97 561 q 123 596 97 590 l 208 618 q 241 652 235 624 l 265 737 q 300 764 271 764 l 714 764 q 749 737 743 764 l 772 652 q 806 618 779 624 l 890 596 q 917 561 917 590 l 917 479 q 909 459 917 467 q 889 452 902 452 l 815 452 q 781 425 787 452 l 755 338 q 721 313 749 313 l 332 313 q 312 320 319 313 q 304 340 304 328 z "},"":{"ha":1014,"x_min":97,"x_max":917,"o":"m 576 903 l 576 986 q 584 1006 576 999 q 604 1014 591 1014 l 688 1014 q 708 1006 701 1014 q 715 986 715 999 l 715 903 q 708 882 715 890 q 688 875 701 875 l 604 875 q 584 882 591 875 q 576 903 576 890 m 326 1014 l 410 1014 q 430 1006 422 1014 q 437 986 437 999 l 437 903 q 430 882 437 890 q 410 875 422 875 l 326 875 q 306 882 313 875 q 298 903 298 890 l 298 986 q 306 1006 298 999 q 326 1014 313 1014 m 304 340 l 304 424 q 312 444 304 437 q 332 452 319 452 l 715 452 q 760 470 741 452 q 779 514 779 489 l 779 562 q 761 607 779 589 q 715 625 742 625 l 298 625 q 253 607 272 625 q 235 562 235 589 l 235 203 q 254 158 235 177 q 298 139 273 139 l 715 139 q 760 158 741 139 q 779 203 779 177 l 779 245 q 787 266 779 258 q 807 273 794 273 l 889 273 q 909 266 902 273 q 917 245 917 258 l 917 204 q 890 170 917 176 l 803 146 q 770 113 776 140 l 746 26 q 711 0 740 0 l 300 0 q 265 26 271 0 l 241 113 q 208 146 235 140 l 123 170 q 97 204 97 176 l 97 561 q 123 596 97 590 l 208 618 q 241 652 235 624 l 265 737 q 300 764 271 764 l 714 764 q 749 737 743 764 l 772 652 q 806 618 779 624 l 890 596 q 917 561 917 590 l 917 479 q 909 459 917 467 q 889 452 902 452 l 815 452 q 781 425 787 452 l 755 338 q 721 313 749 313 l 332 313 q 312 320 319 313 q 304 340 304 328 z "},"":{"ha":1014,"x_min":97,"x_max":917,"o":"m 368 1042 l 368 1125 q 376 1145 368 1138 q 396 1153 383 1153 l 479 1153 q 500 1145 492 1153 q 507 1125 507 1138 l 507 1078 q 525 1033 507 1051 q 570 1014 543 1014 l 618 1014 q 638 1006 631 1014 q 646 986 646 999 l 646 903 q 638 882 646 890 q 618 875 631 875 l 534 875 q 514 882 522 875 q 507 903 507 890 l 507 986 q 500 1006 507 999 q 479 1014 492 1014 l 396 1014 q 376 1021 383 1014 q 368 1042 368 1029 m 125 764 l 372 764 q 407 737 401 764 l 431 653 q 465 627 437 627 l 549 627 q 569 619 562 627 q 576 599 576 612 l 576 201 q 595 157 576 176 q 640 138 614 138 l 889 138 q 909 130 902 138 q 917 110 917 123 l 917 28 q 909 7 917 15 q 889 0 902 0 l 642 0 q 607 26 613 0 l 583 111 q 550 144 577 138 l 464 168 q 437 203 437 174 l 437 562 q 419 608 437 589 q 374 627 400 627 l 125 627 q 104 634 112 627 q 97 654 97 642 l 97 736 q 104 756 97 749 q 125 764 112 764 m 125 138 l 410 138 q 430 130 422 138 q 437 110 437 123 l 437 28 q 430 7 437 15 q 410 0 422 0 l 125 0 q 104 7 112 0 q 97 28 97 15 l 97 110 q 104 130 97 123 q 125 138 112 138 z "},"":{"ha":1014,"x_min":97,"x_max":917,"o":"m 646 1125 l 646 1042 q 638 1021 646 1029 q 618 1014 631 1014 l 534 1014 q 514 1006 522 1014 q 507 986 507 999 l 507 903 q 500 882 507 890 q 479 875 492 875 l 396 875 q 376 882 383 875 q 368 903 368 890 l 368 986 q 376 1006 368 999 q 396 1014 383 1014 l 444 1014 q 489 1033 471 1014 q 507 1078 507 1051 l 507 1125 q 514 1145 507 1138 q 534 1153 522 1153 l 618 1153 q 638 1145 631 1153 q 646 1125 646 1138 m 125 764 l 372 764 q 407 737 401 764 l 431 653 q 465 627 437 627 l 549 627 q 569 619 562 627 q 576 599 576 612 l 576 201 q 595 157 576 176 q 640 138 614 138 l 889 138 q 909 130 902 138 q 917 110 917 123 l 917 28 q 909 7 917 15 q 889 0 902 0 l 642 0 q 607 26 613 0 l 583 111 q 550 144 577 138 l 464 168 q 437 203 437 174 l 437 562 q 419 608 437 589 q 374 627 400 627 l 125 627 q 104 634 112 627 q 97 654 97 642 l 97 736 q 104 756 97 749 q 125 764 112 764 m 125 138 l 410 138 q 430 130 422 138 q 437 110 437 123 l 437 28 q 430 7 437 15 q 410 0 422 0 l 125 0 q 104 7 112 0 q 97 28 97 15 l 97 110 q 104 130 97 123 q 125 138 112 138 z "},"":{"ha":1014,"x_min":97,"x_max":917,"o":"m 410 875 l 326 875 q 306 882 313 875 q 298 903 298 890 l 298 986 q 306 1006 298 999 q 326 1014 313 1014 l 375 1014 q 419 1033 401 1014 q 437 1078 437 1051 l 437 1125 q 445 1145 437 1138 q 465 1153 452 1153 l 549 1153 q 569 1145 562 1153 q 576 1125 576 1138 l 576 1078 q 594 1033 576 1051 q 639 1014 612 1014 l 688 1014 q 708 1006 701 1014 q 715 986 715 999 l 715 903 q 708 882 715 890 q 688 875 701 875 l 604 875 q 584 882 591 875 q 576 903 576 890 l 576 986 q 569 1006 576 999 q 549 1014 562 1014 l 465 1014 q 445 1006 452 1014 q 437 986 437 999 l 437 903 q 430 882 437 890 q 410 875 422 875 m 125 764 l 372 764 q 407 737 401 764 l 431 653 q 465 627 437 627 l 549 627 q 569 619 562 627 q 576 599 576 612 l 576 201 q 595 157 576 176 q 640 138 614 138 l 889 138 q 909 130 902 138 q 917 110 917 123 l 917 28 q 909 7 917 15 q 889 0 902 0 l 642 0 q 607 26 613 0 l 583 111 q 550 144 577 138 l 464 168 q 437 203 437 174 l 437 562 q 419 608 437 589 q 374 627 400 627 l 125 627 q 104 634 112 627 q 97 654 97 642 l 97 736 q 104 756 97 749 q 125 764 112 764 m 125 138 l 410 138 q 430 130 422 138 q 437 110 437 123 l 437 28 q 430 7 437 15 q 410 0 422 0 l 125 0 q 104 7 112 0 q 97 28 97 15 l 97 110 q 104 130 97 123 q 125 138 112 138 z "},"":{"ha":1014,"x_min":97,"x_max":917,"o":"m 576 903 l 576 986 q 584 1006 576 999 q 604 1014 591 1014 l 688 1014 q 708 1006 701 1014 q 715 986 715 999 l 715 903 q 708 882 715 890 q 688 875 701 875 l 604 875 q 584 882 591 875 q 576 903 576 890 m 326 1014 l 410 1014 q 430 1006 422 1014 q 437 986 437 999 l 437 903 q 430 882 437 890 q 410 875 422 875 l 326 875 q 306 882 313 875 q 298 903 298 890 l 298 986 q 306 1006 298 999 q 326 1014 313 1014 m 125 764 l 372 764 q 407 737 401 764 l 431 653 q 465 627 437 627 l 549 627 q 569 619 562 627 q 576 599 576 612 l 576 201 q 595 157 576 176 q 640 138 614 138 l 889 138 q 909 130 902 138 q 917 110 917 123 l 917 28 q 909 7 917 15 q 889 0 902 0 l 642 0 q 607 26 613 0 l 583 111 q 550 144 577 138 l 464 168 q 437 203 437 174 l 437 562 q 419 608 437 589 q 374 627 400 627 l 125 627 q 104 634 112 627 q 97 654 97 642 l 97 736 q 104 756 97 749 q 125 764 112 764 m 125 138 l 410 138 q 430 130 422 138 q 437 110 437 123 l 437 28 q 430 7 437 15 q 410 0 422 0 l 125 0 q 104 7 112 0 q 97 28 97 15 l 97 110 q 104 130 97 123 q 125 138 112 138 z "},"":{"ha":1014,"x_min":97,"x_max":917,"o":"m 612 722 l 612 771 q 594 815 612 798 q 549 833 575 833 l 473 833 q 453 841 460 833 q 446 861 446 848 l 446 945 q 453 965 446 958 q 473 972 460 972 l 585 972 q 605 965 597 972 q 612 945 612 958 l 612 861 q 620 841 612 848 q 640 833 627 833 l 751 833 q 772 841 764 833 q 779 861 779 848 l 779 945 q 787 965 779 958 q 807 972 794 972 l 889 972 q 909 965 902 972 q 917 945 917 958 l 917 861 q 909 841 917 848 q 889 833 902 833 l 843 833 q 798 815 817 833 q 779 771 779 798 l 779 758 q 797 713 779 732 q 842 694 815 694 l 890 694 q 917 667 917 694 l 917 619 q 909 598 917 608 q 890 586 902 589 l 806 562 q 772 529 779 556 l 749 443 q 714 416 743 416 l 298 416 q 254 397 273 416 q 235 353 235 378 l 235 203 q 254 158 235 177 q 298 139 273 139 l 751 139 q 772 146 764 139 q 779 167 779 154 l 779 389 q 787 409 779 401 q 807 416 794 416 l 889 416 q 909 409 902 416 q 917 389 917 401 l 917 28 q 909 7 917 15 q 889 0 902 0 l 300 0 q 265 26 271 0 l 241 113 q 208 146 235 140 l 123 170 q 97 204 97 176 l 97 353 q 123 387 97 381 l 208 411 q 241 444 235 417 l 265 529 q 300 555 271 555 l 715 555 q 760 574 741 555 q 779 619 779 593 l 779 667 q 772 687 779 680 q 751 694 764 694 l 640 694 q 620 702 627 694 q 612 722 612 709 z "},"":{"ha":1014,"x_min":97,"x_max":917,"o":"m 368 986 l 368 903 q 361 882 368 890 q 340 875 353 875 l 257 875 q 237 882 244 875 q 229 903 229 890 l 229 986 q 237 1006 229 999 q 257 1014 244 1014 l 306 1014 q 350 1033 332 1014 q 368 1078 368 1051 l 368 1125 q 376 1145 368 1138 q 396 1153 383 1153 l 479 1153 q 500 1145 492 1153 q 507 1125 507 1138 l 507 1078 q 525 1033 507 1051 q 570 1014 543 1014 l 583 1014 q 628 1033 610 1014 q 646 1078 646 1051 l 646 1125 q 653 1145 646 1138 q 673 1153 661 1153 l 757 1153 q 777 1145 770 1153 q 785 1125 785 1138 l 785 1042 q 777 1021 785 1029 q 757 1014 770 1014 l 673 1014 q 653 1006 661 1014 q 646 986 646 999 l 646 903 q 638 882 646 890 q 618 875 631 875 l 534 875 q 514 882 522 875 q 507 903 507 890 l 507 986 q 500 1006 507 999 q 479 1014 492 1014 l 396 1014 q 376 1006 383 1014 q 368 986 368 999 m 889 0 l 807 0 q 787 7 794 0 q 779 28 779 15 l 779 561 q 760 606 779 587 q 715 625 741 625 l 262 625 q 242 618 250 625 q 235 597 235 610 l 235 28 q 227 7 235 15 q 207 0 220 0 l 125 0 q 104 7 112 0 q 97 28 97 15 l 97 736 q 104 756 97 749 q 125 764 112 764 l 714 764 q 749 737 743 764 l 772 652 q 806 618 779 624 l 890 595 q 917 559 917 589 l 917 28 q 909 7 917 15 q 889 0 902 0 z "},"":{"ha":1014,"x_min":97,"x_max":917,"o":"m 368 1042 l 368 1125 q 376 1145 368 1138 q 396 1153 383 1153 l 479 1153 q 500 1145 492 1153 q 507 1125 507 1138 l 507 1078 q 525 1033 507 1051 q 570 1014 543 1014 l 618 1014 q 638 1006 631 1014 q 646 986 646 999 l 646 903 q 638 882 646 890 q 618 875 631 875 l 534 875 q 514 882 522 875 q 507 903 507 890 l 507 986 q 500 1006 507 999 q 479 1014 492 1014 l 396 1014 q 376 1021 383 1014 q 368 1042 368 1029 m 711 0 l 300 0 q 265 26 271 0 l 241 113 q 208 146 235 140 l 123 168 q 97 203 97 174 l 97 559 q 123 595 97 589 l 208 618 q 241 652 235 624 l 265 737 q 300 764 271 764 l 711 764 q 746 737 740 764 l 770 652 q 803 618 777 624 l 890 595 q 917 559 917 589 l 917 203 q 890 168 917 174 l 803 146 q 770 113 776 140 l 746 26 q 711 0 740 0 m 715 625 l 298 625 q 254 606 273 625 q 235 561 235 587 l 235 201 q 253 157 235 175 q 298 139 272 139 l 715 139 q 761 157 742 139 q 779 201 779 175 l 779 561 q 760 606 779 587 q 715 625 741 625 z "},"":{"ha":1014,"x_min":97,"x_max":917,"o":"m 646 1125 l 646 1042 q 638 1021 646 1029 q 618 1014 631 1014 l 534 1014 q 514 1006 522 1014 q 507 986 507 999 l 507 903 q 500 882 507 890 q 479 875 492 875 l 396 875 q 376 882 383 875 q 368 903 368 890 l 368 986 q 376 1006 368 999 q 396 1014 383 1014 l 444 1014 q 489 1033 471 1014 q 507 1078 507 1051 l 507 1125 q 514 1145 507 1138 q 534 1153 522 1153 l 618 1153 q 638 1145 631 1153 q 646 1125 646 1138 m 711 0 l 300 0 q 265 26 271 0 l 241 113 q 208 146 235 140 l 123 168 q 97 203 97 174 l 97 559 q 123 595 97 589 l 208 618 q 241 652 235 624 l 265 737 q 300 764 271 764 l 711 764 q 746 737 740 764 l 770 652 q 803 618 777 624 l 890 595 q 917 559 917 589 l 917 203 q 890 168 917 174 l 803 146 q 770 113 776 140 l 746 26 q 711 0 740 0 m 715 625 l 298 625 q 254 606 273 625 q 235 561 235 587 l 235 201 q 253 157 235 175 q 298 139 272 139 l 715 139 q 761 157 742 139 q 779 201 779 175 l 779 561 q 760 606 779 587 q 715 625 741 625 z "},"":{"ha":1014,"x_min":97,"x_max":917,"o":"m 410 875 l 326 875 q 306 882 313 875 q 298 903 298 890 l 298 986 q 306 1006 298 999 q 326 1014 313 1014 l 375 1014 q 419 1033 401 1014 q 437 1078 437 1051 l 437 1125 q 445 1145 437 1138 q 465 1153 452 1153 l 549 1153 q 569 1145 562 1153 q 576 1125 576 1138 l 576 1078 q 594 1033 576 1051 q 639 1014 612 1014 l 688 1014 q 708 1006 701 1014 q 715 986 715 999 l 715 903 q 708 882 715 890 q 688 875 701 875 l 604 875 q 584 882 591 875 q 576 903 576 890 l 576 986 q 569 1006 576 999 q 549 1014 562 1014 l 465 1014 q 445 1006 452 1014 q 437 986 437 999 l 437 903 q 430 882 437 890 q 410 875 422 875 m 711 0 l 300 0 q 265 26 271 0 l 241 113 q 208 146 235 140 l 123 168 q 97 203 97 174 l 97 559 q 123 595 97 589 l 208 618 q 241 652 235 624 l 265 737 q 300 764 271 764 l 711 764 q 746 737 740 764 l 770 652 q 803 618 777 624 l 890 595 q 917 559 917 589 l 917 203 q 890 168 917 174 l 803 146 q 770 113 776 140 l 746 26 q 711 0 740 0 m 715 625 l 298 625 q 254 606 273 625 q 235 561 235 587 l 235 201 q 253 157 235 175 q 298 139 272 139 l 715 139 q 761 157 742 139 q 779 201 779 175 l 779 561 q 760 606 779 587 q 715 625 741 625 z "},"":{"ha":1014,"x_min":97,"x_max":917,"o":"m 368 986 l 368 903 q 361 882 368 890 q 340 875 353 875 l 257 875 q 237 882 244 875 q 229 903 229 890 l 229 986 q 237 1006 229 999 q 257 1014 244 1014 l 306 1014 q 350 1033 332 1014 q 368 1078 368 1051 l 368 1125 q 376 1145 368 1138 q 396 1153 383 1153 l 479 1153 q 500 1145 492 1153 q 507 1125 507 1138 l 507 1078 q 525 1033 507 1051 q 570 1014 543 1014 l 583 1014 q 628 1033 610 1014 q 646 1078 646 1051 l 646 1125 q 653 1145 646 1138 q 673 1153 661 1153 l 757 1153 q 777 1145 770 1153 q 785 1125 785 1138 l 785 1042 q 777 1021 785 1029 q 757 1014 770 1014 l 673 1014 q 653 1006 661 1014 q 646 986 646 999 l 646 903 q 638 882 646 890 q 618 875 631 875 l 534 875 q 514 882 522 875 q 507 903 507 890 l 507 986 q 500 1006 507 999 q 479 1014 492 1014 l 396 1014 q 376 1006 383 1014 q 368 986 368 999 m 711 0 l 300 0 q 265 26 271 0 l 241 113 q 208 146 235 140 l 123 168 q 97 203 97 174 l 97 559 q 123 595 97 589 l 208 618 q 241 652 235 624 l 265 737 q 300 764 271 764 l 711 764 q 746 737 740 764 l 770 652 q 803 618 777 624 l 890 595 q 917 559 917 589 l 917 203 q 890 168 917 174 l 803 146 q 770 113 776 140 l 746 26 q 711 0 740 0 m 715 625 l 298 625 q 254 606 273 625 q 235 561 235 587 l 235 201 q 253 157 235 175 q 298 139 272 139 l 715 139 q 761 157 742 139 q 779 201 779 175 l 779 561 q 760 606 779 587 q 715 625 741 625 z "},"":{"ha":1014,"x_min":97,"x_max":917,"o":"m 576 903 l 576 986 q 584 1006 576 999 q 604 1014 591 1014 l 688 1014 q 708 1006 701 1014 q 715 986 715 999 l 715 903 q 708 882 715 890 q 688 875 701 875 l 604 875 q 584 882 591 875 q 576 903 576 890 m 326 1014 l 410 1014 q 430 1006 422 1014 q 437 986 437 999 l 437 903 q 430 882 437 890 q 410 875 422 875 l 326 875 q 306 882 313 875 q 298 903 298 890 l 298 986 q 306 1006 298 999 q 326 1014 313 1014 m 711 0 l 300 0 q 265 26 271 0 l 241 113 q 208 146 235 140 l 123 168 q 97 203 97 174 l 97 559 q 123 595 97 589 l 208 618 q 241 652 235 624 l 265 737 q 300 764 271 764 l 711 764 q 746 737 740 764 l 770 652 q 803 618 777 624 l 890 595 q 917 559 917 589 l 917 203 q 890 168 917 174 l 803 146 q 770 113 776 140 l 746 26 q 711 0 740 0 m 715 625 l 298 625 q 254 606 273 625 q 235 561 235 587 l 235 201 q 253 157 235 175 q 298 139 272 139 l 715 139 q 761 157 742 139 q 779 201 779 175 l 779 561 q 760 606 779 587 q 715 625 741 625 z "},"":{"ha":1014,"x_min":250,"x_max":764,"o":"m 549 639 l 465 639 q 445 646 452 639 q 437 667 437 654 l 437 764 q 445 784 437 777 q 465 791 452 791 l 549 791 q 569 784 562 791 q 576 764 576 777 l 576 667 q 569 646 576 654 q 549 639 562 639 m 278 555 l 736 555 q 756 548 749 555 q 764 528 764 541 l 764 446 q 756 425 764 433 q 736 418 749 418 l 278 418 q 258 425 265 418 q 250 446 250 433 l 250 528 q 258 548 250 541 q 278 555 265 555 m 549 180 l 465 180 q 445 188 452 180 q 437 208 437 195 l 437 306 q 445 326 437 319 q 465 334 452 334 l 549 334 q 569 326 562 334 q 576 306 576 319 l 576 208 q 569 188 576 195 q 549 180 562 180 z "},"":{"ha":1014,"x_min":97,"x_max":917,"o":"m 207 314 l 125 314 q 104 321 112 314 q 97 342 97 329 l 97 559 q 123 595 97 589 l 208 618 q 241 652 235 624 l 265 737 q 300 764 271 764 l 643 764 q 663 756 656 764 q 671 736 671 749 l 671 653 q 663 633 671 640 q 643 625 656 625 l 298 625 q 254 606 273 625 q 235 561 235 587 l 235 342 q 227 321 235 329 q 207 314 220 314 m 559 313 l 476 313 q 431 294 450 313 q 412 250 412 276 l 412 203 q 405 182 412 190 q 385 175 397 175 l 301 175 q 254 157 273 175 q 235 113 235 140 l 235 28 q 227 7 235 15 q 207 0 220 0 l 125 0 q 104 7 112 0 q 97 28 97 15 l 97 111 q 123 146 97 140 l 211 168 q 244 201 238 174 l 268 288 q 302 314 274 314 l 385 314 q 419 340 413 314 l 424 355 q 427 382 427 363 l 427 424 q 434 444 427 437 q 454 452 441 452 l 538 452 q 583 470 564 452 q 602 514 602 488 l 602 561 q 609 581 602 574 q 629 589 616 589 l 713 589 q 760 607 741 589 q 779 652 779 625 l 779 736 q 787 756 779 749 q 807 764 794 764 l 889 764 q 909 756 902 764 q 917 736 917 749 l 917 653 q 890 618 917 624 l 803 596 q 770 562 777 590 l 746 476 q 711 450 740 450 l 629 450 q 595 424 601 450 l 590 408 q 587 382 587 400 l 587 340 q 580 320 587 328 q 559 313 572 313 m 343 28 l 343 111 q 351 132 343 124 q 371 139 358 139 l 715 139 q 761 157 742 139 q 779 201 779 175 l 779 422 q 787 443 779 435 q 807 450 794 450 l 889 450 q 909 443 902 450 q 917 422 917 435 l 917 203 q 890 168 917 174 l 803 146 q 770 113 776 140 l 746 26 q 711 0 740 0 l 371 0 q 351 7 358 0 q 343 28 343 15 z "},"":{"ha":1014,"x_min":97,"x_max":917,"o":"m 368 1042 l 368 1125 q 376 1145 368 1138 q 396 1153 383 1153 l 479 1153 q 500 1145 492 1153 q 507 1125 507 1138 l 507 1078 q 525 1033 507 1051 q 570 1014 543 1014 l 618 1014 q 638 1006 631 1014 q 646 986 646 999 l 646 903 q 638 882 646 890 q 618 875 631 875 l 534 875 q 514 882 522 875 q 507 903 507 890 l 507 986 q 500 1006 507 999 q 479 1014 492 1014 l 396 1014 q 376 1021 383 1014 q 368 1042 368 1029 m 125 764 l 207 764 q 227 756 220 764 q 235 736 235 749 l 235 203 q 254 158 235 177 q 298 139 273 139 l 751 139 q 772 146 764 139 q 779 167 779 154 l 779 736 q 787 756 779 749 q 807 764 794 764 l 889 764 q 909 756 902 764 q 917 736 917 749 l 917 28 q 909 7 917 15 q 889 0 902 0 l 300 0 q 265 26 271 0 l 241 113 q 208 146 235 140 l 123 170 q 97 204 97 176 l 97 736 q 104 756 97 749 q 125 764 112 764 z "},"":{"ha":1014,"x_min":97,"x_max":917,"o":"m 646 1125 l 646 1042 q 638 1021 646 1029 q 618 1014 631 1014 l 534 1014 q 514 1006 522 1014 q 507 986 507 999 l 507 903 q 500 882 507 890 q 479 875 492 875 l 396 875 q 376 882 383 875 q 368 903 368 890 l 368 986 q 376 1006 368 999 q 396 1014 383 1014 l 444 1014 q 489 1033 471 1014 q 507 1078 507 1051 l 507 1125 q 514 1145 507 1138 q 534 1153 522 1153 l 618 1153 q 638 1145 631 1153 q 646 1125 646 1138 m 125 764 l 207 764 q 227 756 220 764 q 235 736 235 749 l 235 203 q 254 158 235 177 q 298 139 273 139 l 751 139 q 772 146 764 139 q 779 167 779 154 l 779 736 q 787 756 779 749 q 807 764 794 764 l 889 764 q 909 756 902 764 q 917 736 917 749 l 917 28 q 909 7 917 15 q 889 0 902 0 l 300 0 q 265 26 271 0 l 241 113 q 208 146 235 140 l 123 170 q 97 204 97 176 l 97 736 q 104 756 97 749 q 125 764 112 764 z "},"":{"ha":1014,"x_min":97,"x_max":917,"o":"m 410 875 l 326 875 q 306 882 313 875 q 298 903 298 890 l 298 986 q 306 1006 298 999 q 326 1014 313 1014 l 375 1014 q 419 1033 401 1014 q 437 1078 437 1051 l 437 1125 q 445 1145 437 1138 q 465 1153 452 1153 l 549 1153 q 569 1145 562 1153 q 576 1125 576 1138 l 576 1078 q 594 1033 576 1051 q 639 1014 612 1014 l 688 1014 q 708 1006 701 1014 q 715 986 715 999 l 715 903 q 708 882 715 890 q 688 875 701 875 l 604 875 q 584 882 591 875 q 576 903 576 890 l 576 986 q 569 1006 576 999 q 549 1014 562 1014 l 465 1014 q 445 1006 452 1014 q 437 986 437 999 l 437 903 q 430 882 437 890 q 410 875 422 875 m 125 764 l 207 764 q 227 756 220 764 q 235 736 235 749 l 235 203 q 254 158 235 177 q 298 139 273 139 l 751 139 q 772 146 764 139 q 779 167 779 154 l 779 736 q 787 756 779 749 q 807 764 794 764 l 889 764 q 909 756 902 764 q 917 736 917 749 l 917 28 q 909 7 917 15 q 889 0 902 0 l 300 0 q 265 26 271 0 l 241 113 q 208 146 235 140 l 123 170 q 97 204 97 176 l 97 736 q 104 756 97 749 q 125 764 112 764 z "},"":{"ha":1014,"x_min":97,"x_max":917,"o":"m 576 903 l 576 986 q 584 1006 576 999 q 604 1014 591 1014 l 688 1014 q 708 1006 701 1014 q 715 986 715 999 l 715 903 q 708 882 715 890 q 688 875 701 875 l 604 875 q 584 882 591 875 q 576 903 576 890 m 326 1014 l 410 1014 q 430 1006 422 1014 q 437 986 437 999 l 437 903 q 430 882 437 890 q 410 875 422 875 l 326 875 q 306 882 313 875 q 298 903 298 890 l 298 986 q 306 1006 298 999 q 326 1014 313 1014 m 125 764 l 207 764 q 227 756 220 764 q 235 736 235 749 l 235 203 q 254 158 235 177 q 298 139 273 139 l 751 139 q 772 146 764 139 q 779 167 779 154 l 779 736 q 787 756 779 749 q 807 764 794 764 l 889 764 q 909 756 902 764 q 917 736 917 749 l 917 28 q 909 7 917 15 q 889 0 902 0 l 300 0 q 265 26 271 0 l 241 113 q 208 146 235 140 l 123 170 q 97 204 97 176 l 97 736 q 104 756 97 749 q 125 764 112 764 z "},"":{"ha":1014,"x_min":97,"x_max":917,"o":"m 646 1125 l 646 1042 q 638 1021 646 1029 q 618 1014 631 1014 l 534 1014 q 514 1006 522 1014 q 507 986 507 999 l 507 903 q 500 882 507 890 q 479 875 492 875 l 396 875 q 376 882 383 875 q 368 903 368 890 l 368 986 q 376 1006 368 999 q 396 1014 383 1014 l 444 1014 q 489 1033 471 1014 q 507 1078 507 1051 l 507 1125 q 514 1145 507 1138 q 534 1153 522 1153 l 618 1153 q 638 1145 631 1153 q 646 1125 646 1138 m 807 764 l 889 764 q 909 756 902 764 q 917 736 917 749 l 917 204 q 890 170 917 176 l 806 146 q 772 113 779 140 l 749 26 q 714 0 743 0 l 262 0 q 242 7 250 0 q 235 28 235 15 l 235 111 q 208 146 235 140 l 123 168 q 97 203 97 174 l 97 736 q 104 756 97 749 q 125 764 112 764 l 207 764 q 227 756 220 764 q 235 736 235 749 l 235 201 q 253 157 235 175 q 298 139 272 139 l 715 139 q 760 158 741 139 q 779 203 779 177 l 779 736 q 787 756 779 749 q 807 764 794 764 m 235 -257 l 235 -174 q 242 -153 235 -161 q 262 -146 250 -146 l 715 -146 q 760 -127 741 -146 q 779 -82 779 -108 l 779 -28 q 787 -7 779 -15 q 807 0 794 0 l 889 0 q 909 -7 902 0 q 917 -28 917 -15 l 917 -81 q 890 -115 917 -109 l 806 -139 q 772 -172 779 -145 l 749 -258 q 714 -285 743 -285 l 262 -285 q 242 -277 250 -285 q 235 -257 235 -270 z "},"":{"ha":1014,"x_min":97,"x_max":917,"o":"m 576 903 l 576 986 q 584 1006 576 999 q 604 1014 591 1014 l 688 1014 q 708 1006 701 1014 q 715 986 715 999 l 715 903 q 708 882 715 890 q 688 875 701 875 l 604 875 q 584 882 591 875 q 576 903 576 890 m 326 1014 l 410 1014 q 430 1006 422 1014 q 437 986 437 999 l 437 903 q 430 882 437 890 q 410 875 422 875 l 326 875 q 306 882 313 875 q 298 903 298 890 l 298 986 q 306 1006 298 999 q 326 1014 313 1014 m 807 764 l 889 764 q 909 756 902 764 q 917 736 917 749 l 917 204 q 890 170 917 176 l 806 146 q 772 113 779 140 l 749 26 q 714 0 743 0 l 262 0 q 242 7 250 0 q 235 28 235 15 l 235 111 q 208 146 235 140 l 123 168 q 97 203 97 174 l 97 736 q 104 756 97 749 q 125 764 112 764 l 207 764 q 227 756 220 764 q 235 736 235 749 l 235 201 q 253 157 235 175 q 298 139 272 139 l 715 139 q 760 158 741 139 q 779 203 779 177 l 779 736 q 787 756 779 749 q 807 764 794 764 m 235 -257 l 235 -174 q 242 -153 235 -161 q 262 -146 250 -146 l 715 -146 q 760 -127 741 -146 q 779 -82 779 -108 l 779 -28 q 787 -7 779 -15 q 807 0 794 0 l 889 0 q 909 -7 902 0 q 917 -28 917 -15 l 917 -81 q 890 -115 917 -109 l 806 -139 q 772 -172 779 -145 l 749 -258 q 714 -285 743 -285 l 262 -285 q 242 -277 250 -285 q 235 -257 235 -270 z "},"":{"ha":1014,"x_min":56,"x_max":917,"o":"m 189 28 l 189 353 q 214 387 189 381 l 300 411 q 334 444 328 418 l 357 529 q 392 555 363 555 l 612 555 q 633 548 625 555 q 640 528 640 541 l 640 446 q 633 425 640 433 q 612 418 625 418 l 390 418 q 345 399 364 418 q 326 354 326 380 l 326 167 q 334 146 326 154 q 354 139 341 139 l 715 139 q 761 157 742 139 q 779 201 779 175 l 779 770 q 760 814 779 795 q 715 833 741 833 l 354 833 q 334 826 341 833 q 326 806 326 819 l 326 621 q 300 586 326 592 l 214 562 q 180 529 186 556 l 157 444 q 122 418 151 418 l 83 418 q 63 425 71 418 q 56 446 56 433 l 56 528 q 63 548 56 541 q 83 555 71 555 l 123 555 q 170 574 150 555 q 189 619 189 593 l 189 945 q 196 965 189 958 q 216 972 203 972 l 714 972 q 749 946 743 972 l 772 860 q 806 827 779 833 l 890 803 q 917 768 917 797 l 917 203 q 890 168 917 174 l 806 146 q 772 113 779 140 l 749 26 q 714 0 743 0 l 216 0 q 196 7 203 0 q 189 28 189 15 z "},"":{"ha":1014,"x_min":97,"x_max":917,"o":"m 401 832 l 715 832 q 760 851 741 832 q 779 895 779 869 l 779 945 q 787 965 779 958 q 807 972 794 972 l 889 972 q 909 965 902 972 q 917 945 917 958 l 917 861 q 909 841 917 848 q 889 833 902 833 l 807 833 q 787 826 794 833 q 779 806 779 819 l 779 722 q 787 702 779 709 q 807 694 794 694 l 889 694 q 909 687 902 694 q 917 667 917 680 l 917 619 q 909 598 917 608 q 890 586 902 589 l 806 562 q 772 529 779 556 l 749 443 q 714 416 743 416 l 298 416 q 254 397 273 416 q 235 353 235 378 l 235 203 q 254 158 235 177 q 298 139 273 139 l 751 139 q 772 146 764 139 q 779 167 779 154 l 779 389 q 787 409 779 401 q 807 416 794 416 l 889 416 q 909 409 902 416 q 917 389 917 401 l 917 28 q 909 7 917 15 q 889 0 902 0 l 300 0 q 265 26 271 0 l 241 113 q 208 146 235 140 l 123 170 q 97 204 97 176 l 97 353 q 123 387 97 381 l 208 411 q 241 444 235 417 l 265 529 q 300 555 271 555 l 715 555 q 760 574 741 555 q 779 619 779 593 l 779 632 q 761 676 779 659 q 715 694 742 694 l 401 694 q 381 702 389 694 q 374 722 374 709 l 374 804 q 381 825 374 817 q 401 832 389 832 z "},"":{"ha":1014,"x_min":97,"x_max":917,"o":"m 125 764 l 372 764 q 407 737 401 764 l 431 653 q 465 627 437 627 l 549 627 q 569 619 562 627 q 576 599 576 612 l 576 201 q 595 157 576 176 q 640 138 614 138 l 889 138 q 909 130 902 138 q 917 110 917 123 l 917 28 q 909 7 917 15 q 889 0 902 0 l 642 0 q 607 26 613 0 l 583 111 q 550 144 577 138 l 464 168 q 437 203 437 174 l 437 562 q 419 608 437 589 q 374 627 400 627 l 125 627 q 104 634 112 627 q 97 654 97 642 l 97 736 q 104 756 97 749 q 125 764 112 764 m 125 138 l 410 138 q 430 130 422 138 q 437 110 437 123 l 437 28 q 430 7 437 15 q 410 0 422 0 l 125 0 q 104 7 112 0 q 97 28 97 15 l 97 110 q 104 130 97 123 q 125 138 112 138 z "},"":{"ha":1014,"x_min":28,"x_max":917,"o":"m 168 791 l 168 945 q 176 965 168 958 q 196 972 183 972 l 278 972 q 298 965 291 972 q 306 945 306 958 l 306 791 q 298 771 306 779 q 278 764 291 764 l 196 764 q 176 771 183 764 q 168 791 168 779 m 28 375 l 28 458 q 35 479 28 471 q 56 486 43 486 l 139 486 q 159 494 152 486 q 167 514 167 501 l 167 597 q 174 618 167 610 q 195 625 182 625 l 243 625 q 288 644 269 625 q 306 689 306 663 l 306 736 q 313 756 306 749 q 334 764 321 764 l 416 764 q 437 756 429 764 q 444 736 444 749 l 444 653 q 437 633 444 640 q 416 625 429 625 l 334 625 q 313 618 321 625 q 306 597 306 610 l 306 514 q 298 494 306 501 q 278 486 291 486 l 229 486 q 185 468 203 486 q 167 422 167 449 l 167 375 q 159 355 167 362 q 139 347 152 347 l 56 347 q 35 355 43 347 q 28 375 28 362 m 196 347 l 278 347 q 298 340 291 347 q 306 319 306 332 l 306 167 q 313 146 306 154 q 334 139 321 139 l 889 139 q 909 132 902 139 q 917 111 917 124 l 917 28 q 909 7 917 15 q 889 0 902 0 l 196 0 q 176 7 183 0 q 168 28 168 15 l 168 319 q 176 340 168 332 q 196 347 183 347 z "},"":{"ha":1014,"x_min":97,"x_max":917,"o":"m 250 446 l 250 528 q 258 548 250 541 q 278 555 265 555 l 374 555 q 418 574 399 555 q 437 619 437 593 l 437 771 q 418 816 437 797 q 374 835 399 835 l 125 835 q 104 842 112 835 q 97 863 97 850 l 97 945 q 104 965 97 958 q 125 972 112 972 l 372 972 q 407 946 401 972 l 431 861 q 464 828 437 834 l 550 804 q 576 770 576 798 l 576 621 q 550 586 576 592 l 464 562 q 431 529 437 556 l 407 444 q 372 418 401 418 l 278 418 q 258 425 265 418 q 250 446 250 433 m 550 144 l 464 168 q 437 203 437 174 l 437 353 q 464 387 437 381 l 550 411 q 583 444 577 417 l 607 529 q 642 555 613 555 l 736 555 q 756 548 749 555 q 764 528 764 541 l 764 446 q 756 425 764 433 q 736 418 749 418 l 640 418 q 595 399 614 418 q 576 354 576 380 l 576 201 q 595 157 576 176 q 640 138 614 138 l 889 138 q 909 130 902 138 q 917 110 917 123 l 917 28 q 909 7 917 15 q 889 0 902 0 l 642 0 q 607 26 613 0 l 583 111 q 550 144 577 138 m 125 138 l 410 138 q 430 130 422 138 q 437 110 437 123 l 437 28 q 430 7 437 15 q 410 0 422 0 l 125 0 q 104 7 112 0 q 97 28 97 15 l 97 110 q 104 130 97 123 q 125 138 112 138 z "},"":{"ha":1014,"x_min":97,"x_max":917,"o":"m 97 28 l 97 945 q 104 965 97 958 q 125 972 112 972 l 889 972 q 909 965 902 972 q 917 945 917 958 l 917 28 q 909 7 917 15 q 889 0 902 0 l 125 0 q 104 7 112 0 q 97 28 97 15 m 821 814 l 766 814 q 760 807 760 814 l 760 786 q 766 779 760 779 l 812 779 q 824 774 819 779 q 829 764 829 770 l 829 726 q 824 715 829 720 q 812 710 819 710 l 708 710 q 697 715 702 710 q 693 726 693 720 l 693 868 q 697 879 693 874 q 708 884 702 884 l 812 884 q 824 879 819 884 q 829 868 829 874 l 829 847 q 835 840 829 840 l 856 840 q 863 847 863 840 l 863 868 q 856 876 863 874 l 835 882 q 827 890 829 884 l 819 913 q 811 918 819 918 l 708 918 q 700 913 702 918 l 694 890 q 686 882 692 884 l 665 876 q 659 868 659 875 l 659 726 q 665 718 659 718 l 686 713 q 694 704 691 711 l 700 682 q 708 675 703 675 l 811 675 q 819 682 819 675 l 827 704 q 835 713 830 711 l 856 718 q 863 726 863 718 l 863 772 q 856 779 863 779 l 835 779 q 829 786 829 779 l 829 807 q 821 814 829 814 m 575 911 l 575 821 q 582 814 575 814 l 603 814 q 610 821 610 814 l 610 911 q 603 918 610 918 l 582 918 q 575 911 575 918 m 610 682 l 610 764 q 603 772 610 770 l 582 778 q 574 786 576 780 l 568 808 q 558 814 566 814 l 541 814 q 530 819 534 814 q 525 831 525 825 l 525 868 q 518 876 525 874 l 496 882 q 489 890 489 885 l 482 913 q 473 918 480 918 l 411 918 q 404 911 404 918 l 404 682 q 411 675 404 675 l 432 675 q 439 682 439 675 l 439 876 q 446 884 439 884 l 473 884 q 485 879 480 884 q 490 868 490 874 l 490 831 q 496 822 490 822 l 518 817 q 526 808 524 814 l 532 786 q 541 779 534 779 l 559 779 q 570 774 566 779 q 575 764 575 770 l 575 682 q 582 675 575 675 l 603 675 q 610 682 610 675 m 151 911 l 151 831 q 158 822 151 822 l 179 817 q 187 808 185 814 l 193 786 q 201 779 195 779 l 314 779 q 321 786 321 779 l 321 807 q 314 814 321 814 l 201 814 q 190 819 195 814 q 184 831 184 825 l 184 876 q 193 884 184 884 l 349 884 q 355 890 355 884 l 355 911 q 349 918 355 918 l 158 918 q 151 911 151 918 m 184 717 l 184 772 q 179 779 184 779 l 158 779 q 151 772 151 779 l 151 682 q 158 675 151 675 l 349 675 q 355 682 355 675 l 355 703 q 349 710 355 710 l 193 710 q 184 717 184 710 z "},"":{"ha":1014,"x_min":97,"x_max":917,"o":"m 597 861 l 621 946 q 656 972 627 972 l 889 972 q 909 965 902 972 q 917 945 917 958 l 917 863 q 909 842 917 850 q 889 835 902 835 l 654 835 q 608 816 628 835 q 589 771 589 797 l 589 619 q 608 574 589 593 q 653 555 627 555 l 750 555 q 770 548 763 555 q 778 528 778 541 l 778 444 q 770 424 778 431 q 750 416 763 416 l 654 416 q 619 443 625 416 l 596 529 q 562 562 590 555 l 478 586 q 452 621 452 592 l 452 807 q 459 827 452 820 q 479 835 467 835 l 561 835 q 584 842 574 835 q 597 861 595 849 m 424 139 q 444 132 437 139 q 452 111 452 124 l 452 28 q 444 7 452 15 q 424 0 437 0 l 300 0 q 265 26 271 0 l 241 113 q 208 146 235 140 l 123 168 q 97 203 97 174 l 97 768 q 123 803 97 797 l 208 827 q 241 860 235 833 l 265 946 q 300 972 271 972 l 424 972 q 444 965 437 972 q 452 945 452 958 l 452 861 q 444 841 452 848 q 424 833 437 833 l 298 833 q 254 814 273 833 q 235 770 235 795 l 235 201 q 253 157 235 175 q 298 139 272 139 l 424 139 m 596 113 q 561 139 590 139 l 479 139 q 459 146 467 139 q 452 167 452 154 l 452 389 q 459 409 452 401 q 479 416 467 416 l 561 416 q 581 409 574 416 q 589 389 589 401 l 589 203 q 608 158 589 177 q 654 139 628 139 l 889 139 q 909 132 902 139 q 917 111 917 124 l 917 28 q 909 7 917 15 q 889 0 902 0 l 656 0 q 621 26 627 0 l 596 113 z "},"":{"ha":1014,"x_min":97,"x_max":917,"o":"m 606 26 l 582 113 q 569 132 578 124 q 547 139 560 139 l 465 139 q 445 146 452 139 q 437 167 437 154 l 437 597 q 445 618 437 610 q 465 625 452 625 l 547 625 q 569 633 560 625 q 582 652 578 640 l 606 737 q 640 764 612 764 l 714 764 q 749 737 743 764 l 772 652 q 806 618 779 624 l 890 596 q 917 561 917 590 l 917 479 q 909 459 917 467 q 889 452 902 452 l 815 452 q 781 425 787 452 l 755 338 q 721 313 749 313 l 672 313 q 652 320 659 313 q 644 340 644 328 l 644 424 q 652 444 644 437 q 672 452 659 452 l 715 452 q 760 470 741 452 q 779 514 779 489 l 779 562 q 761 607 779 589 q 715 625 742 625 l 639 625 q 594 607 612 625 q 575 562 575 589 l 575 203 q 594 158 575 177 q 639 139 613 139 l 715 139 q 760 158 741 139 q 779 203 779 177 l 779 245 q 787 266 779 258 q 807 273 794 273 l 889 273 q 909 266 902 273 q 917 245 917 258 l 917 204 q 890 170 917 176 l 803 146 q 770 113 776 140 l 746 26 q 711 0 740 0 l 640 0 q 606 26 612 0 m 235 201 q 253 157 235 175 q 298 139 272 139 l 410 139 q 430 132 422 139 q 437 111 437 124 l 437 28 q 430 7 437 15 q 410 0 422 0 l 300 0 q 265 26 271 0 l 241 113 q 208 146 235 140 l 123 168 q 97 203 97 174 l 97 559 q 123 595 97 589 l 211 618 q 244 652 237 624 l 268 737 q 302 764 274 764 l 410 764 q 430 756 422 764 q 437 736 437 749 l 437 653 q 430 633 437 640 q 410 625 422 625 l 298 625 q 254 606 273 625 q 235 561 235 587 l 235 201 z "},"":{"ha":1014,"x_min":97,"x_max":917,"o":"m 326 1361 l 410 1361 q 430 1354 422 1361 q 437 1333 437 1346 l 437 1250 q 445 1230 437 1237 q 465 1222 452 1222 l 549 1222 q 569 1230 562 1222 q 576 1250 576 1237 l 576 1333 q 584 1354 576 1346 q 604 1361 591 1361 l 688 1361 q 708 1354 701 1361 q 715 1333 715 1346 l 715 1250 q 708 1230 715 1237 q 688 1222 701 1222 l 639 1222 q 594 1203 612 1222 q 576 1158 576 1185 l 576 1111 q 569 1090 576 1098 q 549 1083 562 1083 l 465 1083 q 445 1090 452 1083 q 437 1111 437 1098 l 437 1158 q 419 1203 437 1185 q 375 1222 401 1222 l 326 1222 q 306 1230 313 1222 q 298 1250 298 1237 l 298 1333 q 306 1354 298 1346 q 326 1361 313 1361 m 298 555 l 721 555 q 755 530 749 555 l 781 443 q 815 416 787 416 l 889 416 q 909 409 902 416 q 917 389 917 401 l 917 203 q 890 168 917 174 l 806 146 q 772 113 779 140 l 749 26 q 714 0 743 0 l 300 0 q 265 26 271 0 l 241 113 q 208 146 235 140 l 123 168 q 97 203 97 174 l 97 286 q 104 307 97 299 q 125 314 112 314 l 207 314 q 227 307 220 314 q 235 286 235 299 l 235 201 q 253 157 235 175 q 298 139 272 139 l 715 139 q 761 157 742 139 q 779 201 779 175 l 779 354 q 760 398 779 379 q 715 416 741 416 l 293 416 q 258 441 264 416 l 233 529 q 199 555 227 555 l 125 555 q 104 563 112 555 q 97 583 97 570 l 97 768 q 123 803 97 797 l 208 827 q 241 860 235 833 l 265 946 q 300 972 271 972 l 711 972 q 746 946 740 972 l 770 860 q 803 827 776 833 l 890 803 q 917 768 917 797 l 917 685 q 909 665 917 672 q 889 657 902 657 l 807 657 q 787 665 794 657 q 779 685 779 672 l 779 770 q 760 814 779 795 q 715 833 741 833 l 298 833 q 254 814 273 833 q 235 770 235 795 l 235 618 q 254 574 235 593 q 298 555 273 555 z "},"":{"ha":1014,"x_min":97,"x_max":917,"o":"m 326 1153 l 410 1153 q 430 1145 422 1153 q 437 1125 437 1138 l 437 1042 q 445 1021 437 1029 q 465 1014 452 1014 l 549 1014 q 569 1021 562 1014 q 576 1042 576 1029 l 576 1125 q 584 1145 576 1138 q 604 1153 591 1153 l 688 1153 q 708 1145 701 1153 q 715 1125 715 1138 l 715 1042 q 708 1021 715 1029 q 688 1014 701 1014 l 639 1014 q 594 995 612 1014 q 576 950 576 977 l 576 903 q 569 882 576 890 q 549 875 562 875 l 465 875 q 445 882 452 875 q 437 903 437 890 l 437 950 q 419 995 437 977 q 375 1014 401 1014 l 326 1014 q 306 1021 313 1014 q 298 1042 298 1029 l 298 1125 q 306 1145 298 1138 q 326 1153 313 1153 m 917 285 l 917 204 q 890 170 917 176 l 806 146 q 772 113 779 140 l 749 26 q 714 0 743 0 l 302 0 q 268 26 274 0 l 244 113 q 211 146 238 140 l 123 170 q 97 204 97 176 l 97 245 q 104 266 97 258 q 125 273 112 273 l 207 273 q 227 266 220 273 q 235 245 235 258 l 235 203 q 254 158 235 177 q 298 139 273 139 l 715 139 q 760 158 741 139 q 779 203 779 177 l 779 250 q 760 294 779 275 q 715 313 741 313 l 293 313 q 258 338 264 313 l 233 425 q 199 452 227 452 l 125 452 q 104 459 112 452 q 97 479 97 467 l 97 561 q 123 596 97 590 l 208 618 q 241 652 235 624 l 265 737 q 300 764 271 764 l 711 764 q 746 737 740 764 l 770 652 q 803 618 777 624 l 890 595 q 917 559 917 589 l 917 518 q 909 498 917 505 q 889 490 902 490 l 807 490 q 787 498 794 490 q 779 518 779 505 l 779 561 q 760 606 779 587 q 715 625 741 625 l 298 625 q 253 607 272 625 q 235 562 235 589 l 235 514 q 254 470 235 489 q 298 452 273 452 l 721 452 q 755 427 749 452 l 781 339 q 815 313 787 313 l 889 313 q 909 305 902 313 q 917 285 917 298 z "},"":{"ha":1014,"x_min":97,"x_max":917,"o":"m 576 1111 l 576 1194 q 584 1215 576 1207 q 604 1222 591 1222 l 688 1222 q 708 1215 701 1222 q 715 1194 715 1207 l 715 1111 q 708 1090 715 1098 q 688 1083 701 1083 l 604 1083 q 584 1090 591 1083 q 576 1111 576 1098 m 326 1222 l 410 1222 q 430 1215 422 1222 q 437 1194 437 1207 l 437 1111 q 430 1090 437 1098 q 410 1083 422 1083 l 326 1083 q 306 1090 313 1083 q 298 1111 298 1098 l 298 1194 q 306 1215 298 1207 q 326 1222 313 1222 m 411 416 l 302 416 q 268 443 274 416 l 244 529 q 211 562 238 556 l 123 585 q 97 619 97 591 l 97 945 q 104 965 97 958 q 125 972 112 972 l 207 972 q 227 965 220 972 q 235 945 235 958 l 235 616 q 254 572 235 589 q 301 554 273 554 l 411 554 q 431 547 424 554 q 439 526 439 539 l 439 479 q 458 435 439 454 q 503 416 477 416 l 513 416 q 558 435 539 416 q 576 479 576 453 l 576 526 q 584 547 576 539 q 604 554 591 554 l 713 554 q 760 572 741 554 q 779 616 779 589 l 779 945 q 787 965 779 958 q 807 972 794 972 l 889 972 q 909 965 902 972 q 917 945 917 958 l 917 619 q 890 585 917 591 l 803 562 q 770 529 776 556 l 746 443 q 711 416 740 416 l 604 416 q 584 409 591 416 q 576 389 576 401 l 576 28 q 569 7 576 15 q 549 0 562 0 l 467 0 q 446 7 454 0 q 439 28 439 15 l 439 389 q 431 409 439 401 q 411 416 424 416 z "},"":{"ha":1014,"x_min":97,"x_max":917,"o":"m 326 1361 l 410 1361 q 430 1354 422 1361 q 437 1333 437 1346 l 437 1250 q 445 1230 437 1237 q 465 1222 452 1222 l 549 1222 q 569 1230 562 1222 q 576 1250 576 1237 l 576 1333 q 584 1354 576 1346 q 604 1361 591 1361 l 688 1361 q 708 1354 701 1361 q 715 1333 715 1346 l 715 1250 q 708 1230 715 1237 q 688 1222 701 1222 l 639 1222 q 594 1203 612 1222 q 576 1158 576 1185 l 576 1111 q 569 1090 576 1098 q 549 1083 562 1083 l 465 1083 q 445 1090 452 1083 q 437 1111 437 1098 l 437 1158 q 419 1203 437 1185 q 375 1222 401 1222 l 326 1222 q 306 1230 313 1222 q 298 1250 298 1237 l 298 1333 q 306 1354 298 1346 q 326 1361 313 1361 m 125 972 l 889 972 q 909 965 902 972 q 917 945 917 958 l 917 757 q 890 722 917 728 l 803 700 q 770 667 776 694 l 746 581 q 711 554 740 554 l 629 554 q 595 528 601 554 l 590 513 q 587 486 587 505 l 587 444 q 580 424 587 431 q 559 416 572 416 l 476 416 q 431 398 450 416 q 412 354 412 380 l 412 307 q 405 287 412 294 q 385 279 397 279 l 301 279 q 254 261 273 279 q 235 216 235 243 l 235 167 q 242 146 235 154 q 262 139 250 139 l 889 139 q 909 132 902 139 q 917 111 917 124 l 917 28 q 909 7 917 15 q 889 0 902 0 l 125 0 q 104 7 112 0 q 97 28 97 15 l 97 215 q 123 250 97 244 l 211 272 q 244 306 237 278 l 268 392 q 302 418 274 418 l 385 418 q 419 444 413 418 l 424 460 q 427 486 427 468 l 427 528 q 434 548 427 541 q 454 555 441 555 l 538 555 q 583 574 564 555 q 602 618 602 592 l 602 665 q 609 686 602 678 q 629 693 616 693 l 713 693 q 760 711 741 693 q 779 755 779 728 l 779 806 q 772 826 779 819 q 751 833 764 833 l 125 833 q 104 841 112 833 q 97 861 97 848 l 97 945 q 104 965 97 958 q 125 972 112 972 z "},"":{"ha":1014,"x_min":97,"x_max":917,"o":"m 326 1153 l 410 1153 q 430 1145 422 1153 q 437 1125 437 1138 l 437 1042 q 445 1021 437 1029 q 465 1014 452 1014 l 549 1014 q 569 1021 562 1014 q 576 1042 576 1029 l 576 1125 q 584 1145 576 1138 q 604 1153 591 1153 l 688 1153 q 708 1145 701 1153 q 715 1125 715 1138 l 715 1042 q 708 1021 715 1029 q 688 1014 701 1014 l 639 1014 q 594 995 612 1014 q 576 950 576 977 l 576 903 q 569 882 576 890 q 549 875 562 875 l 465 875 q 445 882 452 875 q 437 903 437 890 l 437 950 q 419 995 437 977 q 375 1014 401 1014 l 326 1014 q 306 1021 313 1014 q 298 1042 298 1029 l 298 1125 q 306 1145 298 1138 q 326 1153 313 1153 m 262 139 l 889 139 q 909 132 902 139 q 917 111 917 124 l 917 28 q 909 7 917 15 q 889 0 902 0 l 125 0 q 104 7 112 0 q 97 28 97 15 l 97 285 q 104 305 97 298 q 125 313 112 313 l 199 313 q 233 339 227 313 l 258 427 q 293 452 264 452 l 715 452 q 760 470 741 452 q 779 514 779 489 l 779 597 q 772 618 779 610 q 751 625 764 625 l 125 625 q 104 633 112 625 q 97 653 97 640 l 97 736 q 104 756 97 749 q 125 764 112 764 l 889 764 q 909 756 902 764 q 917 736 917 749 l 917 479 q 909 459 917 467 q 889 452 902 452 l 815 452 q 781 425 787 452 l 755 338 q 721 313 749 313 l 298 313 q 254 294 273 313 q 235 250 235 275 l 235 167 q 242 146 235 154 q 262 139 250 139 z "},"":{"ha":1014,"x_min":298,"x_max":715,"o":"m 410 875 l 326 875 q 306 882 313 875 q 298 903 298 890 l 298 986 q 306 1006 298 999 q 326 1014 313 1014 l 375 1014 q 419 1033 401 1014 q 437 1078 437 1051 l 437 1125 q 445 1145 437 1138 q 465 1153 452 1153 l 549 1153 q 569 1145 562 1153 q 576 1125 576 1138 l 576 1078 q 594 1033 576 1051 q 639 1014 612 1014 l 688 1014 q 708 1006 701 1014 q 715 986 715 999 l 715 903 q 708 882 715 890 q 688 875 701 875 l 604 875 q 584 882 591 875 q 576 903 576 890 l 576 986 q 569 1006 576 999 q 549 1014 562 1014 l 465 1014 q 445 1006 452 1014 q 437 986 437 999 l 437 903 q 430 882 437 890 q 410 875 422 875 z "},"":{"ha":1014,"x_min":298,"x_max":715,"o":"m 326 1153 l 410 1153 q 430 1145 422 1153 q 437 1125 437 1138 l 437 1042 q 445 1021 437 1029 q 465 1014 452 1014 l 549 1014 q 569 1021 562 1014 q 576 1042 576 1029 l 576 1125 q 584 1145 576 1138 q 604 1153 591 1153 l 688 1153 q 708 1145 701 1153 q 715 1125 715 1138 l 715 1042 q 708 1021 715 1029 q 688 1014 701 1014 l 639 1014 q 594 995 612 1014 q 576 950 576 977 l 576 903 q 569 882 576 890 q 549 875 562 875 l 465 875 q 445 882 452 875 q 437 903 437 890 l 437 950 q 419 995 437 977 q 375 1014 401 1014 l 326 1014 q 306 1021 313 1014 q 298 1042 298 1029 l 298 1125 q 306 1145 298 1138 q 326 1153 313 1153 z "},"":{"ha":1014,"x_min":292,"x_max":722,"o":"m 517 806 l 494 806 q 460 832 466 806 l 436 918 q 403 951 430 945 l 318 974 q 292 1008 292 980 l 292 1034 q 318 1068 292 1062 l 403 1092 q 436 1125 430 1098 l 460 1211 q 494 1238 466 1238 l 517 1238 q 551 1211 545 1238 l 575 1125 q 608 1092 581 1098 l 696 1068 q 722 1034 722 1062 l 722 1008 q 696 974 722 980 l 608 951 q 575 918 581 945 l 551 832 q 517 806 545 806 m 521 1099 l 493 1099 q 448 1080 467 1099 q 429 1035 429 1061 l 429 1007 q 448 963 429 981 q 493 945 467 945 l 521 945 q 566 963 547 945 q 585 1007 585 981 l 585 1035 q 566 1080 585 1061 q 521 1099 547 1099 z "},"":{"ha":1014,"x_min":229,"x_max":785,"o":"m 368 986 l 368 903 q 361 882 368 890 q 340 875 353 875 l 257 875 q 237 882 244 875 q 229 903 229 890 l 229 986 q 237 1006 229 999 q 257 1014 244 1014 l 306 1014 q 350 1033 332 1014 q 368 1078 368 1051 l 368 1125 q 376 1145 368 1138 q 396 1153 383 1153 l 479 1153 q 500 1145 492 1153 q 507 1125 507 1138 l 507 1078 q 525 1033 507 1051 q 570 1014 543 1014 l 583 1014 q 628 1033 610 1014 q 646 1078 646 1051 l 646 1125 q 653 1145 646 1138 q 673 1153 661 1153 l 757 1153 q 777 1145 770 1153 q 785 1125 785 1138 l 785 1042 q 777 1021 785 1029 q 757 1014 770 1014 l 673 1014 q 653 1006 661 1014 q 646 986 646 999 l 646 903 q 638 882 646 890 q 618 875 631 875 l 534 875 q 514 882 522 875 q 507 903 507 890 l 507 986 q 500 1006 507 999 q 479 1014 492 1014 l 396 1014 q 376 1006 383 1014 q 368 986 368 999 z "},"":{"ha":1014,"x_min":97,"x_max":917,"o":"m 807 764 l 889 764 q 909 756 902 764 q 917 736 917 749 l 917 204 q 890 170 917 176 l 806 146 q 772 113 779 140 l 749 26 q 714 0 743 0 l 300 0 q 265 26 271 0 l 241 113 q 208 146 235 140 l 123 170 q 97 204 97 176 l 97 736 q 104 756 97 749 q 125 764 112 764 l 207 764 q 227 756 220 764 q 235 736 235 749 l 235 203 q 254 158 235 177 q 298 139 273 139 l 715 139 q 760 158 741 139 q 779 203 779 177 l 779 736 q 787 756 779 749 q 807 764 794 764 m 235 -28 l 235 -257 q 227 -277 235 -270 q 207 -285 220 -285 l 125 -285 q 104 -277 112 -285 q 97 -257 97 -270 l 97 -28 q 104 -7 97 -15 q 125 0 112 0 l 207 0 q 227 -7 220 0 q 235 -28 235 -15 z "},"":{"ha":1014,"x_min":195,"x_max":819,"o":"m 222 555 l 791 555 q 812 548 804 555 q 819 528 819 541 l 819 446 q 812 425 819 433 q 791 418 804 418 l 222 418 q 202 425 210 418 q 195 446 195 433 l 195 528 q 202 548 195 541 q 222 555 210 555 z "},"":{"ha":1014,"x_min":97,"x_max":917,"o":"m 125 555 l 889 555 q 909 548 902 555 q 917 528 917 541 l 917 446 q 909 425 917 433 q 889 418 902 418 l 125 418 q 104 425 112 418 q 97 446 97 433 l 97 528 q 104 548 97 541 q 125 555 112 555 z "},"":{"ha":1014,"x_min":437,"x_max":576,"o":"m 549 736 l 465 736 q 445 743 452 736 q 437 764 437 751 l 437 945 q 445 965 437 958 q 465 972 452 972 l 549 972 q 569 965 562 972 q 576 945 576 958 l 576 764 q 569 743 576 751 q 549 736 562 736 z "},"":{"ha":1014,"x_min":437,"x_max":576,"o":"m 549 736 l 465 736 q 445 743 452 736 q 437 764 437 751 l 437 945 q 445 965 437 958 q 465 972 452 972 l 549 972 q 569 965 562 972 q 576 945 576 958 l 576 764 q 569 743 576 751 q 549 736 562 736 z "},"":{"ha":1014,"x_min":437,"x_max":576,"o":"m 549 0 l 465 0 q 445 7 452 0 q 437 28 437 15 l 437 208 q 445 229 437 221 q 465 236 452 236 l 549 236 q 569 229 562 236 q 576 208 576 221 l 576 28 q 569 7 576 15 q 549 0 562 0 z "},"":{"ha":1014,"x_min":298,"x_max":715,"o":"m 410 736 l 326 736 q 306 743 313 736 q 298 764 298 751 l 298 945 q 306 965 298 958 q 326 972 313 972 l 410 972 q 430 965 422 972 q 437 945 437 958 l 437 764 q 430 743 437 751 q 410 736 422 736 m 688 736 l 604 736 q 584 743 591 736 q 576 764 576 751 l 576 945 q 584 965 576 958 q 604 972 591 972 l 688 972 q 708 965 701 972 q 715 945 715 958 l 715 764 q 708 743 715 751 q 688 736 701 736 z "},"":{"ha":1014,"x_min":298,"x_max":715,"o":"m 410 736 l 326 736 q 306 743 313 736 q 298 764 298 751 l 298 945 q 306 965 298 958 q 326 972 313 972 l 410 972 q 430 965 422 972 q 437 945 437 958 l 437 764 q 430 743 437 751 q 410 736 422 736 m 688 736 l 604 736 q 584 743 591 736 q 576 764 576 751 l 576 945 q 584 965 576 958 q 604 972 591 972 l 688 972 q 708 965 701 972 q 715 945 715 958 l 715 764 q 708 743 715 751 q 688 736 701 736 z "},"":{"ha":1014,"x_min":298,"x_max":715,"o":"m 410 0 l 326 0 q 306 7 313 0 q 298 28 298 15 l 298 208 q 306 229 298 221 q 326 236 313 236 l 410 236 q 430 229 422 236 q 437 208 437 221 l 437 28 q 430 7 437 15 q 410 0 422 0 m 688 0 l 604 0 q 584 7 591 0 q 576 28 576 15 l 576 208 q 584 229 576 221 q 604 236 591 236 l 688 236 q 708 229 701 236 q 715 208 715 221 l 715 28 q 708 7 715 15 q 688 0 701 0 z "},"":{"ha":1014,"x_min":167,"x_max":847,"o":"m 465 1111 l 549 1111 q 569 1103 562 1111 q 576 1083 576 1096 l 576 829 q 550 794 576 800 l 464 771 q 431 737 437 765 l 407 653 q 372 627 401 627 l 195 627 q 174 634 182 627 q 167 654 167 642 l 167 736 q 174 756 167 749 q 195 764 182 764 l 374 764 q 418 783 399 764 q 437 828 437 802 l 437 1083 q 445 1103 437 1096 q 465 1111 452 1111 m 549 -139 l 465 -139 q 445 -132 452 -139 q 437 -111 437 -124 l 437 561 q 464 596 437 590 l 550 619 q 583 653 576 625 l 607 737 q 642 764 613 764 l 819 764 q 840 756 832 764 q 847 736 847 749 l 847 654 q 840 634 847 642 q 819 627 832 627 l 640 627 q 595 607 614 627 q 576 562 576 588 l 576 -111 q 569 -132 576 -124 q 549 -139 562 -139 z "},"":{"ha":1014,"x_min":167,"x_max":847,"o":"m 465 1111 l 549 1111 q 569 1103 562 1111 q 576 1083 576 1096 l 576 829 q 550 794 576 800 l 464 771 q 431 737 437 765 l 407 653 q 372 627 401 627 l 195 627 q 174 634 182 627 q 167 654 167 642 l 167 736 q 174 756 167 749 q 195 764 182 764 l 374 764 q 418 783 399 764 q 437 828 437 802 l 437 1083 q 445 1103 437 1096 q 465 1111 452 1111 m 372 208 l 195 208 q 174 216 182 208 q 167 236 167 223 l 167 318 q 174 338 167 331 q 195 346 182 346 l 374 346 q 418 365 399 346 q 437 410 437 384 l 437 561 q 464 596 437 590 l 550 619 q 583 653 576 625 l 607 737 q 642 764 613 764 l 819 764 q 840 756 832 764 q 847 736 847 749 l 847 654 q 840 634 847 642 q 819 627 832 627 l 640 627 q 595 607 614 627 q 576 562 576 588 l 576 411 q 550 376 576 382 l 464 353 q 431 319 437 347 l 407 235 q 372 208 401 208 m 549 -139 l 465 -139 q 445 -132 452 -139 q 437 -111 437 -124 l 437 143 q 464 178 437 172 l 550 201 q 583 235 577 208 l 607 319 q 642 346 613 346 l 819 346 q 840 338 832 346 q 847 318 847 331 l 847 236 q 840 216 847 223 q 819 208 832 208 l 640 208 q 595 189 614 208 q 576 144 576 170 l 576 -111 q 569 -132 576 -124 q 549 -139 562 -139 z "},"":{"ha":1014,"x_min":403,"x_max":611,"o":"m 583 382 l 431 382 q 410 389 418 382 q 403 410 403 397 l 403 562 q 410 583 403 575 q 431 590 418 590 l 583 590 q 604 583 596 590 q 611 562 611 575 l 611 410 q 604 389 611 397 q 583 382 596 382 z "},"":{"ha":1014,"x_min":160,"x_max":854,"o":"m 271 0 l 187 0 q 167 7 174 0 q 160 28 160 15 l 160 125 q 167 145 160 138 q 187 153 174 153 l 271 153 q 291 145 283 153 q 298 125 298 138 l 298 28 q 291 7 298 15 q 271 0 283 0 m 549 0 l 465 0 q 445 7 452 0 q 437 28 437 15 l 437 125 q 445 145 437 138 q 465 153 452 153 l 549 153 q 569 145 562 153 q 576 125 576 138 l 576 28 q 569 7 576 15 q 549 0 562 0 m 827 0 l 743 0 q 723 7 730 0 q 715 28 715 15 l 715 125 q 723 145 715 138 q 743 153 730 153 l 827 153 q 847 145 840 153 q 854 125 854 138 l 854 28 q 847 7 854 15 q 827 0 840 0 z "},"":{"ha":1014,"x_min":334,"x_max":681,"o":"m 681 665 l 681 582 q 673 562 681 569 q 653 554 666 554 l 542 554 q 510 533 519 554 q 500 486 500 512 q 510 439 500 460 q 542 418 519 418 l 653 418 q 673 410 666 418 q 681 390 681 403 l 681 307 q 673 287 681 294 q 653 279 666 279 l 542 279 q 522 287 529 279 q 514 307 514 294 l 514 354 q 495 398 514 380 q 450 416 476 416 l 361 416 q 341 424 348 416 q 334 444 334 431 l 334 528 q 341 548 334 541 q 361 555 348 555 l 450 555 q 495 574 476 555 q 514 618 514 592 l 514 665 q 522 686 514 678 q 542 693 529 693 l 653 693 q 673 686 666 693 q 681 665 681 678 z "},"":{"ha":1014,"x_min":334,"x_max":681,"o":"m 334 582 l 334 665 q 341 686 334 678 q 361 693 348 693 l 472 693 q 492 686 485 693 q 500 665 500 678 l 500 618 q 519 574 500 592 q 564 555 538 555 l 653 555 q 673 548 666 555 q 681 528 681 541 l 681 444 q 673 424 681 431 q 653 416 666 416 l 564 416 q 519 398 538 416 q 500 354 500 380 l 500 307 q 492 287 500 294 q 472 279 485 279 l 361 279 q 341 287 348 279 q 334 307 334 294 l 334 390 q 341 410 334 403 q 361 418 348 418 l 472 418 q 504 439 494 418 q 514 486 514 460 q 504 533 514 512 q 472 554 494 554 l 361 554 q 341 562 348 554 q 334 582 334 569 z "},"":{"ha":1014,"x_min":97,"x_max":917,"o":"m 559 416 l 476 416 q 431 398 450 416 q 412 354 412 380 l 412 307 q 405 287 412 294 q 385 279 397 279 l 301 279 q 254 261 273 279 q 235 216 235 243 l 235 28 q 227 7 235 15 q 207 0 220 0 l 125 0 q 104 7 112 0 q 97 28 97 15 l 97 215 q 123 250 97 244 l 211 272 q 244 306 237 278 l 268 392 q 302 418 274 418 l 385 418 q 419 444 413 418 l 424 460 q 427 486 427 468 l 427 528 q 434 548 427 541 q 454 555 441 555 l 538 555 q 583 574 564 555 q 602 618 602 592 l 602 665 q 609 686 602 678 q 629 693 616 693 l 713 693 q 760 711 741 693 q 779 755 779 728 l 779 945 q 787 965 779 958 q 807 972 794 972 l 889 972 q 909 965 902 972 q 917 945 917 958 l 917 757 q 890 722 917 728 l 803 700 q 770 667 776 694 l 746 581 q 711 554 740 554 l 629 554 q 595 528 601 554 l 590 513 q 587 486 587 505 l 587 444 q 580 424 587 431 q 559 416 572 416 z "},"":{"ha":1014,"x_min":97,"x_max":917,"o":"m 170 555 l 125 555 q 104 563 112 555 q 97 583 97 570 l 97 665 q 104 686 97 678 q 125 693 112 693 l 171 693 q 216 712 197 693 q 235 757 235 731 l 235 768 q 261 803 235 797 l 346 827 q 379 860 373 833 l 403 946 q 437 972 409 972 l 889 972 q 909 965 902 972 q 917 945 917 958 l 917 861 q 909 841 917 848 q 889 833 902 833 l 436 833 q 391 814 410 833 q 372 770 372 795 l 372 758 q 347 724 372 730 l 261 700 q 228 667 234 694 l 204 582 q 170 555 198 555 m 170 281 l 125 281 q 104 288 112 281 q 97 309 97 296 l 97 390 q 104 410 97 403 q 125 418 112 418 l 171 418 q 216 437 197 418 q 235 482 235 456 l 235 490 q 261 525 235 519 l 347 549 q 380 582 374 555 l 404 667 q 439 693 410 693 l 751 693 q 772 686 764 693 q 779 665 779 678 l 779 583 q 772 563 779 570 q 751 555 764 555 l 437 555 q 392 536 412 555 q 372 492 372 517 l 372 484 q 347 449 372 455 l 261 425 q 228 392 234 419 l 204 307 q 170 281 198 281 m 439 418 l 751 418 q 772 410 764 418 q 779 390 779 403 l 779 309 q 772 288 779 296 q 751 281 764 281 l 437 281 q 392 261 412 281 q 372 216 372 242 l 372 201 q 391 157 372 175 q 436 139 410 139 l 889 139 q 909 132 902 139 q 917 111 917 124 l 917 28 q 909 7 917 15 q 889 0 902 0 l 437 0 q 403 26 409 0 l 379 113 q 346 146 373 140 l 261 168 q 235 203 235 174 l 235 215 q 261 250 235 244 l 347 273 q 380 307 374 279 l 404 392 q 439 418 410 418 z "},"":{"ha":1014,"x_min":111,"x_max":847,"o":"m 239 909 l 125 909 q 111 926 111 909 l 111 958 q 125 972 111 972 l 239 972 q 249 968 244 972 q 253 958 253 964 l 253 926 q 249 915 253 920 q 239 909 244 909 m 294 635 l 261 635 q 252 638 256 635 q 248 648 248 642 l 248 886 q 261 904 248 901 l 260 904 l 293 916 q 307 925 306 920 l 317 960 l 317 958 q 322 968 317 964 q 332 972 326 972 l 431 972 q 440 968 436 972 q 444 958 444 964 l 444 926 q 440 915 444 920 q 431 909 436 909 l 332 909 q 317 904 323 909 q 310 890 310 899 l 310 648 q 305 638 310 642 q 294 635 300 635 m 561 635 l 529 635 q 515 648 515 635 l 515 958 q 529 972 515 972 l 579 972 q 588 968 585 972 q 591 958 591 964 l 591 939 q 615 916 591 916 l 640 916 q 650 912 646 916 q 654 903 654 908 l 654 882 q 662 867 654 873 q 679 861 669 861 l 684 861 q 699 867 692 861 q 705 882 705 873 l 705 903 q 709 912 705 908 q 720 916 713 916 l 746 916 q 764 922 756 916 q 771 939 771 928 l 771 958 q 785 972 771 972 l 831 972 q 847 958 847 972 l 847 648 q 831 635 847 635 l 802 635 q 792 638 796 635 q 787 648 787 642 l 787 905 q 781 909 787 909 q 774 904 776 909 l 762 867 q 746 856 759 856 l 720 856 q 711 848 711 856 l 711 787 q 697 772 711 772 l 663 772 q 648 787 648 772 l 648 848 q 640 856 648 856 l 615 856 q 599 867 602 856 l 587 904 q 581 909 585 909 q 576 905 576 909 l 576 648 q 572 638 576 642 q 561 635 567 635 z "}}}
